{
    "asset" : {
        "generator" : "Khronos glTF Blender I/O v1.6.16",
        "version" : "2.0"
    },
    "scene" : 0,
    "scenes" : [
        {
            "name" : "Scene",
            "nodes" : [
                0,
                1,
                2,
                3,
                4
            ]
        }
    ],
    "nodes" : [
        {
            "mesh" : 0,
            "name" : "Sphere.001",
            "scale" : [
                10,
                10,
                10
            ]
        },
        {
            "mesh" : 1,
            "name" : "Cylinder.001",
            "rotation" : [
                0.5,
                0.5,
                -0.5,
                0.4999999701976776
            ],
            "scale" : [
                1.7000000476837158,
                2,
                3.5
            ],
            "translation" : [
                9.334783554077148,
                0,
                0
            ]
        },
        {
            "mesh" : 2,
            "name" : "Cube",
            "scale" : [
                1,
                0.009999999776482582,
                1
            ],
            "translation" : [
                1,
                0,
                -1
            ]
        },
        {
            "name" : "Light",
            "rotation" : [
                0.16907575726509094,
                0.7558803558349609,
                -0.27217137813568115,
                0.570947527885437
            ],
            "translation" : [
                4.076245307922363,
                5.903861999511719,
                -1.0054539442062378
            ]
        },
        {
            "name" : "Camera",
            "rotation" : [
                0.483536034822464,
                0.33687159419059753,
                -0.20870360732078552,
                0.7804827094078064
            ],
            "translation" : [
                7.358891487121582,
                4.958309173583984,
                6.925790786743164
            ]
        }
    ],
    "materials" : [
        {
            "doubleSided" : true,
            "name" : "Material.002",
            "pbrMetallicRoughness" : {
                "baseColorTexture" : {
                    "index" : 0
                },
                "metallicFactor" : 0,
                "roughnessFactor" : 0.5
            }
        },
        {
            "doubleSided" : true,
            "name" : "Material",
            "pbrMetallicRoughness" : {
                "baseColorTexture" : {
                    "index" : 1
                },
                "metallicFactor" : 0,
                "roughnessFactor" : 0.5
            }
        },
        {
            "doubleSided" : true,
            "name" : "Material.003",
            "pbrMetallicRoughness" : {
                "baseColorTexture" : {
                    "index" : 2
                },
                "metallicFactor" : 0,
                "roughnessFactor" : 0.5
            }
        }
    ],
    "meshes" : [
        {
            "name" : "Sphere.001",
            "primitives" : [
                {
                    "attributes" : {
                        "POSITION" : 0,
                        "NORMAL" : 1,
                        "TEXCOORD_0" : 2
                    },
                    "indices" : 3,
                    "material" : 0
                }
            ]
        },
        {
            "name" : "Cylinder.001",
            "primitives" : [
                {
                    "attributes" : {
                        "POSITION" : 4,
                        "NORMAL" : 5,
                        "TEXCOORD_0" : 6
                    },
                    "indices" : 7,
                    "material" : 1
                }
            ]
        },
        {
            "name" : "Cube",
            "primitives" : [
                {
                    "attributes" : {
                        "POSITION" : 8,
                        "NORMAL" : 9,
                        "TEXCOORD_0" : 10
                    },
                    "indices" : 11,
                    "material" : 2
                }
            ]
        }
    ],
    "textures" : [
        {
            "sampler" : 0,
            "source" : 0
        },
        {
            "sampler" : 0,
            "source" : 1
        },
        {
            "sampler" : 0,
            "source" : 2
        }
    ],
    "images" : [
        {
            "bufferView" : 4,
            "mimeType" : "image/png",
            "name" : "igloo-25"
        },
        {
            "bufferView" : 9,
            "mimeType" : "image/png",
            "name" : "igloodoor"
        },
        {
            "bufferView" : 14,
            "mimeType" : "image/png",
            "name" : "Igloo-12"
        }
    ],
    "accessors" : [
        {
            "bufferView" : 0,
            "componentType" : 5126,
            "count" : 1976,
            "max" : [
                0.980785071849823,
                1,
                0.9999994039535522
            ],
            "min" : [
                -0.9999990463256836,
                -4.371138828673793e-08,
                -0.9999987483024597
            ],
            "type" : "VEC3"
        },
        {
            "bufferView" : 1,
            "componentType" : 5126,
            "count" : 1976,
            "type" : "VEC3"
        },
        {
            "bufferView" : 2,
            "componentType" : 5126,
            "count" : 1976,
            "type" : "VEC2"
        },
        {
            "bufferView" : 3,
            "componentType" : 5123,
            "count" : 2868,
            "type" : "SCALAR"
        },
        {
            "bufferView" : 5,
            "componentType" : 5126,
            "count" : 198,
            "max" : [
                1.25,
                1,
                5.463923713477925e-08
            ],
            "min" : [
                -1.25,
                -1,
                -1.25
            ],
            "type" : "VEC3"
        },
        {
            "bufferView" : 6,
            "componentType" : 5126,
            "count" : 198,
            "type" : "VEC3"
        },
        {
            "bufferView" : 7,
            "componentType" : 5126,
            "count" : 198,
            "type" : "VEC2"
        },
        {
            "bufferView" : 8,
            "componentType" : 5123,
            "count" : 384,
            "type" : "SCALAR"
        },
        {
            "bufferView" : 10,
            "componentType" : 5126,
            "count" : 24,
            "max" : [
                1,
                1,
                1
            ],
            "min" : [
                -1,
                -1,
                -1
            ],
            "type" : "VEC3"
        },
        {
            "bufferView" : 11,
            "componentType" : 5126,
            "count" : 24,
            "type" : "VEC3"
        },
        {
            "bufferView" : 12,
            "componentType" : 5126,
            "count" : 24,
            "type" : "VEC2"
        },
        {
            "bufferView" : 13,
            "componentType" : 5123,
            "count" : 36,
            "type" : "SCALAR"
        }
    ],
    "bufferViews" : [
        {
            "buffer" : 0,
            "byteLength" : 23712,
            "byteOffset" : 0
        },
        {
            "buffer" : 0,
            "byteLength" : 23712,
            "byteOffset" : 23712
        },
        {
            "buffer" : 0,
            "byteLength" : 15808,
            "byteOffset" : 47424
        },
        {
            "buffer" : 0,
            "byteLength" : 5736,
            "byteOffset" : 63232
        },
        {
            "buffer" : 0,
            "byteLength" : 99921,
            "byteOffset" : 68968
        },
        {
            "buffer" : 0,
            "byteLength" : 2376,
            "byteOffset" : 168892
        },
        {
            "buffer" : 0,
            "byteLength" : 2376,
            "byteOffset" : 171268
        },
        {
            "buffer" : 0,
            "byteLength" : 1584,
            "byteOffset" : 173644
        },
        {
            "buffer" : 0,
            "byteLength" : 768,
            "byteOffset" : 175228
        },
        {
            "buffer" : 0,
            "byteLength" : 52634,
            "byteOffset" : 175996
        },
        {
            "buffer" : 0,
            "byteLength" : 288,
            "byteOffset" : 228632
        },
        {
            "buffer" : 0,
            "byteLength" : 288,
            "byteOffset" : 228920
        },
        {
            "buffer" : 0,
            "byteLength" : 192,
            "byteOffset" : 229208
        },
        {
            "buffer" : 0,
            "byteLength" : 72,
            "byteOffset" : 229400
        },
        {
            "buffer" : 0,
            "byteLength" : 1289,
            "byteOffset" : 229472
        }
    ],
    "samplers" : [
        {
            "magFilter" : 9729,
            "minFilter" : 9987
        }
    ],
    "buffers" : [
        {
            "byteLength" : 230764,
            "uri" : "data:application/octet-stream;base64,"
        }
    ]
}
