{
    "asset" : {
        "generator" : "Khronos glTF Blender I/O v1.6.16",
        "version" : "2.0"
    },
    "scene" : 0,
    "scenes" : [
        {
            "name" : "Scene",
            "nodes" : [
                0,
                1
            ]
        }
    ],
    "nodes" : [
        {
            "mesh" : 0,
            "name" : "Cube",
            "rotation" : [
                1,
                0,
                0,
                0
            ],
            "scale" : [
                30,
                0.009999999776482582,
                30
            ],
            "translation" : [
                -15,
                0,
                0
            ]
        },
        {
            "mesh" : 1,
            "name" : "Cylinder",
            "scale" : [
                20,
                0.20000000298023224,
                20
            ],
            "translation" : [
                -12.151055335998535,
                3.799999952316284,
                0
            ]
        }
    ],
    "materials" : [
        {
            "doubleSided" : true,
            "name" : "Material.001",
            "pbrMetallicRoughness" : {
                "baseColorTexture" : {
                    "index" : 0
                },
                "metallicFactor" : 0,
                "roughnessFactor" : 0.5
            }
        },
        {
            "doubleSided" : true,
            "name" : "Material.004",
            "pbrMetallicRoughness" : {
                "baseColorTexture" : {
                    "index" : 1
                },
                "metallicFactor" : 0,
                "roughnessFactor" : 0.5
            }
        },
        {
            "doubleSided" : true,
            "name" : "Material",
            "pbrMetallicRoughness" : {
                "baseColorTexture" : {
                    "index" : 2
                },
                "metallicFactor" : 0,
                "roughnessFactor" : 0.5
            }
        },
        {
            "doubleSided" : true,
            "name" : "Material.002",
            "pbrMetallicRoughness" : {
                "baseColorTexture" : {
                    "index" : 3
                },
                "metallicFactor" : 0,
                "roughnessFactor" : 0.5
            }
        }
    ],
    "meshes" : [
        {
            "name" : "Cube.001",
            "primitives" : [
                {
                    "attributes" : {
                        "POSITION" : 0,
                        "NORMAL" : 1,
                        "TEXCOORD_0" : 2
                    },
                    "indices" : 3,
                    "material" : 0
                }
            ]
        },
        {
            "name" : "Cylinder",
            "primitives" : [
                {
                    "attributes" : {
                        "POSITION" : 4,
                        "NORMAL" : 5,
                        "TEXCOORD_0" : 6
                    },
                    "indices" : 7,
                    "material" : 1
                },
                {
                    "attributes" : {
                        "POSITION" : 8,
                        "NORMAL" : 9,
                        "TEXCOORD_0" : 10
                    },
                    "indices" : 11,
                    "material" : 2
                },
                {
                    "attributes" : {
                        "POSITION" : 12,
                        "NORMAL" : 13,
                        "TEXCOORD_0" : 14
                    },
                    "indices" : 15,
                    "material" : 3
                }
            ]
        }
    ],
    "textures" : [
        {
            "sampler" : 0,
            "source" : 0
        },
        {
            "sampler" : 0,
            "source" : 1
        },
        {
            "sampler" : 0,
            "source" : 2
        },
        {
            "sampler" : 0,
            "source" : 3
        }
    ],
    "images" : [
        {
            "bufferView" : 4,
            "mimeType" : "image/png",
            "name" : "Igloo-12"
        },
        {
            "bufferView" : 9,
            "mimeType" : "image/png",
            "name" : "Screen_Shot_2022-08-23_at_10.15.28_AM"
        },
        {
            "bufferView" : 14,
            "mimeType" : "image/png",
            "name" : "igloodoor"
        },
        {
            "bufferView" : 19,
            "mimeType" : "image/png",
            "name" : "igloo-25"
        }
    ],
    "accessors" : [
        {
            "bufferView" : 0,
            "componentType" : 5126,
            "count" : 24,
            "max" : [
                1,
                1,
                1
            ],
            "min" : [
                -1,
                -1,
                -1
            ],
            "type" : "VEC3"
        },
        {
            "bufferView" : 1,
            "componentType" : 5126,
            "count" : 24,
            "type" : "VEC3"
        },
        {
            "bufferView" : 2,
            "componentType" : 5126,
            "count" : 24,
            "type" : "VEC2"
        },
        {
            "bufferView" : 3,
            "componentType" : 5123,
            "count" : 36,
            "type" : "SCALAR"
        },
        {
            "bufferView" : 5,
            "componentType" : 5126,
            "count" : 158,
            "max" : [
                0,
                1,
                1
            ],
            "min" : [
                -1,
                -1,
                -1
            ],
            "type" : "VEC3"
        },
        {
            "bufferView" : 6,
            "componentType" : 5126,
            "count" : 158,
            "type" : "VEC3"
        },
        {
            "bufferView" : 7,
            "componentType" : 5126,
            "count" : 158,
            "type" : "VEC2"
        },
        {
            "bufferView" : 8,
            "componentType" : 5123,
            "count" : 186,
            "type" : "SCALAR"
        },
        {
            "bufferView" : 10,
            "componentType" : 5126,
            "count" : 200,
            "max" : [
                1.0822181701660156,
                0.7500019073486328,
                0.24193549156188965
            ],
            "min" : [
                0.65364670753479,
                -18,
                -0.24193549156188965
            ],
            "type" : "VEC3"
        },
        {
            "bufferView" : 11,
            "componentType" : 5126,
            "count" : 200,
            "type" : "VEC3"
        },
        {
            "bufferView" : 12,
            "componentType" : 5126,
            "count" : 200,
            "type" : "VEC2"
        },
        {
            "bufferView" : 13,
            "componentType" : 5123,
            "count" : 384,
            "type" : "SCALAR"
        },
        {
            "bufferView" : 15,
            "componentType" : 5126,
            "count" : 1974,
            "max" : [
                0.9186182022094727,
                24.857145309448242,
                1.1385191679000854
            ],
            "min" : [
                -1.2036505937576294,
                -18,
                -1.1385185718536377
            ],
            "type" : "VEC3"
        },
        {
            "bufferView" : 16,
            "componentType" : 5126,
            "count" : 1974,
            "type" : "VEC3"
        },
        {
            "bufferView" : 17,
            "componentType" : 5126,
            "count" : 1974,
            "type" : "VEC2"
        },
        {
            "bufferView" : 18,
            "componentType" : 5123,
            "count" : 2868,
            "type" : "SCALAR"
        }
    ],
    "bufferViews" : [
        {
            "buffer" : 0,
            "byteLength" : 288,
            "byteOffset" : 0
        },
        {
            "buffer" : 0,
            "byteLength" : 288,
            "byteOffset" : 288
        },
        {
            "buffer" : 0,
            "byteLength" : 192,
            "byteOffset" : 576
        },
        {
            "buffer" : 0,
            "byteLength" : 72,
            "byteOffset" : 768
        },
        {
            "buffer" : 0,
            "byteLength" : 1289,
            "byteOffset" : 840
        },
        {
            "buffer" : 0,
            "byteLength" : 1896,
            "byteOffset" : 2132
        },
        {
            "buffer" : 0,
            "byteLength" : 1896,
            "byteOffset" : 4028
        },
        {
            "buffer" : 0,
            "byteLength" : 1264,
            "byteOffset" : 5924
        },
        {
            "buffer" : 0,
            "byteLength" : 372,
            "byteOffset" : 7188
        },
        {
            "buffer" : 0,
            "byteLength" : 725,
            "byteOffset" : 7560
        },
        {
            "buffer" : 0,
            "byteLength" : 2400,
            "byteOffset" : 8288
        },
        {
            "buffer" : 0,
            "byteLength" : 2400,
            "byteOffset" : 10688
        },
        {
            "buffer" : 0,
            "byteLength" : 1600,
            "byteOffset" : 13088
        },
        {
            "buffer" : 0,
            "byteLength" : 768,
            "byteOffset" : 14688
        },
        {
            "buffer" : 0,
            "byteLength" : 52634,
            "byteOffset" : 15456
        },
        {
            "buffer" : 0,
            "byteLength" : 23688,
            "byteOffset" : 68092
        },
        {
            "buffer" : 0,
            "byteLength" : 23688,
            "byteOffset" : 91780
        },
        {
            "buffer" : 0,
            "byteLength" : 15792,
            "byteOffset" : 115468
        },
        {
            "buffer" : 0,
            "byteLength" : 5736,
            "byteOffset" : 131260
        },
        {
            "buffer" : 0,
            "byteLength" : 99921,
            "byteOffset" : 136996
        }
    ],
    "samplers" : [
        {
            "magFilter" : 9729,
            "minFilter" : 9987
        }
    ],
    "buffers" : [
        {
            "byteLength" : 236920,
            "uri" : "data:application/octet-stream;base64,"
        }
    ]
}
