<svg width="43" height="43" viewBox="0 0 43 43" fill="none" xmlns="http://www.w3.org/2000/svg">
<path fill-rule="evenodd" clip-rule="evenodd" d="M8.78572 2L2 8.79094V41H34.1812L40.967 34.2091V2H8.78572ZM42.967 35.037L35.0101 43H0V7.96296L7.95684 0H42.967V35.037Z" fill="#CACACA"/>
<path fill-rule="evenodd" clip-rule="evenodd" d="M24.578 16.0159C24.9682 16.4068 24.9677 17.0399 24.5768 17.4301L20.5099 21.49L24.5786 25.572C24.9684 25.9632 24.9674 26.5963 24.5762 26.9862C24.1851 27.3761 23.5519 27.3751 23.162 26.9839L18.3879 22.1942C17.9983 21.8032 17.999 21.1705 18.3897 20.7805L23.1638 16.0147C23.5547 15.6245 24.1878 15.6251 24.578 16.0159Z" fill="white"/>
</svg>
