<?xml version="1.0" encoding="UTF-8"?> <svg xmlns="http://www.w3.org/2000/svg" width="137" height="88" viewBox="0 0 137 88" fill="none"><g clip-path="url(#clip0)"><path d="M133.052 50.7079C135.293 43.6362 132.271 36.7732 126.666 30.7069C126.159 30.1406 125.587 29.5207 124.975 28.859C124.83 29.3757 124.677 29.9062 124.502 30.4407C123.735 32.9284 123.192 35.275 123.228 37.3136C123.349 43.4673 126.314 48.7606 129.475 54.1493C129.831 54.7494 130.171 55.3653 130.499 55.9833C130.616 55.7528 130.723 55.5263 130.838 55.3077C131.496 53.9585 132.625 52.0352 133.052 50.7079Z" fill="#FFBF00"></path><path d="M63.1968 77.2524C54.768 75.8834 41.9977 74.7588 31.6118 72.438C29.4202 71.9452 27.3696 71.3829 25.5078 70.7332C27.4312 72.5711 29.6964 74.6554 30.9859 75.6052C37.8549 80.676 46.1207 85.0414 57.063 86.4978C70.1731 88.2484 86.3332 88.2205 98.1755 84.2168C98.9842 83.9406 99.7691 83.6505 100.542 83.3385C99.3042 83.263 98.0623 83.1716 96.8105 83.0524C84.2846 81.8463 71.2301 78.5579 63.1968 77.2524Z" fill="#FFBF00"></path><path d="M115.231 18.8658C118.831 22.2257 122.334 25.9931 124.965 28.8583C126.733 22.341 125.861 16.8768 122.233 12.0365C117.426 5.64045 107.237 4.18995 98.2283 5.81927C98.1388 5.83517 97.9858 5.86497 97.7852 5.91266C98.4011 6.25442 99.0052 6.60612 99.6013 6.98165C104.646 9.97206 110.476 14.4348 115.231 18.8658Z" fill="#E60000"></path><path d="M103.192 82.092C102.353 82.5668 101.463 82.9702 100.543 83.3378C102.148 83.4411 103.744 83.4987 105.304 83.5087C119.234 83.5881 131.111 79.8049 132.915 66.2001C133.197 64.1038 132.915 62.1069 132.303 60.1597C131.856 58.747 131.224 57.3521 130.497 55.9831C129.63 57.6601 128.589 59.3589 127.423 61.028C121.47 69.4985 112.256 76.9437 103.192 82.092Z" fill="#E60000"></path><path d="M22.6519 67.921C12.7428 57.7794 10.4101 45.643 14.1595 34.6431C14.6344 33.2423 15.2086 31.9269 15.8802 30.6731C14.4754 31.5076 13.1243 32.4018 11.8348 33.3694C-1.03887 42.9685 -1.54158 54.0936 13.5058 64.7955C16.4465 66.8957 21.2649 69.2582 25.1992 70.6173C25.3005 70.657 25.4098 70.6968 25.5091 70.7325C24.3249 69.594 23.2698 68.5528 22.6519 67.921Z" fill="#E60000"></path><path d="M61.3847 15.371C77.3202 10.7175 93.1266 6.94226 93.8439 6.77734C94.3625 6.65812 96.7052 6.13753 97.7861 5.91499C93.1604 3.31404 87.728 1.40455 81.0478 0.484581C64.9255 -1.73289 52.8864 3.99756 40.0465 10.803C29.4559 16.4142 20.4827 21.9877 15.8789 30.6727C19.3839 28.5705 23.1791 26.8359 27.01 25.3615C32.7166 23.1659 53.5937 17.6441 61.3847 15.371Z" fill="#FFBF00"></path><path d="M129.477 54.1501C126.316 48.7594 123.351 43.4681 123.228 37.3124C123.194 35.2718 123.735 32.9272 124.504 30.4395C124.679 29.907 124.83 29.3745 124.975 28.8578C122.338 25.9847 118.837 22.2273 115.234 18.8653C110.48 14.4344 104.65 9.97361 99.6048 6.98122C99.0088 6.60569 98.4047 6.25598 97.7888 5.91621C96.7078 6.1308 94.3632 6.65338 93.8446 6.77657C93.1273 6.94149 77.3209 10.7187 61.3853 15.3702C53.5964 17.6433 32.7192 23.1572 27.0126 25.3628C23.1837 26.8351 19.3846 28.5697 15.8796 30.6739C15.212 31.9257 14.6357 33.2431 14.1608 34.6439C10.4114 45.6438 12.7441 57.7803 22.6532 67.9238C23.2731 68.5537 24.3282 69.5949 25.5124 70.7334C27.3742 71.3831 29.4228 71.9455 31.6125 72.4402C42.0004 74.759 54.7707 75.8797 63.2014 77.2547C71.2348 78.5581 84.2932 81.8446 96.8151 83.0527C98.0649 83.1699 99.3068 83.2633 100.545 83.3368C101.465 82.9712 102.357 82.5678 103.193 82.0949C112.256 76.9447 121.47 69.4995 127.427 61.031C128.597 59.354 129.632 57.6631 130.496 55.9841C130.169 55.3641 129.833 54.7501 129.477 54.1501Z" fill="#FF5C00"></path><path d="M31.4595 32.435H32.767C34.2751 32.435 35.7216 32.5801 35.7216 34.1577C35.7216 35.5963 34.1996 35.9619 32.7232 35.9619H31.4595V32.435ZM26.957 46.2882H34.0843C37.1085 46.2882 40.6592 45.4219 40.6592 41.3466C40.6592 39.2642 39.5008 38.0403 37.2496 37.5773V37.5256C39.1352 36.8878 40.2221 35.6996 40.2221 33.5358C40.2221 30.599 37.8755 29.2082 34.738 29.2082H26.957V46.2882ZM31.4595 39.0516H32.8444C34.3943 39.0516 36.1567 39.2126 36.1567 41.0724C36.1567 42.817 34.442 43.0534 32.7968 43.0534H31.4595V39.0516Z" fill="white"></path><path d="M40.3867 46.2874H44.9647L46.3 42.6472H52.6364L53.8942 46.2874H58.8338L52.3225 29.2073H46.8007L40.3867 46.2874ZM51.5754 39.4124H47.3312L49.5169 32.7421H49.5606L51.5754 39.4124Z" fill="white"></path><path d="M59.7227 29.2079H65.467L71.1875 40.8059H71.2312L71.1577 29.2079H75.2727V46.288H69.6794L63.7622 34.6145H63.7205L63.8576 46.288H59.7227V29.2079Z" fill="white"></path><path d="M77.8359 46.2874H83.9956C89.7459 46.2874 93.9881 44.06 93.9881 37.6758C93.9881 31.0691 89.877 29.2073 83.9956 29.2073H77.8359V46.2874ZM82.3464 32.5812H84.0909C87.3774 32.5812 89.3366 34.3496 89.3366 37.7473C89.3366 41.151 87.4509 42.9135 84.0909 42.9135H82.3464V32.5812Z" fill="white"></path><path d="M92.9688 46.2874H97.5467L98.888 42.6472H105.218L106.476 46.2874H111.424L104.912 29.2073H99.3847L92.9688 46.2874ZM104.163 39.4124H99.9192L102.099 32.7421H102.147L104.163 39.4124Z" fill="white"></path><path d="M112.117 29.2084H116.616V46.2885H112.117V29.2084Z" fill="white"></path><path d="M26.9609 50.0015H32.7589L38.5271 61.6114H38.5867L38.5073 50.0015H42.666V67.0736H37.015L31.0501 55.412H31.0044L31.1495 67.0736H26.9609V50.0015Z" fill="white"></path><path d="M43.582 67.0752H48.2097L49.5489 63.437H55.9589L57.2306 67.0752H62.2298L55.643 50.0031H50.0655L43.582 67.0752ZM54.8919 60.2082H50.606L52.8076 53.528H52.8473L54.8919 60.2082Z" fill="white"></path><path d="M63.1367 50.0015H70.3097L73.2703 61.3511H73.322L76.4455 50.0015H83.3383V67.0736H78.8974L78.965 53.9695H78.9153L75.2255 67.0736H71.0429L67.5399 53.9695H67.4942L67.5875 67.0736H63.1367V50.0015Z" fill="white"></path><path d="M99.7457 66.6869C98.4502 67.0068 97.0056 67.3864 94.6809 67.3864C90.1208 67.3864 84.8672 65.0755 84.8672 58.6158C84.8672 52.6768 89.022 49.7042 94.6491 49.7042C96.3877 49.7042 98.0766 50.1096 99.7119 50.5944L99.3423 54.2862C97.8839 53.4815 96.4632 53.0861 94.8994 53.0861C91.6706 53.0861 89.5584 55.4347 89.5584 58.6158C89.5584 61.9718 91.9349 64.0045 95.2631 64.0045C96.7533 64.0045 98.2713 63.6051 99.5192 63.1183L99.7457 66.6869Z" fill="white"></path><path d="M100.441 58.5508C100.441 63.9832 103.422 67.3849 109.009 67.3849C114.579 67.3849 117.573 63.9832 117.573 58.5508C117.573 53.0707 114.636 49.7048 109.009 49.7048C103.374 49.7048 100.441 53.0707 100.441 58.5508ZM105.145 58.5508C105.145 55.5803 106.243 53.0866 109.009 53.0866C111.773 53.0866 112.874 55.5803 112.874 58.5508C112.874 61.3504 111.773 64.007 109.009 64.007C106.243 64.007 105.145 61.3504 105.145 58.5508Z" fill="white"></path></g><defs><clipPath id="clip0"><rect width="137" height="88" fill="white"></rect></clipPath></defs></svg> 