<svg width="13" height="13" viewBox="0 0 13 13" fill="none" xmlns="http://www.w3.org/2000/svg">
<g clip-path="url(#clip0)">
<path d="M5.03516 9.71719V5.55H4.54062C4.18644 5.7388 3.84413 5.94909 3.51562 6.17969V6.72266C3.80859 6.52187 4.27266 6.23828 4.49844 6.11563H4.50781V9.71719H5.03516ZM5.96328 8.69766C6 9.19766 6.42734 9.79609 7.29375 9.79609C8.27656 9.79609 8.85625 8.96328 8.85625 7.55312C8.85625 6.04219 8.24609 5.46875 7.33047 5.46875C6.60703 5.46875 5.92656 5.99375 5.92656 6.88203C5.92656 7.78828 6.57031 8.26484 7.23594 8.26484C7.81875 8.26484 8.19688 7.97109 8.31641 7.64766H8.3375C8.33438 8.67578 7.97734 9.33828 7.31797 9.33828C6.79922 9.33828 6.53047 8.98672 6.49766 8.69766H5.96328ZM8.27031 6.8875C8.27031 7.43125 7.83359 7.80938 7.34531 7.80938C6.87578 7.80938 6.45156 7.51016 6.45156 6.87187C6.45156 6.22891 6.90625 5.92656 7.36406 5.92656C7.85859 5.92656 8.27031 6.2375 8.27031 6.8875Z" fill="#CACACA"/>
<path fill-rule="evenodd" clip-rule="evenodd" d="M10.9375 1.5625H1.5625C1.3553 1.5625 1.15659 1.64481 1.01007 1.79132C0.86356 1.93784 0.78125 2.13655 0.78125 2.34375V10.9375C0.78125 11.1447 0.86356 11.3434 1.01007 11.4899C1.15659 11.6364 1.3553 11.7188 1.5625 11.7188H10.9375C11.1447 11.7188 11.3434 11.6364 11.4899 11.4899C11.6364 11.3434 11.7188 11.1447 11.7188 10.9375V2.34375C11.7188 2.13655 11.6364 1.93784 11.4899 1.79132C11.3434 1.64481 11.1447 1.5625 10.9375 1.5625ZM1.5625 0.78125C1.1481 0.78125 0.750671 0.94587 0.457646 1.2389C0.16462 1.53192 0 1.92935 0 2.34375L0 10.9375C0 11.3519 0.16462 11.7493 0.457646 12.0424C0.750671 12.3354 1.1481 12.5 1.5625 12.5H10.9375C11.3519 12.5 11.7493 12.3354 12.0424 12.0424C12.3354 11.7493 12.5 11.3519 12.5 10.9375V2.34375C12.5 1.92935 12.3354 1.53192 12.0424 1.2389C11.7493 0.94587 11.3519 0.78125 10.9375 0.78125H1.5625Z" fill="#CACACA"/>
<path fill-rule="evenodd" clip-rule="evenodd" d="M2.73438 0C2.83798 0 2.93733 0.041155 3.01059 0.114411C3.08384 0.187668 3.125 0.287025 3.125 0.390625V0.78125C3.125 0.88485 3.08384 0.984207 3.01059 1.05746C2.93733 1.13072 2.83798 1.17188 2.73438 1.17188C2.63077 1.17188 2.53142 1.13072 2.45816 1.05746C2.38491 0.984207 2.34375 0.88485 2.34375 0.78125V0.390625C2.34375 0.287025 2.38491 0.187668 2.45816 0.114411C2.53142 0.041155 2.63077 0 2.73438 0V0ZM9.76562 0C9.86923 0 9.96858 0.041155 10.0418 0.114411C10.1151 0.187668 10.1562 0.287025 10.1562 0.390625V0.78125C10.1562 0.88485 10.1151 0.984207 10.0418 1.05746C9.96858 1.13072 9.86923 1.17188 9.76562 1.17188C9.66202 1.17188 9.56267 1.13072 9.48941 1.05746C9.41615 0.984207 9.375 0.88485 9.375 0.78125V0.390625C9.375 0.287025 9.41615 0.187668 9.48941 0.114411C9.56267 0.041155 9.66202 0 9.76562 0V0Z" fill="#CACACA"/>
<path d="M2 3.25C2 3.1837 2.0431 3.12011 2.11982 3.07322C2.19654 3.02634 2.30059 3 2.40909 3H10.5909C10.6994 3 10.8035 3.02634 10.8802 3.07322C10.9569 3.12011 11 3.1837 11 3.25V3.75C11 3.8163 10.9569 3.87989 10.8802 3.92678C10.8035 3.97366 10.6994 4 10.5909 4H2.40909C2.30059 4 2.19654 3.97366 2.11982 3.92678C2.0431 3.87989 2 3.8163 2 3.75V3.25Z" fill="#CACACA"/>
</g>
<defs>
<clipPath id="clip0">
<rect width="12.5" height="12.5" fill="white"/>
</clipPath>
</defs>
</svg>
