<?xml version="1.0" encoding="UTF-8"?> <svg xmlns="http://www.w3.org/2000/svg" width="40" height="40" viewBox="0 0 40 40" fill="none"><path d="M11.2689 18.4241C11.39 18.6059 11.4506 18.8483 11.3294 19.0302C11.2083 19.212 11.0266 19.3938 10.7844 19.3938H8.72538V27.0908C8.72538 27.3938 8.48314 27.6968 8.11978 27.6968H3.69894C3.39614 27.6968 3.09335 27.3938 3.09335 27.0908V19.3938H1.09488C0.852643 19.3938 0.670965 19.2726 0.549846 19.0302C0.428727 18.8483 0.489286 18.5453 0.610405 18.4241L5.45517 12.1211C5.6974 11.818 6.18188 11.818 6.42412 12.1211L11.2689 18.4241Z" fill="#39B4BD"></path><path d="M24.2891 4.60596C24.2891 6.78778 22.4724 8.60596 20.2922 8.60596C18.0515 8.60596 16.2953 6.78778 16.2953 4.60596C16.2953 2.42414 18.1121 0.605957 20.2922 0.605957C22.4724 0.605957 24.2891 2.42414 24.2891 4.60596Z" fill="#39B4BD"></path><path d="M24.2891 4.60596C24.2891 6.78778 22.4724 8.60596 20.2922 8.60596C18.0515 8.60596 16.2953 6.78778 16.2953 4.60596C16.2953 2.42414 18.1121 0.605957 20.2922 0.605957C22.4724 0.605957 24.2891 2.42414 24.2891 4.60596Z" fill="#39B4BD"></path><path d="M39.0658 8.96967C38.9447 9.15149 38.763 9.2727 38.5208 9.2727H36.4617V16.9697C36.4617 17.2727 36.1589 17.5757 35.8561 17.5757H31.4353C31.1325 17.5757 30.8297 17.2727 30.8297 16.9697V9.2727H28.7707C28.5284 9.2727 28.3467 9.15149 28.2256 8.96967C28.1045 8.78786 28.1651 8.48483 28.2862 8.30301L33.1309 1.99998C33.3732 1.69695 33.8577 1.69695 34.0999 1.99998L38.9447 8.30301C39.1869 8.48483 39.1869 8.72725 39.0658 8.96967Z" fill="#39B4BD"></path><path d="M27.4987 13.9395V21.0304C27.4987 22.3031 26.5903 23.394 25.5003 23.394H25.1975V34.5456C25.1975 34.8486 24.8947 35.1516 24.5919 35.1516H20.595V25.2122C20.595 24.8486 20.2922 24.6062 19.9894 24.6062C19.6866 24.6062 19.3838 24.8486 19.3838 25.2122V35.2122H15.3868C15.0235 35.2122 14.7812 34.9092 14.7812 34.6062V23.394H14.4784C13.3884 23.394 12.48 22.3637 12.48 21.0304V13.9395C12.48 11.2728 14.2968 9.0304 16.5375 9.0304H17.6275C18.4148 9.51524 19.3232 9.81828 20.3527 9.81828C21.3822 9.81828 22.2301 9.51524 23.0779 9.0304H23.4412C25.6819 9.091 27.4987 11.2728 27.4987 13.9395Z" fill="#39B4BD"></path><path d="M31.6169 34.6058C31.6169 37.333 26.5904 39.3936 19.9894 39.3936C14.2968 39.3936 8.30145 37.6967 8.30145 34.6058C8.30145 32.8482 10.2394 31.3936 13.5096 30.5452V31.8179C11.0872 32.4846 9.51264 33.5755 9.51264 34.6058C9.51264 36.3027 13.8124 38.1815 19.9289 38.1815C26.0454 38.1815 30.3451 36.3027 30.3451 34.6058C30.3451 33.5755 28.7706 32.4846 26.3482 31.8179V30.5452C29.679 31.3936 31.6169 32.8482 31.6169 34.6058Z" fill="#39B4BD"></path></svg> 