<svg width="15" height="16" viewBox="0 0 15 16" fill="none" xmlns="http://www.w3.org/2000/svg">
<path d="M7.5 1.97925C4.05375 1.97925 1.25 4.783 1.25 8.22925C1.25 11.6755 4.05375 14.4792 7.5 14.4792C10.9463 14.4792 13.75 11.6755 13.75 8.22925C13.75 4.783 10.9463 1.97925 7.5 1.97925ZM7.5 13.2292C4.74313 13.2292 2.5 10.9861 2.5 8.22925C2.5 5.47237 4.74313 3.22925 7.5 3.22925C10.2569 3.22925 12.5 5.47237 12.5 8.22925C12.5 10.9861 10.2569 13.2292 7.5 13.2292Z" fill="#CACACA"/>
<path d="M8.125 5.10425H6.875V8.488L8.93313 10.5461L9.81687 9.66237L8.125 7.9705V5.10425Z" fill="#CACACA"/>
</svg>
