<?xml version="1.0" encoding="UTF-8"?> <svg xmlns="http://www.w3.org/2000/svg" width="180" height="70" viewBox="0 0 180 70" fill="none"><g clip-path="url(#clip0)"><path fill-rule="evenodd" clip-rule="evenodd" d="M108.1 -0.400024L82 41H53.3L59.9 30.8H77.7L84.2 20.5H44.4L37.9 30.8H47.5L34.5 51.3H75.6H87.9L108.1 19L115.5 30.8H109.2L102.7 41H122L128.5 51.3H140.8L108.1 -0.400024Z" fill="#005BAA"></path><path fill-rule="evenodd" clip-rule="evenodd" d="M99.4984 0H57.3984L50.8984 10.3L93.0984 10.2L99.4984 0Z" fill="#005BAA"></path><path fill-rule="evenodd" clip-rule="evenodd" d="M0.299219 68.0999V63.6999C0.299219 62.8999 0.199219 62.0999 -0.200781 61.2999H5.19922L4.49922 62.7999C3.79922 62.3999 2.89922 62.2999 1.89922 62.2999H1.79922V65.4999H4.79922L3.89922 66.6999C3.39922 66.5999 2.69922 66.3999 1.79922 66.2999V69.5999C1.89922 69.5999 2.09922 69.5999 2.19922 69.5999C3.39922 69.5999 4.59922 69.2999 5.79922 68.8999L5.09922 70.3999H-0.300781C0.0992188 69.6999 0.299219 68.8999 0.299219 68.0999Z" fill="#7F7E7C"></path><path fill-rule="evenodd" clip-rule="evenodd" d="M12.8 63.6999V69.4999C14.4 69.3999 15.6 69.0999 16.6 68.6999C16.3 69.1999 16.1 69.7999 15.8 70.2999H11C11.3 69.5999 11.4 68.7999 11.4 68.0999V63.6999C11.4 62.8999 11.3 62.0999 11 61.2999H13.4C12.9 62.0999 12.8 62.8999 12.8 63.6999Z" fill="#7F7E7C"></path><path fill-rule="evenodd" clip-rule="evenodd" d="M21.8984 68.0999V63.6999C21.8984 62.8999 21.7984 62.0999 21.3984 61.2999H26.7984L26.0984 62.7999C25.3984 62.3999 24.4984 62.2999 23.4984 62.2999H23.3984V65.4999H26.3984L25.5984 66.6999C25.0984 66.5999 24.2984 66.3999 23.3984 66.2999V69.5999C23.4984 69.5999 23.6984 69.5999 23.7984 69.5999C25.0984 69.5999 26.2984 69.2999 27.3984 68.8999L26.6984 70.3999H21.3984C21.7984 69.6999 21.8984 68.8999 21.8984 68.0999Z" fill="#7F7E7C"></path><path fill-rule="evenodd" clip-rule="evenodd" d="M37.4008 70.4999C36.1008 70.4999 35.0008 70.0999 34.2008 69.5999C33.0008 68.6999 32.3008 67.4999 32.3008 65.9999C32.3008 64.4999 33.0008 63.3999 34.2008 62.3999C35.3008 61.5999 36.6008 61.2999 38.0008 61.2999C38.8008 61.2999 39.6008 61.2999 40.5008 61.5999L40.4008 63.1999C39.7008 62.6999 38.7008 62.3999 37.8008 62.3999C35.6008 62.3999 34.1008 63.6999 34.1008 65.9999C34.1008 68.0999 35.6008 69.2999 37.7008 69.2999C38.8008 69.2999 39.8008 68.9999 40.7008 68.1999V69.7999C39.5008 70.1999 38.3008 70.4999 37.4008 70.4999Z" fill="#7F7E7C"></path><path fill-rule="evenodd" clip-rule="evenodd" d="M45.5977 62.8999L46.0977 61.2999H53.5977L52.8977 62.8999C52.0977 62.4999 51.2977 62.3999 50.0977 62.3999V68.0999C50.0977 68.8999 50.1977 69.6999 50.5977 70.2999H48.1977C48.4977 69.5999 48.5977 68.7999 48.5977 68.0999V62.3999C47.4977 62.3999 46.4977 62.4999 45.5977 62.8999Z" fill="#7F7E7C"></path><path fill-rule="evenodd" clip-rule="evenodd" d="M60.4 62.3C61.9 62.3 62.6 63 62.6 64C62.6 65.1 61.8 65.7 60.4 66V62.3ZM60.4 68.1V66.2C62.4 69 63.8 70.3 64.2 70.3H65.7C64.4 69.1 63.2 67.7 62.3 66.2C63.6 65.8 64.3 65 64.3 64C64.3 62.3 63 61.4 60.1 61.4H58.5C58.8 62.2 58.9 63 58.9 63.8V68.2C58.9 69 58.8 69.8 58.5 70.4H60.9C60.4 69.7 60.4 68.9 60.4 68.1Z" fill="#7F7E7C"></path><path fill-rule="evenodd" clip-rule="evenodd" d="M75.6008 69.3999C74.4008 69.3999 73.5008 68.8999 72.8008 68.0999C72.3008 67.2999 72.0008 66.4999 72.0008 65.6999C72.0008 63.6999 73.3008 62.3999 75.2008 62.3999C76.4008 62.3999 77.4008 62.8999 78.1008 63.8999C78.5008 64.5999 78.8008 65.3999 78.8008 66.0999C78.8008 68.0999 77.5008 69.3999 75.6008 69.3999ZM80.4008 65.7999C80.4008 64.4999 79.9008 63.2999 78.9008 62.4999C78.0008 61.6999 76.8008 61.2999 75.5008 61.2999C73.9008 61.2999 72.5008 61.7999 71.5008 62.8999C70.7008 63.6999 70.3008 64.5999 70.3008 65.7999C70.3008 67.2999 71.0008 68.5999 72.0008 69.3999C73.1008 70.0999 74.1008 70.4999 75.3008 70.4999C76.6008 70.4999 77.8008 70.0999 78.7008 69.2999C79.8008 68.2999 80.4008 67.0999 80.4008 65.7999Z" fill="#7F7E7C"></path><path fill-rule="evenodd" clip-rule="evenodd" d="M88.2008 70.3H86.0008C86.4008 69.6 86.5008 68.8 86.5008 68.1V62.7L85.3008 61.4H87.8008C87.8008 61.5 87.8008 61.5 87.8008 61.5C87.8008 61.9 88.1008 62.2 88.3008 62.6L92.8008 68.3V63.8C92.8008 63 92.7008 62.2 92.4008 61.4H94.6008C94.2008 62.2 94.2008 63 94.2008 63.8V68.2C94.2008 69.1 94.2008 69.8 94.3008 70.4H92.3008C92.2008 70 92.0008 69.7 91.9008 69.5L87.7008 64.3V68.1C87.8008 68.9 87.9008 69.7 88.2008 70.3Z" fill="#7F7E7C"></path><path fill-rule="evenodd" clip-rule="evenodd" d="M102.298 63.6999V68.0999C102.298 68.8999 102.398 69.6999 102.798 70.2999H100.398C100.698 69.5999 100.798 68.7999 100.798 68.0999V63.6999C100.798 62.8999 100.698 62.0999 100.398 61.2999H102.798C102.498 62.0999 102.298 62.8999 102.298 63.6999Z" fill="#7F7E7C"></path><path fill-rule="evenodd" clip-rule="evenodd" d="M113.299 70.4999C112.099 70.4999 111.099 70.0999 110.099 69.5999C108.899 68.6999 108.199 67.4999 108.199 65.9999C108.199 64.4999 108.899 63.3999 110.099 62.3999C111.199 61.5999 112.499 61.2999 114.099 61.2999C114.799 61.2999 115.599 61.2999 116.499 61.5999V63.1999C115.699 62.6999 114.799 62.3999 113.699 62.3999C111.599 62.3999 110.099 63.6999 110.099 65.9999C110.099 68.0999 111.399 69.2999 113.499 69.2999C114.699 69.2999 115.599 68.9999 116.699 68.1999V69.7999C115.399 70.1999 114.299 70.4999 113.299 70.4999Z" fill="#7F7E7C"></path><path fill-rule="evenodd" clip-rule="evenodd" d="M131.098 66.5L132.398 64L133.598 66.5H131.098ZM130.598 67.5H134.198L134.898 69C134.998 69.3 135.198 69.5 135.198 69.9C135.198 70 135.198 70.2 135.198 70.3H137.698C137.198 69.6 136.598 69 136.398 68.4L132.698 61.1L128.898 68.1C128.398 68.9 127.998 69.7 127.398 70.2H129.798C129.698 70.2 129.698 70.1 129.698 69.9C129.698 69.5 129.798 69.1 130.098 68.6L130.598 67.5Z" fill="#7F7E7C"></path><path fill-rule="evenodd" clip-rule="evenodd" d="M144.098 62.3C145.598 62.3 146.498 63 146.498 64C146.498 65.1 145.698 65.7 144.098 66V62.3ZM144.098 68.1V66.2C146.198 69 147.698 70.3 148.098 70.3H149.598C148.298 69.1 147.098 67.7 146.198 66.2C147.498 65.8 148.198 65 148.198 64C148.198 62.3 146.698 61.4 143.998 61.4H142.398C142.698 62.2 142.798 63 142.798 63.8V68.2C142.798 69 142.698 69.8 142.398 70.4H144.798C144.198 69.7 144.098 68.9 144.098 68.1Z" fill="#7F7E7C"></path><path fill-rule="evenodd" clip-rule="evenodd" d="M153.301 62.8999L153.701 61.2999H161.201L160.501 62.8999C159.801 62.4999 158.901 62.3999 157.901 62.3999V68.0999C157.901 68.8999 158.001 69.6999 158.301 70.2999H156.001C156.301 69.5999 156.401 68.7999 156.401 68.0999V62.3999C155.201 62.3999 154.101 62.4999 153.301 62.8999Z" fill="#7F7E7C"></path><path fill-rule="evenodd" clip-rule="evenodd" d="M168.4 69.2999C169.3 69.2999 169.9 68.8999 169.9 68.1999C169.9 67.2999 169.1 66.8999 168 66.2999C166.7 65.5999 166 65.0999 166 63.8999C166 62.3999 167.3 61.2999 169 61.2999C169.5 61.2999 170.2 61.2999 170.9 61.5999L170.8 63.1999C170.4 62.6999 169.9 62.3999 169.1 62.3999C168.3 62.3999 167.6 62.8999 167.6 63.6999C167.6 64.4999 168.3 64.7999 169.2 65.2999C169.9 65.6999 170.4 65.7999 170.8 66.3999C171.3 66.7999 171.5 67.2999 171.5 67.9999C171.5 69.4999 170.3 70.4999 168.1 70.4999C167.6 70.4999 167 70.3999 166.5 70.1999V68.0999C167 68.8999 167.6 69.2999 168.4 69.2999Z" fill="#7F7E7C"></path><path fill-rule="evenodd" clip-rule="evenodd" d="M176.098 61.5V61.9H175.198V64.3H174.498V61.9H173.598V61.5H176.098ZM177.498 61.5L178.298 63.4L178.998 61.5H179.898V64.3H179.198V62L178.398 64.2H177.998L177.198 62V64.2H176.498V61.4H177.498V61.5Z" fill="#7F7E7C"></path></g><defs><clipPath id="clip0"><rect width="180" height="70" fill="white"></rect></clipPath></defs></svg> 