<?xml version="1.0" encoding="UTF-8"?> <svg xmlns="http://www.w3.org/2000/svg" width="41" height="48" viewBox="0 0 41 48" fill="none"><path d="M37.256 0.134277H3.71547C1.01203 0.134277 0.00195312 1.14794 0.00195312 3.87589V36.8051C0.00195312 37.1181 0.0168072 37.4014 0.0465154 37.6697C0.105932 38.266 0.120786 38.8473 0.670387 39.5032C0.729803 39.5628 1.29426 39.9951 1.29426 39.9951C1.59134 40.1442 1.7993 40.2486 2.14094 40.3976L18.6438 47.3442C19.5054 47.7318 19.8619 47.8958 20.4857 47.8809C21.1096 47.8958 21.4661 47.7467 22.3276 47.3442L38.8305 40.3976C39.1722 40.2635 39.3801 40.1442 39.6772 39.9951C39.6772 39.9951 40.2417 39.5778 40.3011 39.5032C40.8507 38.8473 40.8655 38.266 40.9249 37.6697C40.9547 37.4014 40.9695 37.1181 40.9695 36.8051V3.87589C40.9695 1.14794 39.9743 0.134277 37.256 0.134277Z" fill="#323333"></path><path d="M34.9972 33.2421L34.9824 33.3166L34.9675 33.406L34.9527 33.4806L34.923 33.5551L34.9081 33.6296L34.8784 33.7042L34.8487 33.7787L34.819 33.8383L34.7893 33.9129L34.7447 33.9725L34.7002 34.0321L34.6556 34.0917L34.611 34.1514L34.5665 34.211L34.507 34.2706L34.4625 34.3153L34.4031 34.375L34.3436 34.4197L34.2842 34.4644L34.2248 34.4942L34.1654 34.5389L34.0911 34.5837L34.0169 34.6135L33.9426 34.6582L33.8683 34.688L33.7941 34.7178L33.7198 34.7476V34.7327L33.6455 34.7625L33.5712 34.7775L33.4376 34.8073L33.3633 34.8222L33.289 34.8371L33.2147 34.852L33.1405 34.8669L33.0513 34.8818L32.9771 34.8967H32.68L32.6057 34.8818H32.5166L32.4423 34.8669L32.3681 34.852L32.2789 34.8371L32.2047 34.8222L32.1304 34.8073L32.0561 34.7924L31.9819 34.7775L31.9076 34.7625L31.8333 34.7476L31.759 34.7178L31.6848 34.7029L31.6105 34.6731L31.5362 34.6433L31.462 34.6135L31.3877 34.5837L31.3134 34.5539L31.2391 34.524L31.1649 34.4942L31.0906 34.4644L31.0163 34.4346L30.9421 34.4048L30.8678 34.3601L30.8084 34.3153L30.7341 34.2706L30.6747 34.2259L30.6153 34.1812L30.5559 34.1365L30.4964 34.0917L30.437 34.047L30.3776 34.0023L30.3182 33.9576L30.2588 33.8979L30.3033 33.8383L30.3628 33.7787L30.4073 33.7191L30.4667 33.6594L30.5113 33.5998L30.5559 33.5402L30.6153 33.4806L30.6598 33.4209L30.7193 33.3613L30.7638 33.3017L30.8232 33.2421L30.8678 33.1824L30.9124 33.1228L30.9718 33.0632L31.0163 33.0035L31.0758 32.9439L31.1203 32.8843L31.1797 32.929L31.254 32.9737L31.3134 33.0184L31.3877 33.0632L31.4471 33.1079L31.5214 33.1526L31.5808 33.1973L31.6551 33.2271L31.7145 33.2719L31.7887 33.3017L31.863 33.3315L31.9373 33.3613L32.0116 33.3911L32.0858 33.4209L32.1601 33.4507L32.2344 33.4806L32.3086 33.5104L32.3829 33.5253L32.5315 33.5551L32.6206 33.57L32.6948 33.5849H32.7691L32.8582 33.5998H33.0216L33.1108 33.5849L33.185 33.57L33.2593 33.5551L33.3336 33.5402L33.393 33.5104L33.4524 33.4806L33.5118 33.4358L33.5564 33.3762L33.5861 33.3166L33.6158 33.2421L33.6307 33.1675V33.1526L33.6158 33.0632L33.5861 32.9886L33.5415 32.929L33.4821 32.8843L33.4227 32.8396L33.3633 32.8098L33.289 32.7799L33.2147 32.7501L33.1256 32.7054L33.0662 32.6905L33.0068 32.6756L32.9325 32.6458L32.8582 32.6309L32.784 32.6011L32.7097 32.5862L32.6206 32.5563L32.5463 32.5414L32.4572 32.5116L32.3829 32.4967L32.3086 32.4669L32.2344 32.452L32.1601 32.4222L32.0858 32.3924L32.0116 32.3775L31.9373 32.3476L31.863 32.3178L31.7887 32.288L31.6996 32.2582L31.6254 32.2284L31.5511 32.1986L31.4768 32.1688L31.4025 32.124L31.3283 32.0793L31.2689 32.0346L31.1946 31.9899L31.1352 31.9452L31.0758 31.9004L31.0163 31.8557L30.9569 31.7961L30.8975 31.7365L30.8529 31.6768L30.8084 31.6172L30.7638 31.5576L30.7193 31.4979L30.6747 31.4234L30.645 31.3638L30.6153 31.3042L30.6004 31.2296L30.5707 31.17L30.5559 31.0955L30.541 31.0209L30.5262 30.9464L30.5113 30.8719L30.4964 30.7824V30.6035L30.5113 30.529L30.5262 30.4545L30.541 30.3799L30.5559 30.3054L30.5707 30.2309L30.6004 30.1563L30.6153 30.0818L30.645 30.0073L30.6747 29.9327L30.7044 29.8582L30.749 29.7837L30.7935 29.7091L30.8381 29.6495L30.8827 29.5899L30.9421 29.5303L31.0015 29.4706L31.0609 29.411L31.1203 29.3514L31.1797 29.3066L31.2391 29.2619L31.2986 29.2172L31.358 29.1725L31.4323 29.1278L31.5065 29.0979L31.5808 29.0532L31.6551 29.0234L31.7293 28.9936L31.8036 28.9638L31.8779 28.934L31.9373 28.9191L32.0116 28.9042L32.0858 28.8893L32.1601 28.8743L32.2344 28.8594L32.3086 28.8445L32.3829 28.8296L32.4572 28.8147L32.5315 28.7998H32.8582L32.9474 28.8147L33.0365 28.8296H33.1108L33.1999 28.8445L33.2742 28.8594L33.3633 28.8743L33.4376 28.8893L33.5118 28.9042L33.5861 28.9191L33.6604 28.934L33.7346 28.9489L33.8089 28.9787L33.8832 29.0085L33.9574 29.0234L34.0317 29.0532L34.106 29.083L34.1803 29.1129L34.2545 29.1427L34.3288 29.1725L34.4031 29.2172L34.4625 29.247L34.5368 29.2917L34.611 29.3365L34.6704 29.3812L34.7447 29.4259L34.8041 29.4706L34.8635 29.5153L34.923 29.5601L34.9824 29.6048L34.9378 29.6644L34.8933 29.724L34.8487 29.7837L34.8041 29.8433L34.7596 29.9178L34.715 29.9775L34.6704 30.0371L34.6259 30.0967L34.5813 30.1563L34.5368 30.216L34.4922 30.2756L34.4476 30.3352L34.4031 30.4098L34.3585 30.4694L34.3139 30.529L34.1654 30.857L34.1208 30.9166L34.0614 30.8719L33.9872 30.8271L33.9277 30.7824L33.8683 30.7377L33.7941 30.7079L33.7346 30.6632L33.6604 30.6334L33.6009 30.6035L33.5267 30.5737L33.4673 30.5439L33.393 30.5141L33.3336 30.4843L33.2444 30.4545L33.1702 30.4247L33.0959 30.3948L33.0216 30.3799L32.9771 30.4098L32.9028 30.3948L32.8285 30.3799L32.7543 30.365L32.68 30.3501H32.5166L32.4275 30.365L32.3532 30.3799L32.2789 30.3948L32.2195 30.4247L32.1601 30.4545L32.0858 30.5141L32.0413 30.5886L32.0116 30.6632L31.9967 30.7377V30.7526L32.0116 30.857L32.0413 30.9464L32.071 30.9911L32.1304 31.0507L32.2047 31.0955L32.2641 31.1402L32.3383 31.17L32.4275 31.1998L32.5166 31.2296L32.576 31.2445L32.6354 31.2743L32.7097 31.2893L32.784 31.3191L32.8582 31.334L32.9474 31.3638L33.0365 31.3936L33.1256 31.4234L33.2147 31.4383L33.289 31.4681L33.3781 31.4979L33.4524 31.5129L33.5267 31.5427L33.6009 31.5725L33.6752 31.6023L33.7495 31.6321L33.8238 31.6619L33.898 31.6768L33.9872 31.7066L34.0614 31.7514L34.1357 31.7812L34.21 31.8259L34.2842 31.8706L34.3585 31.9153L34.4179 31.9601L34.4773 32.0048L34.5368 32.0495L34.5962 32.1091L34.6556 32.1688L34.715 32.2284L34.7744 32.288L34.819 32.3476L34.8635 32.4222L34.9081 32.4818L34.9527 32.5563L34.9824 32.616L35.0121 32.6905L35.0269 32.765L35.0418 32.8396L35.0715 32.9886L35.0864 33.0632L35.1012 33.1526V33.3315L34.9972 33.2421ZM29.724 34.7625H25.4015V29.2321H29.7537V30.4843H26.8423V31.3936H29.4567V32.5712H26.8423V33.5104H29.7983V34.7625H29.724ZM24.2132 34.7625H22.8317V31.4979L22.7872 31.5576L22.7426 31.6321L22.698 31.6917L22.6535 31.7514L22.6089 31.8259L22.5644 31.8855L22.5198 31.9452L22.4752 32.0197L22.4307 32.0793L22.3861 32.1389L22.3415 32.1986L22.297 32.2731L22.2524 32.3327L22.2079 32.3924L22.1633 32.4669L22.1187 32.5265L22.0742 32.5862L22.0296 32.6607L21.9999 32.7203L21.9553 32.7799L21.9108 32.8545L21.8662 32.9141L21.8217 32.9737L21.7771 33.0483L21.7325 33.1079L21.7028 33.1675L21.6583 33.2271L21.6137 33.3017L21.5691 33.3613L21.5246 33.4209L21.4949 33.4955L21.4503 33.5551L21.4057 33.6147L21.3612 33.6893L21.3166 33.7489H21.2869L21.2423 33.6743L21.1978 33.6147L21.1532 33.5402L21.1087 33.4806L21.0641 33.406L21.0195 33.3464L20.975 33.2719L20.9304 33.2122L20.8859 33.1377L20.8561 33.0781L20.8116 33.0035L20.767 32.9439L20.7225 32.8694L20.7967 32.7948L20.7522 32.7203L20.7076 32.6607L20.663 32.5862L20.6185 32.5265L20.5739 32.452L20.5294 32.3924L20.4996 32.3476L20.4551 32.288L20.4105 32.2135L20.366 32.1538L20.3214 32.0793L20.2768 32.0197L20.2323 31.9452L20.2026 31.9004L20.158 31.8259L20.1134 31.7663L20.0689 31.6917L20.0243 31.6321L19.9798 31.5576L19.9352 31.4979V34.7476H18.5092V29.2172H20.054L20.0986 29.2768L20.1431 29.3514L20.1877 29.411L20.2323 29.4855L20.2768 29.5452L20.3214 29.6197L20.366 29.6793L20.4105 29.7539L20.4551 29.8135L20.4996 29.8731L20.5442 29.9476L20.5888 30.0073L20.6333 30.0818L20.6779 30.1414L20.7225 30.216L20.767 30.2756L20.8116 30.3352L20.8561 30.4098L20.9007 30.4694L20.9453 30.5439L20.9898 30.6035L21.0344 30.6781L21.079 30.7377L21.1087 30.8122L21.1532 30.8719L21.1829 30.9315L21.2275 31.006L21.2721 31.0657L21.3166 31.1402L21.3612 31.1998L21.3909 31.2743L21.4355 31.334L21.48 31.4085L21.5246 31.4681L21.5691 31.4085L21.6137 31.334L21.6583 31.2743L21.7028 31.1998L21.7474 31.1402L21.7919 31.0657L21.8365 31.006L21.8811 30.9315L21.9256 30.8719L21.9553 30.8122L21.9999 30.7377L22.0445 30.6781L22.089 30.6035L22.1336 30.5439L22.1782 30.4694L22.2227 30.4098L22.2673 30.3352L22.3118 30.2756L22.3564 30.216L22.401 30.1414L22.4455 30.0818L22.4901 30.0073L22.5347 29.9476L22.5792 29.8731L22.6089 29.8135L22.6535 29.7539L22.698 29.6793L22.7426 29.6197L22.7872 29.5452L22.8317 29.4855L22.8763 29.411L22.9209 29.3514L22.9654 29.2768L23.01 29.2172H24.5548V34.7476L24.2132 34.7625ZM15.479 32.4818L15.4493 32.4073L15.4195 32.3327L15.3898 32.2582L15.3601 32.1837L15.3304 32.1091L15.3007 32.0346L15.271 31.9601L15.2413 31.8855L15.2116 31.811L15.1819 31.7365L15.1522 31.6619L15.1225 31.5874L15.0928 31.5129L15.063 31.4383L15.0333 31.3638L15.0036 31.2893L14.9739 31.2147L14.9442 31.1402L14.9145 31.0657L14.8848 30.9911L14.8551 30.9166L14.8254 30.8421L14.7957 30.9166L14.766 30.9911L14.7363 31.0657L14.7066 31.1402L14.6768 31.2147L14.6471 31.2893L14.6174 31.3638L14.5877 31.4383L14.558 31.5129L14.5283 31.5874L14.4986 31.6619L14.4689 31.7365L14.4392 31.811L14.4095 31.8855L14.3798 31.9601L14.3501 32.0346L14.3203 32.1091L14.2906 32.1837L14.2609 32.2582L14.2312 32.3327L14.2015 32.4073L14.1718 32.4818L14.1421 32.5563H15.4195L15.479 32.4818ZM17.8408 34.7625H16.3702L16.3405 34.688L16.3108 34.6135L16.2811 34.5389L16.2514 34.4644L16.2217 34.3899L16.192 34.3153L16.1623 34.2408L16.1325 34.1663L16.1028 34.0917L16.0731 34.0172L16.0434 33.9427L16.0137 33.8681L15.984 33.7936L15.9543 33.7191L15.9246 33.6445H13.7856L13.7559 33.7191L13.7262 33.7936L13.6965 33.8681L13.6668 33.9427L13.6371 34.0172L13.5776 34.1514L13.5479 34.2259L13.5182 34.3004L13.4885 34.375L13.4588 34.4495L13.4291 34.524L13.3994 34.5986L13.3697 34.6731L13.34 34.7476H11.8546L11.8843 34.6731L11.9437 34.5389L11.9734 34.4644L12.0031 34.3899L12.0625 34.2557L12.0922 34.1812L12.1219 34.1066L12.1516 34.0321L12.1814 33.9874L12.2111 33.9129L12.2408 33.8383L12.2705 33.7638L12.3002 33.6893L12.3299 33.6147L12.3596 33.5402L12.3893 33.4657L12.419 33.3911L12.4487 33.3166L12.4784 33.2421L12.5081 33.1675L12.5676 33.0334L12.5973 32.9588L12.627 32.8843L12.6567 32.8098L12.6864 32.7352L12.7161 32.6607L12.7458 32.5862L12.7755 32.5116L12.8052 32.4371L12.8349 32.3625L12.8646 32.288L12.8944 32.2135L12.9241 32.1389L12.9538 32.0644L12.9835 31.9899L13.0132 31.9153L13.0429 31.8408L13.0726 31.7663L13.1023 31.6917L13.132 31.6172L13.1617 31.5427L13.1914 31.4681L13.2211 31.3936L13.2508 31.3191L13.2806 31.2445L13.3103 31.17L13.34 31.0955L13.3697 31.0209L13.3994 30.9464L13.4291 30.8719L13.4588 30.7973L13.4885 30.7228L13.5182 30.6483L13.5776 30.5141L13.6073 30.4396L13.6371 30.365L13.6668 30.2905L13.6965 30.216L13.7262 30.1414L13.7559 30.0669L13.7856 29.9924L13.8153 29.9178L13.845 29.8433L13.8747 29.7688L13.8896 29.6942L13.9193 29.6197L13.949 29.5452L13.9787 29.4706L14.0084 29.3961L14.0381 29.3216L14.0678 29.247L14.0975 29.1725L14.1272 29.0979L14.1867 28.9638L14.2164 28.8893H15.6126L15.6424 28.9638L15.6721 29.0383L15.7018 29.1129L15.7315 29.1874L15.7612 29.2619L15.7909 29.3365L15.8206 29.411L15.8503 29.4855L15.88 29.5601L15.9097 29.6346L15.9394 29.7091L15.9691 29.7837L15.9989 29.8582L16.0286 29.9327L16.0583 30.0073L16.088 30.0818L16.1177 30.1563L16.1474 30.2309L16.1771 30.3054L16.2068 30.3799L16.2365 30.4545L16.2662 30.529L16.2959 30.6035L16.3256 30.6781L16.3554 30.7526L16.3851 30.8271L16.4148 30.9017L16.4445 30.9762L16.4742 31.0507L16.5039 31.1253L16.5633 31.2594L16.593 31.334L16.6227 31.4085L16.6524 31.483L16.6821 31.5576L16.7119 31.6321L16.7416 31.7066L16.7713 31.7812L16.801 31.8557L16.8307 31.9302L16.8604 32.0048L16.8901 32.0793L16.9198 32.1538L16.9495 32.2284L16.9792 32.3029L17.0089 32.3775L17.0386 32.452L17.0683 32.5265L17.0981 32.6011L17.1278 32.6756L17.1575 32.7501L17.1872 32.8247L17.2169 32.8992L17.2466 32.9737L17.2763 33.0483L17.306 33.1228L17.3357 33.1973L17.3654 33.2719L17.3951 33.3464L17.4248 33.4209L17.4546 33.4955L17.4843 33.57L17.514 33.6445L17.5437 33.7191L17.5734 33.7936L17.6031 33.8681L17.6328 33.9427L17.6625 34.0172L17.6922 34.0917L17.7219 34.1663L17.7516 34.2408L17.7813 34.3153L17.8111 34.3899L17.8408 34.4644L17.8705 34.5389L17.9002 34.6135L17.9299 34.688L17.9893 34.8222L17.8408 34.7625ZM11.2455 34.047L11.1861 34.0917L11.1267 34.1365L11.0673 34.1812L11.0079 34.2259L10.9485 34.2706L10.8891 34.3153L10.8296 34.3601L10.7554 34.4048L10.6811 34.4495L10.6068 34.4942L10.5326 34.524L10.4583 34.5688L10.384 34.5986L10.3097 34.6284L10.2355 34.6582L10.1612 34.688L10.0869 34.7178L10.0127 34.7476L9.93839 34.7775L9.86412 34.8073L9.78985 34.8371L9.71558 34.852L9.64131 34.8669L9.56704 34.8818L9.49277 34.8967L9.4185 34.9116L9.32937 34.9265L9.2551 34.9414L9.16598 34.9563L9.09171 34.9712L9.00258 34.9861H8.76492L8.69065 34.9712L8.60152 34.9563L8.52725 34.9414L8.45298 34.9265L8.37871 34.9116L8.30444 34.8967L8.23017 34.8818L8.1559 34.8669L8.08163 34.852L8.00736 34.8371L7.93309 34.8222L7.85882 34.7924L7.78455 34.7625L7.71028 34.7327L7.63601 34.7029L7.56174 34.6731L7.48747 34.6433L7.41319 34.6135L7.33892 34.5688L7.27951 34.5389L7.20524 34.4942L7.14582 34.4495L7.0864 34.4048L7.02699 34.3601L6.96757 34.3153L6.90816 34.2706L6.84874 34.2259L6.78932 34.1812L6.72991 34.1216L6.67049 34.0768L6.61107 34.0172L6.55166 33.9576L6.5071 33.8979L6.46253 33.8383L6.41797 33.7787L6.37341 33.7191L6.32885 33.6594L6.28428 33.5998L6.25458 33.5402L6.21001 33.4657L6.16545 33.406L6.13574 33.3315L6.10603 33.257L6.07633 33.1824L6.04662 33.1079L6.01691 33.0483L5.9872 32.9737L5.97235 32.8992L5.94264 32.8247L5.92779 32.7501L5.89808 32.6756L5.88322 32.6011V32.5265L5.86837 32.452V32.3775L5.85352 32.3029V31.6619L5.86837 31.5725L5.88322 31.4979L5.89808 31.4234L5.91293 31.3489L5.94264 31.2743L5.95749 31.1998L5.9872 31.1253L6.01691 31.0507L6.04662 30.9762L6.07633 30.9017L6.10603 30.8271L6.13574 30.7526L6.16545 30.6781L6.19516 30.6035L6.23972 30.529L6.28428 30.4694L6.31399 30.4098L6.35855 30.3501L6.40312 30.2905L6.44768 30.2309L6.49224 30.1712L6.5368 30.1116L6.58137 30.052L6.64078 29.9924L6.68534 29.9327L6.74476 29.8731L6.80418 29.8135L6.86359 29.7688L6.92301 29.7091L6.98243 29.6644L7.04184 29.6197L7.10126 29.575L7.16068 29.5303L7.22009 29.4855L7.27951 29.4408L7.35378 29.3961L7.42805 29.3514L7.50232 29.3066L7.57659 29.2768L7.65086 29.247L7.72513 29.2023L7.78455 29.1725L7.85882 29.1427L7.93309 29.1129L8.00736 29.0979L8.08163 29.0681L8.1559 29.0532L8.23017 29.0234L8.30444 29.0085L8.37871 28.9936L8.45298 28.9787L8.52725 28.9638L8.60152 28.9489L8.67579 28.934L8.75006 28.9191H9.062L9.15112 28.934L9.24025 28.9489H9.31452L9.38879 28.9638L9.47791 28.9787L9.55218 28.9936L9.62645 29.0085L9.70072 29.0234L9.77499 29.0383L9.84926 29.0532L9.92354 29.0681L9.99781 29.0979L10.0721 29.1129L10.1315 29.1427L10.2058 29.1725L10.3394 29.2321L10.4137 29.2619L10.488 29.3066L10.5623 29.3365L10.6217 29.3812L10.6959 29.4259L10.7554 29.4706L10.8296 29.5153L10.8891 29.5601L10.9485 29.6048L11.0079 29.6495L11.0673 29.6942L11.1267 29.7539L11.1861 29.7986L11.1416 29.8582L11.0822 29.9178L11.0376 29.9775L10.9782 30.0371L10.9336 30.0967L10.8891 30.1563L10.8296 30.216L10.7851 30.2756L10.7405 30.3352L10.6811 30.3948L10.6365 30.4545L10.5771 30.5141L10.5326 30.5737L10.488 30.6334L10.4286 30.693L10.384 30.7526L10.3246 30.8122L10.28 30.8719L10.2206 30.8271L10.1612 30.7675L10.1018 30.7228L10.0424 30.6781L9.98295 30.6334L9.92354 30.5886L9.86412 30.5439L9.78985 30.4992L9.73043 30.4694L9.67102 30.4396L9.6116 30.4098L9.53733 30.3799L9.46306 30.3501L9.38879 30.3352L9.31452 30.3203L9.24025 30.3054L9.16598 30.2905L9.07685 30.2756L8.98773 30.2607H8.82433L8.75006 30.2756L8.67579 30.2905L8.60152 30.3054L8.52725 30.3203L8.45298 30.3501L8.37871 30.3799L8.31929 30.5588L8.24502 30.5886L8.18561 30.6334L8.12619 30.6781L8.06677 30.7228L8.00736 30.7675L7.94794 30.8122L7.88852 30.857L7.84396 30.9166L7.78455 30.9762L7.73998 31.0358L7.69542 31.0955L7.65086 31.1551L7.62115 31.2296L7.57659 31.2893L7.54688 31.3638L7.51717 31.4383L7.48747 31.5129L7.45776 31.5874L7.4429 31.6619L7.42805 31.7365L7.41319 31.8259V32.3775L7.42805 32.452L7.4429 32.5265L7.45776 32.6011L7.48747 32.6756L7.57659 32.6458L7.6063 32.7203L7.63601 32.7948L7.68057 32.8694L7.75484 32.9886L7.7994 33.0483L7.84396 33.1079L7.90338 33.1675L7.94794 33.2271L8.00736 33.2719L8.06677 33.3166L8.12619 33.3613L8.18561 33.406L8.24502 33.4507L8.31929 33.4806L8.39356 33.5104L8.46783 33.5402L8.5421 33.57L8.61638 33.5998L8.69065 33.6147L8.76492 33.6296L8.83919 33.6445L8.92831 33.6594H9.062L9.15112 33.6445L9.24025 33.6296L9.31452 33.6147L9.38879 33.5998L9.46306 33.5849L9.53733 33.57L9.6116 33.5551L9.68587 33.5253L9.74529 33.4955L9.81956 33.4657L9.87897 33.4358L9.93839 33.3911V32.6458H8.83919V31.5427H11.2901V34.0172L11.2455 34.047ZM8.82433 16.7253H12.0922V14.1911H8.82433V9.01845H12.2259V6.48429H6.04662V24.775H12.2705V22.2408H8.82433V16.7253ZM32.2047 17.2768V21.406C32.2047 22.1365 31.863 22.4793 31.1649 22.4793H30.645C29.9171 22.4793 29.5755 22.1365 29.5755 21.406V9.85323C29.5755 9.1228 29.9171 8.77994 30.645 8.77994H31.1055C31.8036 8.77994 32.1452 9.1228 32.1452 9.85323V13.4309H34.8635V9.68926C34.8635 7.42342 33.7792 6.32031 31.5214 6.32031H30.1697C27.9118 6.32031 26.7978 7.43832 26.7978 9.71907V21.5253C26.7978 23.806 27.9118 24.924 30.1697 24.924H31.5362C33.7941 24.924 34.9081 23.806 34.9081 21.5253V17.2619H32.2047V17.2768ZM22.5792 6.48429H25.3569V24.775H22.5792V6.48429ZM18.5538 14.6085C18.5538 15.3389 18.2121 15.6818 17.514 15.6818H16.3702V8.94391H17.514C18.2121 8.94391 18.5538 9.28677 18.5538 10.0172V14.6085ZM17.9596 6.48429H13.6073V24.775H16.3851V18.1414H17.9596C20.2174 18.1414 21.3315 17.0234 21.3315 14.7427V9.88305C21.3315 7.6023 20.2174 6.48429 17.9596 6.48429ZM12.5824 41.3066H28.4614L20.366 43.9899L12.5824 41.3066Z" fill="white"></path></svg> 