<?xml version="1.0" encoding="UTF-8"?> <svg xmlns="http://www.w3.org/2000/svg" width="68" height="80" viewBox="0 0 68 80" fill="none"><g clip-path="url(#clip0)"><path fill-rule="evenodd" clip-rule="evenodd" d="M61.8247 -5.03582e-05H6.17523C1.66464 -5.03582e-05 0 1.68764 0 6.2628V61.4692C0 61.987 0.0205936 62.4679 0.065705 62.9135C0.168397 63.9121 0.187731 64.8798 1.10383 65.9816C1.19335 66.0896 2.12865 66.7952 2.12865 66.7952C2.63174 67.0453 2.97525 67.2296 3.54265 67.4611L30.9452 79.1007C32.3678 79.7619 32.9626 80.0196 33.9958 79.9988V79.999C33.9972 79.999 33.9985 79.999 33.9999 79.999C34.0013 79.999 34.0026 79.999 34.004 79.999V79.9988C35.0372 80.0196 35.6321 79.7619 37.0547 79.1007L64.4572 67.4611C65.0247 67.2296 65.3681 67.0453 65.8713 66.7952C65.8713 66.7952 66.8066 66.0896 66.896 65.9816C67.8121 64.8798 67.8314 63.9121 67.9341 62.9135C67.9792 62.4679 68 61.987 68 61.4692V6.2628C68 1.68764 66.3352 -5.03582e-05 61.8247 -5.03582e-05Z" fill="#2F2D2E"></path><path d="M58.0978 55.5028L58.0852 55.6302L58.0728 55.7701L58.0475 55.8975L58.01 56.0248L57.9856 56.1394L57.9478 56.2668L57.8976 56.3814L57.8474 56.4834L57.7979 56.5979L57.7351 56.6997L57.6724 56.8017L57.5977 56.9035L57.5348 57.0054L57.4603 57.0944L57.3723 57.1836L57.2976 57.2601L57.1973 57.3493L57.11 57.4257L57.0096 57.5021L56.9098 57.5649L56.8101 57.6413L56.697 57.7049L56.5846 57.7559L56.4724 57.8195L56.3468 57.8705L56.2219 57.9215L56.0971 57.9596L55.9723 57.9979L55.8592 58.036L55.7344 58.0616L55.622 58.087L55.5098 58.1124L55.3842 58.138L55.2592 58.1506L55.147 58.1634L55.0213 58.1762L54.884 58.189L54.759 58.2016H54.6342H54.4968H54.3586H54.2338L54.1088 58.189H53.9715L53.8466 58.1762L53.7211 58.1634L53.5836 58.1506L53.4588 58.1252L53.334 58.1124L53.2083 58.087L53.0833 58.0616L52.9585 58.036L52.8337 58.0106L52.7081 57.9725L52.5958 57.947L52.471 57.9087L52.346 57.8705L52.2331 57.8195L52.1082 57.7813L51.9959 57.7433L51.8709 57.6923L51.758 57.6413L51.6456 57.5903L51.5333 57.5275L51.4204 57.4765L51.308 57.4128L51.2083 57.3493L51.0952 57.2855L50.9955 57.2219L50.895 57.1582L50.7952 57.0818L50.6955 57.0054L50.595 56.929L50.4952 56.8526L50.4073 56.7761L50.3076 56.6871L50.3829 56.5852L50.4701 56.496L50.5455 56.3941L50.6327 56.2922L50.7081 56.2032L50.7826 56.1013L50.8706 55.9993L50.9452 55.9103L51.0331 55.8084L51.1078 55.7192L51.1956 55.6174L51.2703 55.5154L51.3457 55.4264L51.4328 55.3245L51.5082 55.2225L51.5953 55.1335L51.6707 55.0316L51.7705 55.1081L51.8828 55.1845L51.9833 55.2609L52.0956 55.3373L52.1961 55.4009L52.3084 55.4772L52.4081 55.541L52.5213 55.5918L52.6209 55.6556L52.7332 55.7066L52.8463 55.7574L52.9585 55.8084L53.071 55.8466L53.1839 55.8975L53.3087 55.9357L53.4337 55.9739L53.5459 56.0121L53.6716 56.0377L53.7964 56.0631L53.9212 56.0885L54.0587 56.1013L54.1842 56.1267H54.3092L54.4465 56.1394H54.5714H54.7213L54.8588 56.1267L54.9845 56.1013L55.0967 56.0758L55.209 56.0503L55.3095 56.0121L55.3968 55.9613L55.4972 55.8849L55.5717 55.7957L55.622 55.6937L55.6599 55.5792L55.6722 55.4518V55.4264L55.6599 55.2735L55.6096 55.1461L55.5467 55.0571L55.4595 54.9806L55.3589 54.9042L55.2592 54.8534L55.147 54.8024L55.0213 54.7514L54.8714 54.6879L54.7841 54.6623L54.6845 54.6369L54.5714 54.5986L54.4591 54.5731L54.3343 54.5349L54.2086 54.5095L54.0713 54.4713L53.9463 54.4459L53.8089 54.4077L53.6841 54.3822L53.5584 54.344L53.4337 54.3185L53.3087 54.2803L53.1957 54.2422L53.071 54.2166L52.9585 54.1784L52.8463 54.1402L52.7332 54.102L52.5958 54.051L52.471 54L52.346 53.9492L52.2205 53.8982L52.1082 53.8345L51.9833 53.7709L51.8828 53.7073L51.7705 53.6436L51.6707 53.5672L51.5703 53.5036L51.4831 53.427L51.3953 53.338L51.308 53.2488L51.2326 53.1596L51.1581 53.0705L51.0952 52.9815L51.0331 52.8795L50.9704 52.765L50.9201 52.6767L50.8824 52.5747L50.8455 52.46L50.8079 52.3582L50.7826 52.2308L50.7576 52.1162L50.745 51.9889L50.7325 51.8615L50.7199 51.7216V51.5814V51.556V51.4286L50.7325 51.3013L50.745 51.1867L50.7576 51.0593L50.7826 50.9448L50.8079 50.8302L50.8455 50.7154L50.8706 50.6009L50.9201 50.4863L50.9704 50.3717L51.0205 50.2572L51.0827 50.1424L51.1454 50.0279L51.22 49.926L51.2955 49.8241L51.3827 49.7223L51.4705 49.6332L51.5578 49.5312L51.6583 49.442L51.7454 49.3784L51.8458 49.302L51.9457 49.2256L52.0453 49.1619L52.1584 49.0983L52.2708 49.0473L52.383 48.9837L52.496 48.9328L52.6209 48.8945L52.7457 48.8436L52.8587 48.8054L52.9585 48.7799L53.071 48.7544L53.1839 48.729L53.3087 48.7036L53.4211 48.678L53.5459 48.6654L53.6716 48.6526L53.7964 48.6398L53.9212 48.6272H54.0461H54.1842H54.3218H54.4591L54.5965 48.6398L54.734 48.6526H54.8588L54.9969 48.6654L55.1217 48.6908L55.2592 48.7036L55.3842 48.729L55.4972 48.7544L55.622 48.7799L55.7469 48.8054L55.8592 48.8309L55.9847 48.8691L56.0971 48.9073L56.2095 48.9328L56.335 48.9837L56.4474 49.0219L56.5596 49.0727L56.6719 49.1237L56.7975 49.1747L56.9098 49.2384L57.0096 49.2893L57.1226 49.353L57.235 49.4166L57.3347 49.4804L57.4477 49.5568L57.5475 49.6203L57.648 49.6969L57.7477 49.7733L57.8474 49.8495L57.7728 49.9515L57.7101 50.0534L57.6354 50.1552L57.56 50.2572L57.4855 50.3717L57.4226 50.4735L57.3472 50.5755L57.2725 50.6773L57.2099 50.7792L57.1351 50.8812L57.0599 50.983L56.997 51.0848L56.9224 51.1995L56.8469 51.3013L56.7724 51.4031L56.7096 51.505L56.6349 51.6068L56.5345 51.5306L56.4223 51.4668L56.3224 51.4031L56.2219 51.3267L56.1097 51.2759L56.0091 51.2121L55.8969 51.1611L55.7972 51.1103L55.6841 51.0593L55.5843 51.0084L55.4721 50.9702L55.3717 50.9192L55.2341 50.8812L55.1093 50.8428L54.9845 50.8047L54.8588 50.7792L54.734 50.7538L54.6091 50.7282L54.4843 50.7154L54.3586 50.7028L54.2464 50.69H54.1214H53.9715L53.8341 50.7154L53.7084 50.741L53.5962 50.7664L53.4965 50.8174L53.4085 50.8682L53.2961 50.9702L53.2208 51.0848L53.1714 51.1995L53.1587 51.3267V51.3523L53.1714 51.5178L53.2334 51.6578L53.2837 51.7342L53.3708 51.8234L53.4839 51.8871L53.5836 51.9507L53.7084 52.0017L53.8466 52.0527L53.9966 52.1035L54.0964 52.129L54.1961 52.1672L54.3092 52.1926L54.4214 52.2308L54.5462 52.2564L54.6845 52.2946L54.8219 52.3326L54.9594 52.371L55.0967 52.3964L55.2215 52.4346L55.3589 52.4728L55.4846 52.4983L55.6096 52.5365L55.7344 52.5747L55.8466 52.6129L55.9723 52.6511L56.0846 52.6893L56.1969 52.7275L56.335 52.7776L56.4598 52.8414L56.5846 52.8923L56.7096 52.9559L56.8227 53.0197L56.935 53.0833L57.0346 53.1469L57.1351 53.2234L57.235 53.287L57.3347 53.3762L57.4352 53.4652L57.5223 53.5672L57.6102 53.6563L57.6848 53.7583L57.7602 53.8728L57.8223 53.9746L57.8852 54.0894L57.9353 54.1912L57.973 54.3057L58.01 54.4203L58.0351 54.5349L58.0602 54.6623L58.0852 54.7897L58.0978 54.917L58.1105 55.0571V55.1971V55.2225V55.3627L58.0978 55.5028ZM49.3286 58.0489H49.203H49.0782H48.9534H48.8286H48.7029H48.5779H48.4532H48.3283H48.1901H48.0653H47.9405H47.8156H47.6898H47.5652H47.4402H47.3154H47.1897H47.0649H46.94H46.8152H46.6902H46.5647H46.4399H46.3151H46.1901H46.0644H45.9396H45.8148H45.6773H45.5518H45.4268H45.302H45.1772H45.0517H44.9267H44.8019H44.6769H44.5514H44.4265H44.3017H44.1767H44.0511H43.9264H43.8014H43.6766H43.5511H43.4261H43.2887H43.1638H43.039H42.9133H42.7885H42.6636H42.5389H42.4133H42.2884H42.1635V57.9215V57.7941V57.6669V57.5402V57.4128V57.2855V57.1582V57.031V56.9035V56.7761V56.6489V56.5215V56.3941V56.2668V56.1394V56.0121V55.8849V55.7574V55.6428V55.5154V55.3881V55.2609V55.1335V55.0061V54.8788V54.7514V54.624V54.4967V54.3695V54.2422V54.1148V53.9874V53.8601V53.7327V53.6053V53.478V53.3506V53.2234V53.0961V52.9687V52.8414V52.7147V52.5875V52.46V52.3326V52.2054V52.0781V51.9507V51.8234V51.696V51.5686V51.4414V51.3139V51.1867V51.0721V50.9448V50.8174V50.69V50.5627V50.4353V50.308V50.1806V50.0534V49.926V49.7987V49.6713V49.5439V49.4166V49.2893V49.1619V49.0347V48.9073V48.7799H42.2884H42.4133H42.5389H42.6636H42.7885H42.9133H43.039H43.1638H43.2887H43.4136H43.5392H43.6641H43.7888H43.9138H44.0267H44.1517H44.2765H44.4015H44.527H44.6518H44.7766H44.9016H45.0271H45.152H45.2768H45.4018H45.5274H45.6523H45.7771H45.9019H46.0276H46.1525H46.2772H46.4021H46.527H46.6527H46.7775H46.9024H47.0272H47.1528H47.2777H47.4025H47.5273H47.6405H47.7654H47.8902H48.0151H48.1407H48.2655H48.3903H48.5152H48.6408H48.7657H48.8905H49.0154H49.141H49.2659H49.3908V48.9073V49.0219V49.1492V49.2766V49.4038V49.5185V49.6459V49.7733V49.8878V50.0152V50.1424V50.2572V50.3845V50.5117V50.6391V50.7538V50.8812H49.2659H49.141H49.0154H48.8905H48.7657H48.6408H48.5278H48.4029H48.2781H48.1531H48.0276H47.9028H47.7778H47.653H47.5273H47.4025H47.2777H47.1528H47.0272H46.915H46.79H46.6652H46.5395H46.4148H46.2898H46.165H46.0394H45.9145H45.7897H45.6649H45.5392H45.4142H45.302H45.1772H45.0517H44.9267H44.8019H44.6769H44.5514V51.0084V51.1357V51.263V51.3904V51.5178V51.6324V51.7597V51.8871V52.0143V52.1417V52.269V52.3964H44.6769H44.8019H44.9267H45.0517H45.1772H45.302H45.4268H45.5518H45.6649H45.7897H45.9145H46.0394H46.165H46.2898H46.4148H46.5395H46.6652H46.79H46.915H47.0398H47.1653H47.2901H47.4151H47.5401H47.6656H47.7904H47.9028H48.0276H48.1531H48.2781H48.4029H48.5278H48.6533H48.7783H48.9031V52.5237V52.6383V52.765V52.8923V53.0069V53.1342V53.2616V53.3762V53.5036V53.6309V53.7583V53.8728V54V54.1274V54.2422V54.3695H48.7783H48.6533H48.5278H48.4029H48.2781H48.1531H48.0276H47.9028H47.7904H47.6656H47.5401H47.4151H47.2901H47.1653H47.0398H46.915H46.79H46.6652H46.5395H46.4148H46.2898H46.165H46.0394H45.9145H45.7897H45.6649H45.5518H45.4268H45.302H45.1772H45.0517H44.9267H44.8019H44.6769H44.5514V54.4967V54.6369V54.7642V54.8916V55.0316V55.159V55.2863V55.4264V55.5536V55.681V55.8211V55.9483H44.6769H44.8019H44.9267H45.0517H45.1772H45.302H45.4268H45.5518H45.6773H45.8148H45.9396H46.0644H46.1901H46.3151H46.4399H46.5647H46.6902H46.8152H46.94H47.0649H47.1897H47.3154H47.4402H47.5652H47.6898H47.8156H47.9405H48.0653H48.1901H48.3283H48.4532H48.5779H48.7029H48.8286H48.9534H49.0782H49.203H49.3286H49.4535V56.0758V56.1904V56.3178V56.445V56.5725V56.6871V56.8143V56.9416V57.0564V57.1836V57.3109V57.4257V57.5522V57.6795V57.8068V57.9215V58.0489H49.3286ZM40.1922 58.0489H40.0674H39.9424H39.8044H39.6796H39.5546H39.4298H39.3041H39.1793H39.0419H38.9171H38.7921H38.6666H38.5417H38.4169H38.2795H38.1538H38.029H37.904V57.9215V57.7941V57.6669V57.5394V57.4113V57.2841V57.1567V57.0292V56.902V56.7747V56.6473V56.5193V56.3919V56.2645V56.1373V56.0098V55.8817V55.7543V55.6271V55.4998V55.3724V55.2451V55.117V54.9897V54.8623V54.7349V54.6077V54.4802V54.3521V54.2247V54.0975V53.9702V53.8429V53.7155V53.5874V53.4601V53.3327V53.2055V53.0781V52.9499V52.8227V52.6953V52.5679L37.8414 52.6697L37.7667 52.7852L37.7038 52.887L37.6293 52.989L37.5665 53.1035L37.491 53.2055L37.4291 53.3073L37.3662 53.4226L37.2916 53.5245L37.2287 53.6263L37.1535 53.7283L37.0914 53.8436L37.0161 53.9455L36.954 54.0473L36.8911 54.1619L36.8157 54.2645L36.7537 54.3665L36.6783 54.481L36.6164 54.5829L36.541 54.6848L36.4789 54.8001L36.416 54.9021L36.3408 55.0039L36.2787 55.1186L36.2034 55.2211L36.1413 55.323L36.0659 55.4249L36.003 55.5394L35.941 55.642L35.8657 55.744L35.8037 55.8586L35.7283 55.9604L35.6655 56.0623L35.5909 56.1777L35.5281 56.2796H35.4785L35.4033 56.165L35.3404 56.0623L35.2657 55.9476L35.2029 55.8458L35.1283 55.7313L35.0655 55.6286L34.991 55.514L34.9281 55.412L34.8527 55.2975L34.7906 55.1957L34.7152 55.0802L34.6533 54.9784L34.578 54.8637L34.515 54.7619L34.4405 54.6466L34.3776 54.5447L34.3031 54.4301L34.2277 54.3283L34.1649 54.2129L34.0903 54.1111L34.0275 53.9965L33.9528 53.8946L33.8901 53.7792L33.8154 53.6773L33.7526 53.5627L33.6773 53.4608L33.6152 53.3462L33.5398 53.2435L33.4778 53.129L33.4024 53.0271L33.3396 52.9124L33.2651 52.8107L33.2021 52.6953L33.1275 52.5934V52.7207V52.8481V52.9755V53.1035V53.2309V53.3582V53.4856V53.613V53.7409V53.8683V53.983V54.1102V54.2376V54.3649V54.493V54.6204V54.7477V54.875V55.0024V55.1298V55.2578V55.3852V55.5126V55.6398V55.7672V55.8945V56.0226V56.1499V56.2773V56.4046V56.532V56.66V56.7747V56.902V57.0292V57.1567V57.2841V57.4113V57.5394V57.6669V57.7941V57.9215V58.0489H33.0027H32.8772H32.7522H32.6274H32.5025H32.377H32.252H32.1272H32.0023H31.8767H31.7519H31.6269H31.5021H31.3766H31.2518H31.1268H31.0018H30.8763H30.7515V57.9215V57.7941V57.6669V57.5402V57.4128V57.2855V57.1582V57.031V56.9035V56.7761V56.6489V56.5215V56.3941V56.2668V56.1394V56.0121V55.8849V55.7574V55.6428V55.5154V55.3881V55.2609V55.1335V55.0061V54.8788V54.7514V54.624V54.4967V54.3695V54.2422V54.1148V53.9874V53.8601V53.7327V53.6053V53.478V53.3506V53.2234V53.0961V52.9687V52.8414V52.7147V52.5875V52.46V52.3326V52.2054V52.0781V51.9507V51.8234V51.696V51.5686V51.4414V51.3139V51.1867V51.0721V50.9448V50.8174V50.69V50.5627V50.4353V50.308V50.1806V50.0534V49.926V49.7987V49.6713V49.5439V49.4166V49.2893V49.1619V49.0347V48.9073V48.7799H30.8763H31.0018H31.1143H31.239H31.364H31.4895H31.6019H31.7267H31.8523H31.9772H32.0895H32.2144H32.34H32.4649H32.5771H32.7019H32.8276H32.9525H33.0648H33.1896H33.3152L33.3773 48.8818L33.4401 48.9963L33.5146 49.0975L33.5775 49.2121L33.6403 49.3139L33.7023 49.4287L33.7651 49.5297L33.8399 49.6444L33.9025 49.7463L33.9654 49.8481L34.0275 49.9619L34.0903 50.0639L34.1649 50.1784L34.2277 50.2803L34.2905 50.3941L34.3525 50.496L34.4279 50.5978L34.4908 50.7119L34.5527 50.8136L34.6155 50.9282L34.6777 51.0302L34.7531 51.1439L34.8158 51.2459L34.8778 51.3604L34.9407 51.4615L35.0027 51.5634L35.0781 51.678L35.1409 51.78L35.2029 51.8946L35.2657 51.9957L35.3278 52.1104L35.4033 52.2122L35.466 52.326L35.5281 52.4279L35.5909 52.326L35.6536 52.2122L35.7283 52.1104L35.7909 51.9957L35.8531 51.8946L35.9159 51.78L35.9906 51.678L36.0533 51.5634L36.1162 51.4615L36.1781 51.3604L36.2535 51.2459L36.3156 51.1439L36.3785 51.0302L36.4411 50.9282L36.5158 50.8136L36.5785 50.7119L36.6415 50.5978L36.7034 50.496L36.7664 50.3941L36.8409 50.2803L36.9037 50.1784L36.9665 50.0639L37.0287 49.9619L37.1039 49.8481L37.1661 49.7463L37.2287 49.6444L37.2916 49.5297L37.3662 49.4287L37.4291 49.3139L37.491 49.2121L37.5539 49.0975L37.6293 48.9963L37.6913 48.8818L37.7541 48.7799H37.8789H38.0039H38.1168H38.2418H38.3666H38.4914H38.6045H38.7295H38.8542H38.9791H39.0922H39.217H39.3418H39.4668H39.5797H39.7047H39.8295H39.9543H40.0674H40.1922H40.3171V48.9073V49.0347V49.1619V49.2893V49.4166V49.5439V49.6713V49.7987V49.926V50.0534V50.1806V50.308V50.4353V50.5627V50.69V50.8174V50.9448V51.0721V51.1867V51.3139V51.4414V51.5686V51.696V51.8234V51.9507V52.0781V52.2054V52.3326V52.46V52.5875V52.7147V52.8414V52.9687V53.0961V53.2234V53.3506V53.478V53.6053V53.7327V53.8601V53.9874V54.1148V54.2422V54.3695V54.4967V54.624V54.7514V54.8788V55.0061V55.1335V55.2609V55.3881V55.5154V55.6428V55.7574V55.8849V56.0121V56.1394V56.2668V56.3941V56.5215V56.6489V56.7761V56.9035V57.031V57.1582V57.2855V57.4128V57.5402V57.6669V57.7941V57.9215V58.0489H40.1922ZM25.6838 54.2294L25.6462 54.1141L25.5967 53.9867L25.5464 53.872L25.5087 53.7567L25.4593 53.6421L25.4091 53.5147L25.3713 53.3993L25.321 53.2847L25.2717 53.1702L25.2339 53.0549L25.1836 52.9275L25.1467 52.8129L25.0964 52.6975L25.0461 52.5829L25.0086 52.4683L24.959 52.3403L24.9088 52.2255L24.8711 52.1111L24.8208 51.9957L24.7714 51.8683L24.7337 51.753L24.6834 51.6384L24.634 51.753L24.5964 51.8683L24.5461 51.9957L24.4958 52.1111L24.4588 52.2255L24.4087 52.3403L24.3584 52.4683L24.3089 52.5829L24.2711 52.6975L24.2209 52.8129L24.1706 52.9275L24.1337 53.0549L24.0835 53.1702L24.0332 53.2847L23.9957 53.3993L23.9461 53.5147L23.8958 53.6421L23.8456 53.7567L23.8088 53.872L23.7585 53.9867L23.7082 54.1141L23.6705 54.2294L23.621 54.344H23.7459H23.8707H23.9957H24.1212H24.246H24.3708H24.4958H24.6215H24.7337H24.8585H24.9842H25.109H25.2339H25.3588H25.4836H25.6092H25.734L25.6838 54.2294ZM29.6108 58.0489H29.4853H29.3728H29.2481H29.1224H28.9976H28.8726H28.7604H28.6347H28.5099H28.3851H28.2601H28.1346H28.0222H27.8974H27.7724H27.6469H27.5221H27.4097H27.2849H27.1594L27.1098 57.9342L27.0721 57.8195L27.0219 57.7049L26.9716 57.5777L26.9346 57.4637L26.8845 57.3493L26.8342 57.2346L26.7972 57.12L26.747 57.0054L26.6968 56.8908L26.6592 56.7761L26.6096 56.6489L26.5593 56.5342L26.5216 56.4196L26.4713 56.305H26.3465H26.2217H26.0969H25.972H25.859H25.734H25.6092H25.4836H25.3588H25.2339H25.109H24.9842H24.8585H24.7337H24.6215H24.4958H24.3708H24.246H24.1212H23.9957H23.8707H23.7459H23.621H23.4962H23.383H23.2583H23.1334H23.0077H22.8829L22.8334 56.4196L22.7957 56.5342L22.7454 56.6489L22.6953 56.7761L22.6583 56.8908L22.6081 57.0054L22.5578 57.12L22.5202 57.2346L22.4707 57.3493L22.4204 57.4637L22.3827 57.5777L22.3331 57.7049L22.283 57.8195L22.2453 57.9342L22.195 58.0489H22.0702H21.9453H21.8205H21.6948H21.57H21.4326H21.3078H21.1828H21.0573H20.9324H20.8076H20.6826H20.557H20.4323H20.3075H20.17H20.0443H19.9195H19.7946H19.6697L19.7192 57.9342L19.7695 57.8195L19.8196 57.7049L19.8692 57.5777L19.9069 57.4637L19.9572 57.3493L20.0074 57.2346L20.0568 57.12L20.1071 57.0054L20.1574 56.878L20.2069 56.7634L20.2572 56.6489L20.2947 56.5342L20.345 56.4196L20.3945 56.305L20.4447 56.1777L20.4949 56.0631L20.5445 55.9483L20.5948 55.8339L20.6449 55.7192L20.6826 55.6046L20.7321 55.4772L20.7824 55.3627L20.8327 55.2481L20.8821 55.1335L20.9324 55.0189L20.9827 54.9042L21.0322 54.7768L21.0699 54.6623L21.1202 54.5477L21.1703 54.4331L21.2199 54.3185L21.2701 54.2038L21.3202 54.0766L21.3698 53.962L21.42 53.8473L21.4577 53.7327L21.5079 53.6182L21.5574 53.5036L21.6077 53.3762L21.658 53.2616L21.7074 53.1469L21.7576 53.0323L21.8079 52.9178L21.8456 52.8031L21.8952 52.6893L21.9453 52.5619L21.9955 52.4474L22.0451 52.3326L22.0952 52.218L22.1455 52.1035L22.195 51.9889L22.2327 51.8615L22.283 51.747L22.3331 51.6324L22.3827 51.5178L22.433 51.4031L22.4832 51.2885L22.5328 51.1611L22.5829 51.0466L22.6206 50.932L22.6708 50.8174L22.7204 50.7028L22.7705 50.5881L22.8208 50.4609L22.8703 50.3462L22.9206 50.2316L22.9709 50.117L23.0077 50.0025L23.058 49.8878L23.1083 49.7605L23.1586 49.6459L23.208 49.5312L23.2583 49.4166L23.3085 49.302L23.3579 49.1875L23.3958 49.0601L23.4459 48.9455L23.4962 48.8309L23.5457 48.7162H23.6705H23.7836H23.9084H24.0332H24.1589H24.2711H24.3959H24.5209H24.6466H24.7589H24.8836H25.0086H25.1341H25.2465H25.3713H25.4961H25.6218H25.734H25.859L25.9091 48.8309L25.9594 48.9455L26.009 49.0601L26.0592 49.1875L26.0969 49.302L26.1463 49.4166L26.1966 49.5312L26.2468 49.6459L26.2971 49.7605L26.3465 49.8878L26.3968 50.0025L26.4471 50.117L26.4839 50.2316L26.5342 50.3462L26.5845 50.4609L26.6348 50.5881L26.6843 50.7028L26.7344 50.8174L26.7847 50.932L26.8342 51.0466L26.8719 51.1611L26.922 51.2885L26.9716 51.4031L27.0219 51.5178L27.0721 51.6324L27.1224 51.747L27.1718 51.8615L27.222 51.9889L27.2598 52.1035L27.3093 52.218L27.3594 52.3326L27.4097 52.4474L27.46 52.5619L27.5095 52.6893L27.5598 52.8031L27.6099 52.9178L27.6469 53.0323L27.697 53.1469L27.7473 53.2616L27.7969 53.3762L27.8471 53.5036L27.8974 53.6182L27.9477 53.7327L27.9971 53.8473L28.0348 53.962L28.085 54.0766L28.1346 54.2038L28.1847 54.3185L28.235 54.4331L28.2852 54.5477L28.3348 54.6623L28.3851 54.7768L28.4226 54.9042L28.4722 55.0189L28.5224 55.1335L28.5727 55.2481L28.6221 55.3627L28.6724 55.4772L28.7227 55.6046L28.773 55.7192L28.8098 55.8339L28.8601 55.9483L28.9104 56.0631L28.9599 56.1777L29.01 56.305L29.0603 56.4196L29.1105 56.5342L29.16 56.6489L29.1978 56.7634L29.2481 56.878L29.2975 57.0054L29.3477 57.12L29.3978 57.2346L29.4474 57.3493L29.4976 57.4637L29.5479 57.5777L29.5857 57.7049L29.635 57.8195L29.6853 57.9342L29.7355 58.0489H29.6108ZM18.6561 56.8652L18.5557 56.9416L18.4684 57.0054L18.3679 57.0818L18.2682 57.1454L18.1684 57.2219L18.068 57.2855L17.9682 57.3493L17.8552 57.4128L17.7428 57.4765L17.6305 57.5402L17.5175 57.5903L17.4052 57.6541L17.2804 57.7049L17.1681 57.7559L17.0425 57.8068L16.9303 57.8578L16.8178 57.896L16.7048 57.9342L16.5925 57.9725L16.4677 58.0106L16.3554 58.0489L16.2298 58.0744L16.1174 58.0998L15.9926 58.1252L15.8671 58.1506L15.7421 58.1634L15.6046 58.1762L15.4798 58.189L15.3424 58.2016L15.2167 58.2144L15.0794 58.2271H14.942H14.8044H14.6671H14.5414L14.4166 58.2144L14.2792 58.2016L14.1544 58.189L14.0295 58.1762L13.9039 58.1634L13.779 58.138L13.6541 58.1124L13.5419 58.087L13.4163 58.0616L13.304 58.0234L13.1791 57.9979L13.0661 57.9596L12.9537 57.9087L12.8414 57.8705L12.7167 57.8195L12.6036 57.7687L12.4913 57.7178L12.379 57.6669L12.2658 57.6032L12.1662 57.5402L12.0539 57.4765L11.9534 57.4128L11.8537 57.3493L11.7532 57.2727L11.6535 57.1964L11.5536 57.12L11.4657 57.0436L11.3786 56.9672L11.2906 56.878L11.2035 56.8017L11.1155 56.7125L11.0284 56.6233L10.953 56.5342L10.8783 56.4324L10.8029 56.3432L10.7402 56.2414L10.6655 56.1394L10.6029 56.0377L10.5407 55.9357L10.4779 55.8211L10.4151 55.7192L10.3657 55.6046L10.3154 55.49L10.2652 55.3754L10.2156 55.2609L10.178 55.159L10.1277 55.0443L10.1026 54.9297L10.0656 54.8152L10.0405 54.6879L10.0028 54.5731L9.97776 54.4459L9.96515 54.3312L9.93994 54.2038L9.92761 54.0894L9.91486 53.962L9.90309 53.8345L9.89062 53.7073V53.5672V53.4398V53.4144V53.287L9.90309 53.1469V53.0197L9.91486 52.8923L9.92761 52.7522L9.95269 52.6257L9.96515 52.4983L9.99023 52.3836L10.0279 52.2564L10.0531 52.129L10.09 52.0143L10.1277 51.8871L10.1654 51.7724L10.2156 51.645L10.2652 51.5306L10.3154 51.4159L10.3657 51.3013L10.4151 51.1867L10.4779 51.0721L10.5407 50.9702L10.6029 50.8682L10.6655 50.7664L10.7284 50.6646L10.8029 50.5627L10.8783 50.4609L10.953 50.359L11.0284 50.2697L11.1155 50.1806L11.1909 50.0914L11.2782 50.0025L11.366 49.9132L11.4531 49.8369L11.5536 49.7477L11.6409 49.6713L11.7406 49.5949L11.8411 49.5312L11.9408 49.4548L12.0414 49.3912L12.141 49.3276L12.2534 49.2638L12.3664 49.2001L12.4786 49.1365L12.591 49.0855L12.7039 49.0347L12.8289 48.9709L12.9286 48.9328L13.0535 48.8945L13.1667 48.8436L13.2789 48.8181L13.3911 48.7799L13.5166 48.7544L13.629 48.7162L13.7538 48.6908L13.8788 48.678L14.0043 48.6526L14.1293 48.6398L14.254 48.6272L14.3789 48.6144L14.5046 48.6016H14.642H14.7669H14.9042H15.0416L15.1799 48.6144L15.3173 48.6272H15.4421L15.567 48.6398L15.7044 48.6654L15.8175 48.678L15.9423 48.7036L16.0673 48.729L16.1802 48.7544L16.2924 48.7799L16.4049 48.8054L16.5179 48.8436L16.6302 48.8691L16.7299 48.9073L16.843 48.9455L16.9553 48.9963L17.0676 49.0473L17.1806 49.0983L17.293 49.1619L17.4052 49.2129L17.5058 49.2766L17.618 49.3402L17.7177 49.4038L17.8308 49.4676L17.9306 49.5439L18.0303 49.6077L18.1308 49.6841L18.2305 49.7605L18.331 49.8495L18.4307 49.926L18.3553 50.0279L18.2682 50.117L18.1928 50.2188L18.1057 50.3207L18.0303 50.4227L17.9556 50.5117L17.8677 50.6136L17.7931 50.7154L17.7177 50.8047L17.6305 50.9066L17.5552 51.0084L17.468 51.1103L17.3926 51.1995L17.318 51.3013L17.2302 51.4031L17.1554 51.505L17.0676 51.5942L16.9929 51.696L16.8924 51.6196L16.7927 51.5306L16.6922 51.4668L16.5925 51.3904L16.4927 51.3267L16.3923 51.263L16.2924 51.1995L16.1802 51.1357L16.0797 51.0848L15.98 51.0339L15.8795 50.9956L15.7672 50.9574L15.6549 50.9192L15.5419 50.8938L15.4171 50.8682L15.2922 50.8428L15.1673 50.8302L15.0298 50.8174L14.8917 50.8047H14.7543H14.6294L14.5046 50.8174L14.3915 50.8302L14.2667 50.8556L14.1544 50.8812L14.0413 50.9192L13.9291 50.9574L13.8167 51.0084L13.7044 51.0593L13.6039 51.1229L13.5043 51.1867L13.4037 51.2505L13.3166 51.3267L13.2286 51.4031L13.1415 51.4796L13.0661 51.5686L12.9789 51.6578L12.9036 51.7597L12.8414 51.8489L12.7786 51.9507L12.7167 52.0653L12.6538 52.1672L12.6036 52.2818L12.5659 52.3964L12.5163 52.511L12.4786 52.6383L12.4536 52.765L12.4285 52.8795L12.4033 53.0197L12.3908 53.1469L12.379 53.2742V53.4144V53.4398V53.5672L12.3908 53.6945L12.4033 53.8091L12.4159 53.9365L12.441 54.051L12.4662 54.1658L12.4913 54.2803L12.5289 54.3949L12.5659 54.4967L12.6162 54.624L12.6664 54.7388L12.7284 54.8534L12.7912 54.9552L12.854 55.0571L12.9286 55.159L13.004 55.2481L13.0912 55.3373L13.1667 55.4264L13.2537 55.5028L13.3543 55.5792L13.454 55.6556L13.5536 55.7192L13.6541 55.7829L13.7666 55.8339L13.8788 55.8849L13.9917 55.9357L14.1167 55.9739L14.2415 56.0121L14.3672 56.0377L14.492 56.0631L14.6168 56.0758L14.7543 56.0885H14.8917H15.0416L15.1799 56.0758L15.3173 56.0631L15.4421 56.0503L15.567 56.0248L15.6926 55.9993L15.8175 55.9613L15.9297 55.9357L16.0422 55.8849L16.1426 55.8339L16.2548 55.7829L16.3427 55.732L16.4426 55.6682V55.541V55.4137V55.2863V55.159V55.0189V54.8916V54.7642V54.6369V54.5095H16.3176H16.2047H16.0797H15.9549H15.8301H15.717H15.592H15.4672H15.3424H15.2295H15.1045H14.9797H14.8547H14.7418H14.6168V54.3822V54.2676V54.1402V54.0129V53.8855V53.7709V53.6436V53.5162V53.389V53.2742V53.1469V53.0197V52.8923V52.7776V52.6511H14.7418H14.8673H14.9923H15.117H15.2419H15.3668H15.4924H15.6173H15.7421H15.8671H15.9926H16.1174H16.2422H16.3671H16.4927H16.6177H16.7425H16.8674H16.9929H17.1178H17.2427H17.3675H17.493H17.618H17.7428H17.8677H17.9933H18.1181H18.2431H18.3679H18.4935H18.6183H18.7433V52.7776V52.9049V53.0323V53.1469V53.2742V53.4016V53.5289V53.6563V53.7837V53.8982V54.0256V54.153V54.2803V54.4077V54.5349V54.6623V54.7768V54.9042V55.0316V55.159V55.2863V55.4137V55.541V55.6556V55.7829V55.9103V56.0377V56.165V56.2922V56.407V56.5342V56.6615V56.7889L18.6561 56.8652Z" fill="white"></path><path d="M14.6333 27.8078H20.0527V23.5578H14.6333V14.8813H20.2685V10.6313H10.0312V41.3043H20.3542V37.0541H14.6333V27.8078Z" fill="white"></path><path d="M53.4505 28.7285V35.652C53.4505 36.879 52.8911 37.4483 51.7304 37.4483H50.8697C49.6655 37.4483 49.1061 36.879 49.1061 35.652V16.2835C49.1061 15.0566 49.6655 14.4873 50.8697 14.4873H51.644C52.8054 14.4873 53.3648 15.0566 53.3648 16.2835V22.2873H57.8806V16.0206C57.8806 12.2087 56.074 10.3682 52.3327 10.3682H50.0955C46.354 10.3682 44.5039 12.2522 44.5039 16.0648V35.8707C44.5039 39.6834 46.354 41.5673 50.0955 41.5673H52.3754C56.1177 41.5673 57.9669 39.6834 57.9669 35.8707V28.7285H53.4505Z" fill="white"></path><path d="M37.4688 41.3043H42.0715V10.6311H37.4688V41.3043Z" fill="white"></path><path d="M30.7932 24.2587C30.7932 25.4858 30.2346 26.0558 29.0732 26.0558H27.1803V14.7502H29.0732C30.2346 14.7502 30.7932 15.3196 30.7932 16.5464V24.2587ZM29.8039 10.6311H22.5781V41.3043H27.1803V30.174H29.8039C33.5461 30.174 35.3954 28.2902 35.3954 24.4783V16.3276C35.3954 12.5151 33.5461 10.6311 29.8039 10.6311" fill="white"></path><path fill-rule="evenodd" clip-rule="evenodd" d="M20.8906 69.039H47.2366L33.7892 73.535L20.8906 69.039Z" fill="white"></path></g><defs><clipPath id="clip0"><rect width="68" height="80" fill="white"></rect></clipPath></defs></svg> 