<svg width="12" height="12" viewBox="0 0 12 12" fill="none" xmlns="http://www.w3.org/2000/svg">
<path d="M6.00562 0.0927734C9.26404 0.0927734 11.9149 2.74369 11.9149 6.00211C11.9149 9.26052 9.264 11.9114 6.00559 11.9114C2.74717 11.9114 0.0962896 9.26055 0.0962896 6.00211C0.0962896 2.74366 2.74721 0.0927734 6.00562 0.0927734ZM10.185 6.51284H11.1891V5.4913H10.185V6.51284ZM6.49091 0.732383H5.5203V1.73648H6.49091V0.732383ZM9.30971 1.97561L8.59972 2.6856L9.32206 3.40794L10.0321 2.69795L9.30971 1.97561ZM9.30971 10.0286L10.032 9.30622L9.32203 8.59624L8.59968 9.31858L9.30971 10.0286ZM5.49478 11.1856H6.51632V10.1815H5.49478V11.1856ZM6.00559 9.45569C7.90988 9.45569 9.4592 7.90644 9.4592 6.00207C9.4592 4.09771 7.90992 2.54845 6.00559 2.54845C4.10129 2.54845 2.55204 4.09774 2.55204 6.00207C2.552 7.9064 4.10129 9.45569 6.00559 9.45569ZM2.70147 10.0286L3.41149 9.31858L2.68915 8.59624L1.97913 9.30622L2.70147 10.0286ZM2.68915 3.40797L3.41149 2.68563L2.70147 1.97564L1.97913 2.69799L2.68915 3.40797ZM1.82618 6.51284V5.4913H0.822083V6.51284H1.82618Z" fill="#39B4BD"/>
</svg>
