<?xml version="1.0" encoding="UTF-8"?> <svg xmlns="http://www.w3.org/2000/svg" width="41" height="43" viewBox="0 0 41 43" fill="none"><path d="M36.8393 19.0005C36.5728 19.8449 36.0399 21.0894 35.4182 22.4671C35.7734 23.4005 35.7734 24.6005 35.0629 25.9783C34.8852 26.2894 34.7076 26.6449 34.4411 26.956C33.8194 27.8005 32.9756 28.6894 32.0874 29.7116C32.043 29.8005 31.9542 29.8449 31.9097 29.9338C31.6877 30.156 31.3324 30.2449 31.0215 30.0671C30.6663 29.8449 30.6218 29.356 30.8883 29.0449C30.9771 28.956 31.0215 28.8671 31.1104 28.8227C32.3094 27.5338 33.4197 26.2894 33.9082 25.356C34.7964 23.6227 34.2191 22.4671 33.3309 21.9338C32.6203 21.5338 31.6433 21.5338 31.1104 22.3338C30.3554 23.4894 29.2895 24.6894 28.2681 25.8449C27.069 27.1783 25.9143 28.6005 25.2482 29.7116C24.4932 30.956 23.5606 33.9338 23.383 37.0449C23.2941 38.556 23.2497 40.3338 23.2053 41.356C23.2053 41.8894 23.605 42.3338 24.1823 42.3338H30.3554C30.8883 42.3338 31.288 41.8894 31.288 41.356V39.6227C31.288 39.2227 31.51 38.8227 31.8209 38.6005C33.997 37.0894 36.0843 35.2671 37.1946 33.9338C39.6815 31.0005 40.6142 22.3338 40.7474 19.756C40.8362 17.1783 37.5943 16.6005 36.8393 19.0005Z" fill="#39B4BD"></path><path d="M16.3662 29.6673C15.7001 28.5562 14.5454 27.1339 13.3463 25.8006C12.3249 24.6451 11.259 23.4451 10.5041 22.2895C9.97115 21.4895 8.99412 21.4895 8.28356 21.8895C7.43976 22.3784 6.81802 23.5339 7.70622 25.3117C8.19474 26.2451 9.30499 27.4895 10.5041 28.7784C10.5929 28.8673 10.6373 28.9562 10.7261 29.0006C10.9926 29.3117 10.9482 29.8006 10.5929 30.0228C10.3264 30.2006 9.92674 30.1117 9.70469 29.8895C9.66028 29.8006 9.57146 29.7562 9.52705 29.6673C8.59443 28.6451 7.75063 27.7562 7.1733 26.9117C6.90684 26.5562 6.7292 26.2451 6.55156 25.9339C5.84099 24.6006 5.84099 23.4006 6.19627 22.4228C5.57453 21.0451 5.0416 19.8006 4.77514 18.9562C4.02017 16.5562 0.733805 17.1339 0.867036 19.7117C1.00027 22.2895 1.93288 30.9562 4.41986 33.8895C5.57453 35.2228 7.6174 37.045 9.79351 38.5562C10.1488 38.7784 10.3264 39.1784 10.3264 39.5784V41.3117C10.3264 41.845 10.7705 42.2895 11.259 42.2895H17.4321C17.965 42.2895 18.4091 41.845 18.4091 41.3117C18.3647 40.245 18.3203 38.5117 18.2315 37.0006C18.0982 33.8895 17.1212 30.9562 16.3662 29.6673Z" fill="#39B4BD"></path><path d="M28.0016 19.3559L26.7581 14.1559C26.6249 13.667 26.8025 13.1781 27.1578 12.867L31.1992 9.40034C32.0874 8.64478 31.5989 7.22256 30.4442 7.08923L25.115 6.64478C24.6264 6.60034 24.2268 6.28923 24.0047 5.84478L22.0062 0.91145C21.5621 -0.155217 20.0522 -0.155217 19.6081 0.91145L17.5652 5.84478C17.3876 6.28923 16.9435 6.60034 16.455 6.64478L11.1257 7.08923C9.97105 7.17812 9.48253 8.64478 10.3707 9.40034L14.4121 12.867C14.7674 13.1781 14.945 13.667 14.8118 14.1559L13.5683 19.3559C13.3018 20.467 14.5453 21.3559 15.5223 20.7781L20.0966 17.9781C20.4963 17.7115 21.0292 17.7115 21.4733 17.9781L26.0476 20.7781C27.0246 21.3559 28.2681 20.467 28.0016 19.3559Z" fill="#39B4BD"></path></svg> 