<svg width="18" height="14" viewBox="0 0 18 14" fill="none" xmlns="http://www.w3.org/2000/svg">
<path d="M11.0188 5.04585C10.9634 4.81181 10.9354 4.57196 10.9354 4.32776C10.9354 2.49986 12.5309 1.00478 14.5217 0.933347L14.5238 0.93042H3.45801L3.46009 0.933347C5.45097 1.00478 7.04647 2.49986 7.04647 4.32776C7.04647 4.57196 7.01843 4.81181 6.96306 5.04585C7.84845 5.1978 8.52044 5.90611 8.52044 6.75489C8.52044 6.77615 8.51953 6.79718 8.51868 6.81825H9.46316C9.46231 6.79718 9.46139 6.77615 9.46139 6.75489C9.46139 5.90611 10.1334 5.1978 11.0188 5.04585ZM8.11578 2.85005H9.86609V3.81487H8.11578V2.85005Z" fill="#39B4BD"/>
<path d="M4.84366 7.42675C4.36608 7.62277 3.84738 7.72504 3.3111 7.72504C1.87432 7.72504 0.624645 6.98335 0 5.89893V11.3256C0 12.4979 1.04858 13.4516 2.33748 13.4516C3.22294 13.4516 4.04684 12.9843 4.43648 12.2611L6.46873 8.48927C5.73592 8.44113 5.11615 8.01628 4.84366 7.42675Z" fill="#39B4BD"/>
<path d="M14.6695 7.7253C14.1331 7.7253 13.6144 7.62303 13.1369 7.42704C12.8666 8.01192 12.2545 8.43467 11.5293 8.48838L13.5622 12.2615C13.9519 12.9846 14.7757 13.4519 15.6612 13.4519C16.9501 13.4519 17.9986 12.4982 17.9986 11.326V5.86768C17.3803 6.96927 16.1202 7.7253 14.6695 7.7253Z" fill="#39B4BD"/>
<path d="M4.73835 6.38398C4.86816 5.84163 5.27679 5.39321 5.82039 5.16915C5.92951 4.90074 5.98495 4.61837 5.98495 4.32709C5.98495 2.98577 4.78513 1.89453 3.31035 1.89453C1.83556 1.89453 0.635742 2.98577 0.635742 4.32709C0.635742 5.66841 1.83556 6.75965 3.31035 6.75965C3.82223 6.75962 4.31169 6.63008 4.73835 6.38398ZM1.88277 3.84468H2.77994V3.02871H3.84076V3.84468H4.73793V4.8095H3.84076V5.62548H2.77994V4.8095H1.88277V3.84468Z" fill="#39B4BD"/>
<path d="M13.2437 6.38395C13.6703 6.63004 14.1597 6.75965 14.6717 6.75965C16.1465 6.75965 17.3463 5.66841 17.3463 4.32709C17.3463 2.98577 16.1465 1.89453 14.6717 1.89453C13.1969 1.89453 11.9971 2.98577 11.9971 4.32709C11.9971 4.61834 12.0525 4.90074 12.1616 5.16915C12.7052 5.39321 13.1139 5.8416 13.2437 6.38395ZM15.8953 3.96689C16.1927 3.96689 16.4129 4.18793 16.4258 4.4493C16.4386 4.70983 16.1728 4.93171 15.8953 4.93171C15.598 4.93171 15.3778 4.71067 15.3649 4.4493C15.3521 4.1888 15.6179 3.96689 15.8953 3.96689ZM14.5579 2.7912C14.8552 2.7912 15.0754 3.01224 15.0883 3.27361C15.1011 3.53414 14.8353 3.75602 14.5579 3.75602C14.2605 3.75602 14.0403 3.53498 14.0274 3.27361C14.0146 3.01308 14.2804 2.7912 14.5579 2.7912ZM14.5579 5.15426C14.8552 5.15426 15.0754 5.3753 15.0883 5.63667C15.1011 5.8972 14.8353 6.11908 14.5579 6.11908C14.2605 6.11908 14.0403 5.89804 14.0274 5.63667C14.0146 5.37614 14.2804 5.15426 14.5579 5.15426ZM13.2203 4.93171C12.923 4.93171 12.7028 4.71067 12.6899 4.4493C12.6771 4.18877 12.9429 3.96689 13.2203 3.96689C13.5177 3.96689 13.7379 4.18793 13.7507 4.4493C13.7636 4.70983 13.4978 4.93171 13.2203 4.93171Z" fill="#39B4BD"/>
<path d="M6.60777 5.97998C6.13804 5.97998 5.75586 6.32754 5.75586 6.75476C5.75586 7.18198 6.13804 7.52957 6.60777 7.52957C7.0775 7.52957 7.45965 7.18198 7.45965 6.75476C7.45965 6.32754 7.0775 5.97998 6.60777 5.97998Z" fill="#39B4BD"/>
<path d="M11.3744 7.52957C11.8441 7.52957 12.2262 7.18198 12.2262 6.75476C12.2262 6.32754 11.8441 5.97998 11.3744 5.97998C10.9046 5.97998 10.5225 6.32754 10.5225 6.75476C10.5225 7.18198 10.9046 7.52957 11.3744 7.52957Z" fill="#39B4BD"/>
</svg>
