<svg width="18" height="17" viewBox="0 0 18 17" fill="none" xmlns="http://www.w3.org/2000/svg">
<g clip-path="url(#clip0)">
<path d="M2.6273 10.4958C2.5254 10.6807 2.56509 10.9041 2.72562 11.0503L2.85458 11.1676C3.22715 10.766 3.66139 10.3302 4.18804 9.85135C4.22526 9.8175 4.26357 9.80114 4.30093 9.76991L3.47132 9.01526C2.98902 9.80863 2.70777 10.3507 2.6273 10.4958Z" fill="#39B4BD"/>
<path d="M7.17042 12.5643C6.64253 13.0445 6.16463 13.4401 5.72559 13.7793L5.90027 13.9381C6.06232 14.0855 6.31033 14.121 6.51427 14.0256C6.78741 13.8975 7.21698 13.7137 8.12884 13.2518L7.2601 12.4617C7.22577 12.4958 7.20778 12.5305 7.17042 12.5643Z" fill="#39B4BD"/>
<path d="M6.89018 10.1076C6.50909 9.76099 5.43737 10.0717 4.93393 10.5295C3.24972 12.0613 2.48906 13.1473 2.14752 13.7886C2.0496 13.9723 2.09039 14.1922 2.24914 14.3366C2.40817 14.4814 2.65042 14.5181 2.85257 14.429C3.54182 14.1247 4.72134 13.4361 6.42559 11.8862C6.97917 11.3825 7.25232 10.4371 6.89059 10.108L6.89018 10.1076Z" fill="#39B4BD"/>
<path d="M1.64698 6.39144L0.155444 7.748C-0.0131963 7.90137 -0.0478032 8.13881 0.0716731 8.32691C0.188266 8.51252 0.432437 8.60707 0.664798 8.55049C1.47092 8.35389 2.18022 8.27083 2.65785 8.38224C3.33736 7.28349 4.06754 6.27204 4.84084 5.35327C4.39356 5.09247 2.91548 5.23773 1.64698 6.39144Z" fill="#39B4BD"/>
<path d="M8.92595 16.3251C9.12906 16.4185 9.37501 16.3824 9.53583 16.236L11.0275 14.8795C12.1823 13.8289 12.3855 12.4735 12.1235 12.0437C10.9969 12.816 9.85553 13.4681 8.79068 14.014C8.86415 14.3913 8.81526 14.7574 8.64154 15.8266C8.60762 16.0335 8.72517 16.2338 8.92595 16.3251Z" fill="#39B4BD"/>
<path d="M10.4704 4.81679C9.85363 5.37784 9.85363 6.2905 10.4704 6.85155C11.0873 7.41261 12.0909 7.41261 12.7077 6.85155C13.3246 6.2905 13.3246 5.37784 12.7077 4.81679C12.0909 4.25573 11.0873 4.25573 10.4704 4.81679Z" fill="#39B4BD"/>
<path d="M17.9691 0.473453C17.9502 0.236266 17.7425 0.0487895 17.4826 0.0310535C16.1874 -0.0576262 14.8973 0.0872591 13.6328 0.438981C13.728 1.2291 14.1773 2.08418 14.9444 2.78188C15.7208 3.48782 16.6865 3.89637 17.5707 3.97281C17.9113 2.88729 18.0728 1.72471 17.9691 0.473453Z" fill="#39B4BD"/>
<path d="M14.1984 3.45971C13.3208 2.66159 12.785 1.70435 12.613 0.772339C9.44637 1.95353 6.41496 4.53299 4.01953 8.15662L5.20963 9.23901C6.02275 8.93875 7.00987 8.85944 7.63596 9.42874C8.26286 9.99903 8.17401 10.8964 7.84401 11.635L9.07324 12.753C12.1387 11.0727 15.7076 8.42541 17.2252 4.90332C16.1755 4.75906 15.0902 4.27082 14.1984 3.45971ZM13.4524 7.52937C12.4245 8.46425 10.7517 8.46425 9.72363 7.52937C8.69559 6.59436 8.69559 5.07281 9.72363 4.13792C10.7517 3.20304 12.4245 3.20304 13.4524 4.13792C14.4804 5.07293 14.4804 6.59436 13.4524 7.52937Z" fill="#39B4BD"/>
</g>
<defs>
<clipPath id="clip0">
<rect width="18" height="16.371" fill="white" transform="translate(0 0.00561523)"/>
</clipPath>
</defs>
</svg>
