<svg width="531" height="396" viewBox="0 0 531 396" fill="none" xmlns="http://www.w3.org/2000/svg">
<g opacity="0.44">
<path d="M1.30661 377.552C0.78093 377.383 0.217504 377.672 0.0481658 378.197C-0.121172 378.723 0.167703 379.286 0.693387 379.456L1.30661 377.552ZM0.693387 379.456C3.01546 380.204 5.37573 380.928 7.77263 381.627L8.3328 379.707C5.95319 379.013 3.61062 378.294 1.30661 377.552L0.693387 379.456ZM17.5522 384.293C22.2939 385.499 27.1612 386.615 32.1435 387.64L32.5463 385.681C27.593 384.662 22.7558 383.553 18.0451 382.355L17.5522 384.293ZM41.9901 389.519C46.8713 390.381 51.8506 391.159 56.9191 391.851L57.1898 389.87C52.1463 389.181 47.1926 388.407 42.3378 387.55L41.9901 389.519ZM66.773 393.077C71.6993 393.631 76.7012 394.107 81.7708 394.503L81.9267 392.509C76.8792 392.115 71.8998 391.641 66.9965 391.09L66.773 393.077ZM91.75 395.175C96.6995 395.456 101.707 395.663 106.765 395.794L106.817 393.795C101.779 393.664 96.792 393.458 91.8632 393.179L91.75 395.175ZM116.806 395.955C121.765 395.986 126.767 395.946 131.807 395.833L131.762 393.834C126.742 393.946 121.758 393.986 116.819 393.955L116.806 395.955ZM141.864 395.514C146.822 395.311 151.812 395.037 156.827 394.694L156.69 392.699C151.693 393.041 146.722 393.313 141.782 393.516L141.864 395.514ZM166.865 393.915C171.814 393.486 176.784 392.989 181.769 392.422L181.544 390.435C176.576 391 171.623 391.495 166.692 391.923L166.865 393.915ZM191.742 391.198C196.679 390.548 201.629 389.829 206.584 389.042L206.271 387.066C201.332 387.851 196.401 388.567 191.481 389.216L191.742 391.198ZM216.48 387.378C221.393 386.507 226.309 385.568 231.223 384.559L230.821 382.6C225.925 383.605 221.026 384.541 216.13 385.409L216.48 387.378ZM241.025 382.454C245.902 381.361 250.772 380.199 255.633 378.966L255.141 377.028C250.299 378.255 245.446 379.413 240.588 380.503L241.025 382.454ZM265.323 376.413C270.149 375.093 274.962 373.703 279.755 372.242L279.172 370.329C274.397 371.784 269.603 373.169 264.796 374.484L265.323 376.413ZM289.311 369.229C294.072 367.676 298.811 366.051 303.524 364.355L302.846 362.474C298.153 364.163 293.433 365.78 288.691 367.327L289.311 369.229ZM312.916 360.865C317.596 359.071 322.245 357.204 326.86 355.264L326.085 353.421C321.49 355.352 316.86 357.211 312.2 358.998L312.916 360.865ZM336.055 351.279C340.634 349.234 345.174 347.115 349.67 344.921L348.793 343.123C344.317 345.308 339.798 347.417 335.239 349.453L336.055 351.279ZM358.627 340.419C363.082 338.114 367.49 335.732 371.846 333.272L370.862 331.531C366.528 333.978 362.142 336.349 357.708 338.643L358.627 340.419ZM380.515 328.232C384.82 325.656 389.068 323.001 393.256 320.266L392.162 318.591C387.997 321.312 383.771 323.953 379.488 326.516L380.515 328.232ZM401.579 314.667C405.703 311.81 409.762 308.872 413.75 305.852L412.542 304.258C408.577 307.26 404.542 310.182 400.44 313.023L401.579 314.667ZM421.659 299.678C425.568 296.534 429.401 293.307 433.154 289.994L431.831 288.495C428.101 291.786 424.291 294.995 420.406 298.12L421.659 299.678ZM440.572 283.239C444.227 279.804 447.797 276.284 451.278 272.677L449.838 271.288C446.381 274.871 442.834 278.369 439.203 281.782L440.572 283.239ZM458.119 265.346C461.477 261.625 464.742 257.817 467.909 253.92L466.357 252.659C463.212 256.528 459.97 260.31 456.634 264.006L458.119 265.346ZM474.092 246.035C477.112 242.04 480.031 237.958 482.844 233.787L481.185 232.669C478.393 236.809 475.495 240.862 472.497 244.829L474.092 246.035ZM488.291 225.383C490.934 221.138 493.469 216.805 495.892 212.384L494.139 211.423C491.734 215.811 489.217 220.112 486.593 224.326L488.291 225.383ZM500.54 203.518C502.776 199.054 504.899 194.504 506.905 189.868L505.07 189.073C503.078 193.676 500.971 198.192 498.752 202.623L500.54 203.518ZM510.708 180.614C512.517 175.969 514.212 171.24 515.787 166.426L513.886 165.804C512.322 170.583 510.64 175.277 508.844 179.888L510.708 180.614ZM518.722 156.876C520.1 152.087 521.362 147.219 522.504 142.269L520.556 141.82C519.421 146.734 518.168 151.568 516.8 156.323L518.722 156.876ZM524.578 132.52C525.531 127.624 526.37 122.651 527.09 117.602L525.11 117.319C524.395 122.336 523.562 127.275 522.614 132.138L524.578 132.52ZM528.331 107.756C528.877 102.785 529.309 97.7426 529.625 92.6277L527.629 92.5044C527.315 97.5879 526.885 102.599 526.343 107.538L528.331 107.756ZM530.087 82.7583C530.245 77.7911 530.296 72.7577 530.236 67.6577L528.236 67.6813C528.296 72.7525 528.245 77.7568 528.088 82.6945L530.087 82.7583ZM529.978 57.6602C529.783 52.7394 529.487 47.7584 529.087 42.7166L527.094 42.8748C527.492 47.8906 527.786 52.8453 527.98 57.7393L529.978 57.6602ZM528.148 32.5521C527.638 27.7113 527.033 22.8161 526.332 17.8661L524.352 18.1465C525.05 23.0733 525.651 27.9449 526.159 32.7617L528.148 32.5521ZM524.802 7.89719C524.387 5.38657 523.948 2.8622 523.484 0.324032L521.516 0.683781C521.978 3.21086 522.416 5.72403 522.829 8.22335L524.802 7.89719Z" fill="white"/>
<path d="M1.30661 377.552C0.78093 377.383 0.217504 377.672 0.0481658 378.197C-0.121172 378.723 0.167703 379.286 0.693387 379.456L1.30661 377.552ZM0.693387 379.456C3.01546 380.204 5.37573 380.928 7.77263 381.627L8.3328 379.707C5.95319 379.013 3.61062 378.294 1.30661 377.552L0.693387 379.456ZM17.5522 384.293C22.2939 385.499 27.1612 386.615 32.1435 387.64L32.5463 385.681C27.593 384.662 22.7558 383.553 18.0451 382.355L17.5522 384.293ZM41.9901 389.519C46.8713 390.381 51.8506 391.159 56.9191 391.851L57.1898 389.87C52.1463 389.181 47.1926 388.407 42.3378 387.55L41.9901 389.519ZM66.773 393.077C71.6993 393.631 76.7012 394.107 81.7708 394.503L81.9267 392.509C76.8792 392.115 71.8998 391.641 66.9965 391.09L66.773 393.077ZM91.75 395.175C96.6995 395.456 101.707 395.663 106.765 395.794L106.817 393.795C101.779 393.664 96.792 393.458 91.8632 393.179L91.75 395.175ZM116.806 395.955C121.765 395.986 126.767 395.946 131.807 395.833L131.762 393.834C126.742 393.946 121.758 393.986 116.819 393.955L116.806 395.955ZM141.864 395.514C146.822 395.311 151.812 395.037 156.827 394.694L156.69 392.699C151.693 393.041 146.722 393.313 141.782 393.516L141.864 395.514ZM166.865 393.915C171.814 393.486 176.784 392.989 181.769 392.422L181.544 390.435C176.576 391 171.623 391.495 166.692 391.923L166.865 393.915ZM191.742 391.198C196.679 390.548 201.629 389.829 206.584 389.042L206.271 387.066C201.332 387.851 196.401 388.567 191.481 389.216L191.742 391.198ZM216.48 387.378C221.393 386.507 226.309 385.568 231.223 384.559L230.821 382.6C225.925 383.605 221.026 384.541 216.13 385.409L216.48 387.378ZM241.025 382.454C245.902 381.361 250.772 380.199 255.633 378.966L255.141 377.028C250.299 378.255 245.446 379.413 240.588 380.503L241.025 382.454ZM265.323 376.413C270.149 375.093 274.962 373.703 279.755 372.242L279.172 370.329C274.397 371.784 269.603 373.169 264.796 374.484L265.323 376.413ZM289.311 369.229C294.072 367.676 298.811 366.051 303.524 364.355L302.846 362.474C298.153 364.163 293.433 365.78 288.691 367.327L289.311 369.229ZM312.916 360.865C317.596 359.071 322.245 357.204 326.86 355.264L326.085 353.421C321.49 355.352 316.86 357.211 312.2 358.998L312.916 360.865ZM336.055 351.279C340.634 349.234 345.174 347.115 349.67 344.921L348.793 343.123C344.317 345.308 339.798 347.417 335.239 349.453L336.055 351.279ZM358.627 340.419C363.082 338.114 367.49 335.732 371.846 333.272L370.862 331.531C366.528 333.978 362.142 336.349 357.708 338.643L358.627 340.419ZM380.515 328.232C384.82 325.656 389.068 323.001 393.256 320.266L392.162 318.591C387.997 321.312 383.771 323.953 379.488 326.516L380.515 328.232ZM401.579 314.667C405.703 311.81 409.762 308.872 413.75 305.852L412.542 304.258C408.577 307.26 404.542 310.182 400.44 313.023L401.579 314.667ZM421.659 299.678C425.568 296.534 429.401 293.307 433.154 289.994L431.831 288.495C428.101 291.786 424.291 294.995 420.406 298.12L421.659 299.678ZM440.572 283.239C444.227 279.804 447.797 276.284 451.278 272.677L449.838 271.288C446.381 274.871 442.834 278.369 439.203 281.782L440.572 283.239ZM458.119 265.346C461.477 261.625 464.742 257.817 467.909 253.92L466.357 252.659C463.212 256.528 459.97 260.31 456.634 264.006L458.119 265.346ZM474.092 246.035C477.112 242.04 480.031 237.958 482.844 233.787L481.185 232.669C478.393 236.809 475.495 240.862 472.497 244.829L474.092 246.035ZM488.291 225.383C490.934 221.138 493.469 216.805 495.892 212.384L494.139 211.423C491.734 215.811 489.217 220.112 486.593 224.326L488.291 225.383ZM500.54 203.518C502.776 199.054 504.899 194.504 506.905 189.868L505.07 189.073C503.078 193.676 500.971 198.192 498.752 202.623L500.54 203.518ZM510.708 180.614C512.517 175.969 514.212 171.24 515.787 166.426L513.886 165.804C512.322 170.583 510.64 175.277 508.844 179.888L510.708 180.614ZM518.722 156.876C520.1 152.087 521.362 147.219 522.504 142.269L520.556 141.82C519.421 146.734 518.168 151.568 516.8 156.323L518.722 156.876ZM524.578 132.52C525.531 127.624 526.37 122.651 527.09 117.602L525.11 117.319C524.395 122.336 523.562 127.275 522.614 132.138L524.578 132.52ZM528.331 107.756C528.877 102.785 529.309 97.7426 529.625 92.6277L527.629 92.5044C527.315 97.5879 526.885 102.599 526.343 107.538L528.331 107.756ZM530.087 82.7583C530.245 77.7911 530.296 72.7577 530.236 67.6577L528.236 67.6813C528.296 72.7525 528.245 77.7568 528.088 82.6945L530.087 82.7583ZM529.978 57.6602C529.783 52.7394 529.487 47.7584 529.087 42.7166L527.094 42.8748C527.492 47.8906 527.786 52.8453 527.98 57.7393L529.978 57.6602ZM528.148 32.5521C527.638 27.7113 527.033 22.8161 526.332 17.8661L524.352 18.1465C525.05 23.0733 525.651 27.9449 526.159 32.7617L528.148 32.5521ZM524.802 7.89719C524.387 5.38657 523.948 2.8622 523.484 0.324032L521.516 0.683781C521.978 3.21086 522.416 5.72403 522.829 8.22335L524.802 7.89719Z" fill="url(#paint0_linear)"/>
</g>
<defs>
<linearGradient id="paint0_linear" x1="-49" y1="395.004" x2="606" y2="293.004" gradientUnits="userSpaceOnUse">
<stop offset="0.0985668" stop-color="#5571FF"/>
<stop offset="1" stop-color="#5774FF" stop-opacity="0.35"/>
</linearGradient>
</defs>
</svg>
