<?xml version="1.0" encoding="UTF-8"?> <svg xmlns="http://www.w3.org/2000/svg" width="66" height="43" viewBox="0 0 66 43" fill="none"><path d="M48.0424 31.7431C45.1324 21.2431 43.9824 12.0931 36.3924 12.0931H13.2024C5.61239 12.0931 4.46239 21.2431 1.55239 31.7431C-0.927607 40.7031 5.53239 43.3331 9.24239 40.4631C11.8024 38.4931 15.3324 31.1131 15.3324 31.1131H24.7924H34.2524C34.2524 31.1131 37.7824 38.4931 40.3424 40.4631C44.0624 43.3431 50.5224 40.7131 48.0424 31.7431Z" stroke="#08BEB2" stroke-width="2" stroke-miterlimit="10" stroke-linecap="round" stroke-linejoin="round"></path><path d="M14.1224 17.9631V23.9631" stroke="#08BEB2" stroke-width="2" stroke-miterlimit="10" stroke-linecap="round" stroke-linejoin="round"></path><path d="M11.1224 20.9631H17.1224" stroke="#08BEB2" stroke-width="2" stroke-miterlimit="10" stroke-linecap="round" stroke-linejoin="round"></path><path d="M39.2424 21.3531C39.0324 21.3531 38.8724 21.1831 38.8724 20.9831C38.8724 20.7731 39.0424 20.6131 39.2424 20.6131C39.4524 20.6131 39.6124 20.7831 39.6124 20.9831C39.6124 21.1831 39.4524 21.3531 39.2424 21.3531Z" stroke="#08BEB2" stroke-width="2" stroke-miterlimit="10" stroke-linecap="round" stroke-linejoin="round"></path><path d="M31.9924 21.3531C31.7824 21.3531 31.6224 21.1831 31.6224 20.9831C31.6224 20.7731 31.7924 20.6131 31.9924 20.6131C32.1924 20.6131 32.3624 20.7831 32.3624 20.9831C32.3624 21.1831 32.1924 21.3531 31.9924 21.3531Z" stroke="#08BEB2" stroke-width="2" stroke-miterlimit="10" stroke-linecap="round" stroke-linejoin="round"></path><path d="M35.6124 17.7231C35.8167 17.7231 35.9824 17.5575 35.9824 17.3531C35.9824 17.1488 35.8167 16.9831 35.6124 16.9831C35.4081 16.9831 35.2424 17.1488 35.2424 17.3531C35.2424 17.5575 35.4081 17.7231 35.6124 17.7231Z" stroke="#08BEB2" stroke-width="2" stroke-miterlimit="10" stroke-linecap="round" stroke-linejoin="round"></path><path d="M35.9924 24.6031C35.9924 24.8131 35.8224 24.9731 35.6224 24.9731C35.4124 24.9731 35.2524 24.8031 35.2524 24.6031C35.2524 24.3931 35.4224 24.2331 35.6224 24.2331C35.8224 24.2331 35.9924 24.4031 35.9924 24.6031Z" stroke="#08BEB2" stroke-width="2" stroke-miterlimit="10" stroke-linecap="round" stroke-linejoin="round"></path><path d="M49.9624 20.4831C49.9624 20.4831 53.4924 27.8631 56.0524 29.8331C59.7724 32.7031 66.2324 30.0731 63.7424 21.1131C60.8324 10.6031 59.6824 1.45312 52.0924 1.45312H28.9024C24.7224 1.45312 22.5024 4.22313 20.8524 8.47313" stroke="#08BEB2" stroke-width="2" stroke-miterlimit="10" stroke-linecap="round" stroke-linejoin="round"></path><path d="M54.9424 10.7131C54.7324 10.7131 54.5724 10.5431 54.5724 10.3431C54.5724 10.1331 54.7424 9.97313 54.9424 9.97313C55.1524 9.97313 55.3124 10.1431 55.3124 10.3431C55.3124 10.5431 55.1524 10.7131 54.9424 10.7131Z" stroke="#08BEB2" stroke-width="2" stroke-miterlimit="10" stroke-linecap="round" stroke-linejoin="round"></path><path d="M47.6924 10.7131C47.4824 10.7131 47.3224 10.5431 47.3224 10.3431C47.3224 10.1331 47.4924 9.97313 47.6924 9.97313C47.9024 9.97313 48.0624 10.1431 48.0624 10.3431C48.0624 10.5431 47.8924 10.7131 47.6924 10.7131Z" stroke="#08BEB2" stroke-width="2" stroke-miterlimit="10" stroke-linecap="round" stroke-linejoin="round"></path><path d="M51.6924 6.71313C51.6924 6.92313 51.5224 7.08313 51.3224 7.08313C51.1124 7.08313 50.9524 6.91313 50.9524 6.71313C50.9524 6.50313 51.1224 6.34313 51.3224 6.34313C51.5224 6.33313 51.6924 6.50313 51.6924 6.71313Z" stroke="#08BEB2" stroke-width="2" stroke-miterlimit="10" stroke-linecap="round" stroke-linejoin="round"></path><path d="M51.3124 14.3331C51.5167 14.3331 51.6824 14.1675 51.6824 13.9631C51.6824 13.7588 51.5167 13.5931 51.3124 13.5931C51.108 13.5931 50.9424 13.7588 50.9424 13.9631C50.9424 14.1675 51.108 14.3331 51.3124 14.3331Z" stroke="#08BEB2" stroke-width="2" stroke-miterlimit="10" stroke-linecap="round" stroke-linejoin="round"></path><path d="M29.7124 7.83313V5.95312" stroke="#08BEB2" stroke-width="2" stroke-miterlimit="10" stroke-linecap="round" stroke-linejoin="round"></path></svg> 