<svg width="39" height="38" viewBox="0 0 39 38" fill="none" xmlns="http://www.w3.org/2000/svg">
<path d="M19.0357 37.9596V28.5166C16.2748 28.6088 13.5678 29.3053 11.1052 30.5571C12.9618 34.7839 15.8098 37.6095 19.0357 37.9596Z" fill="#39B4BD"/>
<path d="M9.94279 31.2041C8.955 31.7983 8.02373 32.4818 7.16064 33.2459C9.21016 35.0568 11.6267 36.4035 14.2449 37.1938C12.3834 35.542 10.9136 33.4957 9.94279 31.2041Z" fill="#39B4BD"/>
<path d="M25.1428 17.6436H23.7856V19.0007H25.1428V17.6436Z" fill="#39B4BD"/>
<path d="M6.17266 32.311C7.17366 31.4138 8.26133 30.6182 9.41963 29.936C8.1994 26.6518 7.55347 23.182 7.51013 19.6787H0.731201C0.8976 24.4227 2.83965 28.9311 6.17266 32.311Z" fill="#39B4BD"/>
<path d="M19.0357 0.0410156C15.8098 0.391158 12.9618 3.21673 11.1052 7.44355C13.5678 8.69528 16.2748 9.3918 19.0357 9.48402V0.0410156Z" fill="#39B4BD"/>
<path d="M22.4963 20.795L25.3789 23.0716H27.1784C27.3584 23.0716 27.531 23.0001 27.6583 22.8728C27.7855 22.7456 27.857 22.573 27.857 22.393V19.0001C27.8559 17.9207 27.4266 16.8857 26.6633 16.1224C25.9 15.3591 24.8651 14.9298 23.7856 14.9287H15.6427C14.5632 14.9298 13.5283 15.3591 12.765 16.1224C12.0017 16.8857 11.5724 17.9207 11.5713 19.0001V22.393C11.5713 22.573 11.6428 22.7456 11.77 22.8728C11.8973 23.0001 12.0699 23.0716 12.2499 23.0716H14.0494L16.932 20.7956C17.292 20.5123 17.7367 20.3579 18.1948 20.3573H21.2335C21.6915 20.3577 22.1362 20.5119 22.4963 20.795ZM22.4284 17.643H23.7856V16.2859H25.1427V17.643H26.4999V19.0001H25.1427V20.3573H23.7856V19.0001H22.4284V17.643ZM16.9999 19.0001H15.6427V20.3573H14.2856V19.0001H12.9284V17.643H14.2856V16.2859H15.6427V17.643H16.9999V19.0001ZM19.0356 17.643H17.6784V16.2859H19.0356V17.643ZM20.3927 16.2859H21.7499V17.643H20.3927V16.2859Z" fill="#39B4BD"/>
<path d="M7.16064 4.75457C8.02373 5.5187 8.955 6.20216 9.94279 6.79639C10.9136 4.50476 12.3834 2.45851 14.2449 0.806641C11.6267 1.59701 9.21016 2.9437 7.16064 4.75457Z" fill="#39B4BD"/>
<path d="M7.51013 18.3214C7.55362 14.8185 8.19955 11.3492 9.41963 8.06543C8.26133 7.38324 7.17366 6.58767 6.17266 5.69043C2.83996 9.06999 0.897937 13.5779 0.731201 18.3214H7.51013Z" fill="#39B4BD"/>
<path d="M20.3928 0.0410156V9.48402C23.1537 9.3918 25.8608 8.69528 28.3233 7.44355C26.4667 3.21673 23.6188 0.391158 20.3928 0.0410156Z" fill="#39B4BD"/>
<path d="M32.2679 4.75457C30.2184 2.9437 27.8018 1.59701 25.1836 0.806641C27.0452 2.45851 28.5149 4.50476 29.4857 6.79639C30.4735 6.20216 31.4048 5.5187 32.2679 4.75457Z" fill="#39B4BD"/>
<path d="M19.0357 23.0721H20.3928V27.1598C23.3275 27.2514 26.2072 27.9801 28.8322 29.2953C30.0104 25.9921 30.5991 22.5076 30.5714 19.0007C30.5991 15.4938 30.0104 12.0092 28.8322 8.70605C26.2072 10.0213 23.3275 10.7499 20.3928 10.8415V12.2149H19.0357V10.8415C16.101 10.7499 13.2214 10.0213 10.5963 8.70605C9.41812 12.0092 8.82944 15.4938 8.85713 19.0007C8.82944 22.5076 9.41812 25.9921 10.5963 29.2953C13.2214 27.9801 16.101 27.2514 19.0357 27.1598V23.0721ZM17.7742 21.8609L14.7064 24.2834C14.5866 24.3779 14.4384 24.4293 14.2857 24.4292H12.25C11.7101 24.4292 11.1923 24.2148 10.8105 23.833C10.4288 23.4512 10.2143 22.9334 10.2143 22.3935V19.0007C10.2159 17.5614 10.7884 16.1816 11.8061 15.1639C12.8238 14.1462 14.2036 13.5737 15.6428 13.5721H23.7857C25.225 13.5737 26.6048 14.1462 27.6225 15.1639C28.6402 16.1816 29.2127 17.5614 29.2143 19.0007V22.3935C29.2143 22.9334 28.9998 23.4512 28.618 23.833C28.2363 24.2148 27.7185 24.4292 27.1786 24.4292H25.1428C24.9902 24.4293 24.842 24.3779 24.7221 24.2834L21.6536 21.8609C21.534 21.7664 21.386 21.715 21.2336 21.715H18.195C18.0424 21.7153 17.8943 21.7667 17.7742 21.8609Z" fill="#39B4BD"/>
<path d="M25.1836 37.1938C27.8018 36.4035 30.2184 35.0568 32.2679 33.2459C31.4048 32.4818 30.4735 31.7983 29.4857 31.2041C28.5149 33.4957 27.0452 35.542 25.1836 37.1938Z" fill="#39B4BD"/>
<path d="M28.3233 30.5571C25.8608 29.3053 23.1537 28.6088 20.3928 28.5166V37.9596C23.6188 37.6095 26.4667 34.7839 28.3233 30.5571Z" fill="#39B4BD"/>
<path d="M33.2558 5.68945C32.2548 6.58669 31.1671 7.38227 30.0088 8.06445C31.229 11.3487 31.8749 14.8184 31.9183 18.3217H38.6972C38.5308 13.5778 36.5888 9.06935 33.2558 5.68945Z" fill="#39B4BD"/>
<path d="M31.9183 19.6787C31.8748 23.1816 31.2289 26.6508 30.0088 29.9346C31.1671 30.6168 32.2548 31.4124 33.2558 32.3096C36.5885 28.9301 38.5305 24.4222 38.6972 19.6787H31.9183Z" fill="#39B4BD"/>
</svg>
