<?xml version="1.0" encoding="UTF-8"?> <svg xmlns="http://www.w3.org/2000/svg" width="94" height="41" viewBox="0 0 94 41" fill="none"><g clip-path="url(#clip0)"><path d="M48.9383 7.05393C49.7333 7.05393 51.9822 6.98951 53.9572 9.05243C54.0173 9.11513 54.017 9.21681 53.9567 9.27919L52.6671 10.6124C52.6055 10.6761 52.5045 10.6782 52.4405 10.6171C52.3071 10.4899 52.1039 10.296 52.0863 10.2809C51.0078 9.35435 50.0369 9.17912 49.0003 9.17912C46.9659 9.17912 45.2566 10.9142 45.2566 13.0618C45.2566 15.2093 47.0215 16.9764 49.0807 16.9764C51.1198 16.9764 52.0796 16.1984 52.5435 14.5925C52.5584 14.5408 52.519 14.4867 52.4651 14.4867H49.3213C49.2324 14.4867 49.1603 14.4145 49.1603 14.3255V12.6788C49.1603 12.5898 49.2324 12.5176 49.3213 12.5176H54.6978C54.8032 12.5176 54.868 12.5942 54.868 12.6706C55.0073 16.3504 52.8987 19.0683 48.9801 19.0683C45.6277 19.0683 43.002 16.3791 43.002 13.0619C43.002 9.64372 45.7648 7.05393 48.9383 7.05393Z" fill="#323333"></path><path d="M48.9383 21.634C49.7333 21.634 51.9822 21.5696 53.9572 23.6325C54.0173 23.6952 54.017 23.7969 53.9567 23.8593L52.6671 25.1925C52.6055 25.2562 52.5045 25.2583 52.4405 25.1972C52.3071 25.07 52.1039 24.8761 52.0863 24.8609C51.0078 23.9344 50.0369 23.7592 49.0003 23.7592C46.9659 23.7592 45.2566 25.4943 45.2566 27.6418C45.2566 29.7894 47.0215 31.5565 49.0807 31.5565C51.1198 31.5565 52.0796 30.7785 52.5435 29.1726C52.5584 29.1209 52.519 29.0668 52.4651 29.0668H49.3213C49.2324 29.0668 49.1603 28.9946 49.1603 28.9056V27.259C49.1603 27.1699 49.2324 27.0978 49.3213 27.0978H54.6978C54.8032 27.0978 54.868 27.1743 54.868 27.2508C55.0073 30.9306 52.8987 33.6485 48.9801 33.6485C45.6277 33.6485 43.002 30.9593 43.002 27.6421C43.002 24.2237 45.7648 21.634 48.9383 21.634Z" fill="#323333"></path><path d="M62.4277 7.05518C59.1475 7.05518 56.4883 9.74438 56.4883 13.0616C56.4883 16.3789 59.1475 19.068 62.4277 19.068C65.708 19.068 68.3672 16.3788 68.3672 13.0616C68.3672 9.74438 65.708 7.05518 62.4277 7.05518ZM62.4277 16.9501C60.3935 16.9501 58.7444 15.2092 58.7444 13.0616C58.7444 10.914 60.3934 9.17317 62.4277 9.17317C64.4619 9.17317 66.1111 10.9141 66.1111 13.0616C66.1111 15.2091 64.4619 16.9501 62.4277 16.9501Z" fill="#323333"></path><path d="M76.0039 7.05518C72.7237 7.05518 70.0645 9.74438 70.0645 13.0616C70.0645 16.3789 72.7237 19.068 76.0039 19.068C79.2842 19.068 81.9434 16.3788 81.9434 13.0616C81.9434 9.74438 79.2842 7.05518 76.0039 7.05518ZM76.0039 16.9501C73.9697 16.9501 72.3206 15.2092 72.3206 13.0616C72.3206 10.914 73.9696 9.17317 76.0039 9.17317C78.0382 9.17317 79.6872 10.9141 79.6872 13.0616C79.6872 15.2091 78.0381 16.9501 76.0039 16.9501Z" fill="#323333"></path><path d="M62.7926 21.9175H60.5209C60.4565 21.9175 60.3983 21.9559 60.3729 22.0152L55.607 33.1402C55.5614 33.2466 55.6394 33.365 55.755 33.365H57.654C57.7346 33.365 57.8074 33.3168 57.8392 33.2426L58.7537 31.0984C58.7695 31.0613 58.8059 31.0372 58.8462 31.0372H64.4672C64.5076 31.0372 64.5439 31.0613 64.5598 31.0984L65.4743 33.2426C65.506 33.3168 65.5788 33.365 65.6594 33.365H67.5585C67.6741 33.365 67.7521 33.2466 67.7065 33.1402L62.9406 22.0152C62.9151 21.9558 62.8569 21.9175 62.7926 21.9175ZM59.6503 28.9968L61.6105 24.3661C61.6278 24.3253 61.6856 24.3253 61.703 24.3661L63.6632 28.9968C63.6774 29.03 63.653 29.067 63.617 29.067H59.6966C59.6605 29.067 59.6361 29.03 59.6503 28.9968Z" fill="#323333"></path><path d="M92.6558 23.8222V22.0786C92.6558 21.9896 92.5838 21.9175 92.4948 21.9175H84.0946C84.0057 21.9175 83.9336 21.9896 83.9336 22.0786V33.204C83.9336 33.293 84.0057 33.3651 84.0946 33.3651H92.4948C92.5838 33.3651 92.6558 33.293 92.6558 33.204L92.6553 31.4594C92.6553 31.3704 92.5832 31.2982 92.4943 31.2982H86.1934C86.1378 31.2982 86.0927 31.2532 86.0927 31.1975L86.0933 28.597C86.0933 28.5414 86.1383 28.4963 86.1939 28.4963H91.8931C91.982 28.4963 92.0541 28.4241 92.0541 28.3351V26.6885C92.0541 26.5995 91.982 26.5273 91.8931 26.5273H86.1939C86.1383 26.5273 86.0933 26.4822 86.0933 26.4266V24.0843C86.0933 24.0287 86.1383 23.9836 86.1939 23.9836H92.4948C92.5838 23.9834 92.6558 23.9112 92.6558 23.8222Z" fill="#323333"></path><path d="M78.2583 22.0477L75.3484 28.5239C75.3306 28.5634 75.2746 28.5634 75.2567 28.5239L72.3468 22.0477C72.311 21.9684 72.232 21.9175 72.1452 21.9175H69.6434C69.5545 21.9175 69.4824 21.9896 69.4824 22.0786V33.2043C69.4824 33.2933 69.5545 33.3655 69.6434 33.3655H71.3791C71.468 33.3655 71.5401 33.2933 71.5401 33.2043V24.9693C71.5401 24.9151 71.614 24.8992 71.6363 24.9486L74.426 31.1302C74.452 31.188 74.5094 31.225 74.5727 31.225H76.0326C76.0959 31.225 76.1533 31.1879 76.1794 31.1302L78.969 24.9486C78.9913 24.8992 79.0652 24.9151 79.0652 24.9693V33.2043C79.0652 33.2933 79.1373 33.3655 79.2262 33.3655H80.9594C81.0483 33.3655 81.1204 33.2933 81.1204 33.2043V22.0786C81.1204 21.9896 81.0483 21.9175 80.9594 21.9175H78.4601C78.373 21.9175 78.2942 21.9684 78.2583 22.0477Z" fill="#323333"></path><path d="M88.2104 18.7811C89.4181 18.7416 90.6322 18.5933 91.3733 18.1099C92.75 17.2118 93.8311 15.6855 93.8311 13.2031C93.8311 10.8013 92.7837 9.16254 91.5928 8.29327C90.215 7.28763 88.0853 7.34132 87.3508 7.34132H84.0946C84.0057 7.34132 83.9336 7.41347 83.9336 7.50248V18.62C83.9336 18.709 84.0057 18.7811 84.0946 18.7811H88.2104ZM86.0929 9.50806C86.0929 9.45244 86.1379 9.40735 86.1935 9.40735H87.4134C88.8278 9.42496 89.5594 9.57152 90.3793 10.1449C91.6939 11.0641 91.6335 13.2031 91.6335 13.2031C91.6335 13.2031 91.7079 15.3443 90.2862 16.2129C89.7662 16.5306 88.8539 16.7146 88.0661 16.7146H86.1907C86.1353 16.7142 86.0927 16.6693 86.0927 16.6139V9.50806H86.0929Z" fill="#323333"></path><path d="M32.8175 9.28162L18.8468 0.771316C17.9358 0.217068 16.4453 0.216638 15.5346 0.771316L1.56012 9.2813C0.718016 9.79411 0.0290824 11.0092 0.0292969 11.996L0.0296177 28.6484C0.0298322 29.6351 0.717803 30.8504 1.56023 31.3628L15.534 39.8731C16.445 40.4274 17.9361 40.428 18.8469 39.8734L32.8173 31.3631C33.6594 30.8502 34.3481 29.6352 34.3479 28.6485L34.3481 11.996C34.3481 11.0092 33.6598 9.79411 32.8175 9.28162ZM30.6933 29.539L17.7003 37.4517C17.4199 37.6224 16.9611 37.6224 16.6808 37.4517L3.68774 29.539C2.36211 28.7317 2.36211 27.4107 3.68774 26.6034L11.5718 21.8045C11.8522 21.6338 12.311 21.6338 12.5913 21.8045L14.5808 23.0161C14.9598 23.2468 14.9597 23.6243 14.5807 23.8548L8.33664 27.6519C7.95768 27.8825 7.95757 28.2599 8.33653 28.4908L16.3621 33.3784C16.8176 33.6558 17.5632 33.6558 18.0187 33.3784L26.0447 28.4906C26.4235 28.2599 26.4235 27.8825 26.0447 27.6518L24.0614 26.444C23.7809 26.2731 23.3219 26.2733 23.0415 26.4442L17.6997 29.6983C17.4194 29.8692 16.9614 29.8693 16.6809 29.6985L14.6978 28.4908C14.3187 28.2598 14.3185 27.8824 14.6978 27.6519L22.7376 22.7658C23.1929 22.4891 23.9378 22.4883 24.3928 22.7655L30.6932 26.6035C32.0188 27.4107 32.0188 28.7317 30.6933 29.539ZM30.6933 14.0408L17.7003 21.9535C17.4199 22.1242 16.9611 22.1242 16.6808 21.9535L3.68774 14.0408C2.36211 13.2335 2.36211 11.9125 3.68774 11.1052L16.6808 3.19253C16.9611 3.02181 17.4199 3.02181 17.7003 3.19253L19.6917 4.40528C20.0705 4.63602 20.0705 5.01353 19.6916 5.24416L8.33664 12.1538C7.95768 12.3844 7.95757 12.7618 8.33653 12.9927L16.3623 17.8803C16.8178 18.1577 17.5634 18.1577 18.0189 17.8803L26.0449 12.9925C26.4237 12.7618 26.4237 12.3844 26.0449 12.1537L24.0616 10.9459C23.7811 10.775 23.3221 10.7752 23.0417 10.9461L17.7 14.2002C17.4196 14.3711 16.9616 14.3712 16.6811 14.2004L14.6981 12.9927C14.3189 12.7617 14.3187 12.3843 14.6981 12.1538L22.7378 7.2681C23.1931 6.99141 23.938 6.9913 24.393 7.26842L30.6934 11.1053C32.0188 11.9125 32.0188 13.2336 30.6933 14.0408Z" fill="#323333"></path></g><defs><clipPath id="clip0"><rect width="93.8614" height="40" fill="white" transform="translate(0 0.322266)"></rect></clipPath></defs></svg> 