<?xml version="1.0" encoding="UTF-8"?> <svg xmlns="http://www.w3.org/2000/svg" width="64" height="42" viewBox="0 0 64 42" fill="none"><path fill-rule="evenodd" clip-rule="evenodd" d="M56.5304 24.8762L61.508 21.9745L50.6449 2.96439L45.6674 5.86601L56.5304 24.8762ZM36.3369 32.6897L35.2744 31.1999L28.1397 36.385L25.8344 34.7065L32.4733 29.8792L31.4108 28.3893L24.2761 33.581L21.9644 31.9025L28.6033 27.0751L27.5408 25.5853L20.4125 30.7705L18.0815 29.079L29.8847 20.4782L34.727 23.1001C37.6569 24.694 41.1019 23.1131 42.6087 20.3025L42.9822 19.5934L42.3383 19.125L33.5873 12.7622L36.3691 10.7454H46.3564L53.6328 23.4709L37.4315 35.2465L32.0032 39.1956L29.7044 37.5236L36.3369 32.6897ZM18.6997 8.89775H27.9851H28.2749L28.5196 9.0734L32.0354 11.6302L35.5513 9.0734L35.796 8.89775H36.0857H45.3068L43.6454 5.98962L43.1883 5.1894L43.9738 4.72748L50.529 0.90203L51.3146 0.453125L51.7718 1.24684L63.5428 21.8444L64 22.6447L63.2144 23.1066L56.6592 26.932L55.8672 27.3939L55.41 26.6002L54.5407 25.0778L38.494 36.7364L32.5312 41.0693L32.0032 41.4531L31.4752 41.0693L9.45286 25.0713L8.58356 26.5937L8.12637 27.3874L7.33434 26.9255L0.785592 23.1066L0 22.6447L0.457189 21.8444L12.2282 1.24684L12.6854 0.453125L13.4774 0.915042L20.0262 4.73399L20.8118 5.1959L20.3546 5.99613L18.6997 8.89775ZM16.5232 27.9469L29.2794 18.6566L29.7366 18.3182L30.2389 18.5915L35.5835 21.4866C37.3865 22.456 39.4084 21.6753 40.5868 20.1204L27.7018 10.7519H17.6436L10.3672 23.4709L16.5232 27.9469ZM2.48556 21.9745L7.46313 24.8762L18.3262 5.86601L13.3486 2.96439L2.48556 21.9745Z" fill="#08BEB2"></path></svg> 