<?xml version="1.0" encoding="UTF-8"?> <svg xmlns="http://www.w3.org/2000/svg" width="49" height="29" viewBox="0 0 49 29" fill="none"><path d="M40.4501 8.71505C40.2144 7.92068 39.9879 7.12425 39.7669 6.32629C39.5072 5.38627 39.051 4.28266 39.051 3.29443C37.7836 3.89291 36.5539 4.54112 35.1599 4.75292C34.3374 4.87805 33.5761 4.82472 32.7505 4.80882C31.9622 4.79395 31.1846 4.84933 30.3957 4.82215C29.2257 4.78164 28.043 4.73908 26.8827 4.56625C26.1464 4.45702 25.3662 4.5483 24.6733 4.82215C24.134 5.03447 23.8105 5.42319 23.3446 5.72063C22.9553 5.96884 22.5594 6.20782 22.1598 6.4386C21.6624 6.72681 20.8949 6.9545 20.5056 7.36682C19.9622 7.94273 19.4744 8.49556 19.1831 9.24275C18.9147 9.932 18.7034 10.6546 18.2554 11.2546C17.9151 11.7084 17.436 12.0613 17.19 12.5844C16.9191 13.1592 17.3457 13.5377 17.8677 13.7182C18.5218 13.9444 19.2836 13.8603 19.8836 13.5203C21.1057 12.8254 21.6042 11.3741 22.6706 10.5028C23.7278 9.63866 25.5657 9.03301 26.8439 9.71969C27.5093 10.0766 28.0404 10.6377 28.7022 11.0105C29.4217 11.4146 30.1809 11.7372 30.8917 12.1572C32.3877 13.0392 33.722 14.1459 35.2966 14.8952C36.8223 15.6198 38.4643 16.2537 39.6904 17.4665C40.2118 17.0737 40.7297 16.6721 41.2191 16.2383C41.5625 15.9326 41.838 15.5675 42.1855 15.2701C42.4498 15.0434 42.7365 14.8424 43.0478 14.6865C41.6339 13.0941 40.9395 10.7284 40.4501 8.71505Z" fill="#39B4BD"></path><path d="M39.4184 18.869C38.653 17.509 37.2151 16.7618 35.8517 16.1515C34.2914 15.452 32.9224 14.5746 31.509 13.6182C30.2273 12.7515 28.7925 12.0038 27.3929 11.3489C27.1857 11.2514 27.2031 11.1037 27.024 10.9499C26.7811 10.7396 26.526 10.5242 26.2188 10.416C25.5448 10.1801 24.6013 10.4427 23.9829 10.7391C22.7144 11.3468 22.1547 12.6966 21.1903 13.6412C20.1494 14.6623 18.5018 15.1069 17.1528 14.4012C16.767 14.1987 16.3772 13.8274 16.244 13.4069C16.0287 12.7274 16.4425 12.0294 16.8512 11.5181C17.3165 10.9345 17.8013 10.456 18.0656 9.74013C18.3386 9.00319 18.5575 8.29754 19.0264 7.65599C18.1156 7.86368 17.1844 8.21189 16.246 8.20061C15.7031 8.19395 15.2679 8.01548 14.7735 7.84419C14.0321 7.58624 13.2907 7.32778 12.5498 7.06982C12.3187 6.98982 12.308 7.30624 12.2284 7.50829C11.0273 10.5268 9.82613 13.5448 8.6245 16.5633C8.38162 17.1757 8.13773 17.7885 7.89383 18.4008C8.53674 18.5931 9.39906 18.7962 9.93379 19.2342C10.6599 19.828 11.4885 20.3121 12.2855 20.8009C12.458 20.906 12.5493 21.0573 12.6866 20.8819C12.8187 20.7116 12.9835 20.5685 13.1728 20.4644C13.5448 20.2629 13.9836 20.2332 14.3954 20.3044C15.2863 20.4609 16.1476 21.0578 16.6053 21.8419C17.389 21.2578 18.4069 20.9793 19.3682 21.2239C19.7591 21.3229 20.126 21.5265 20.3954 21.8301C20.526 21.9773 20.6311 22.1455 20.7056 22.327C20.801 22.5583 21.2215 22.3583 21.4766 22.3481C22.3675 22.3091 23.5069 22.5512 23.8212 23.506C23.9569 23.9199 23.9135 24.4455 24.1089 24.8312C24.2008 25.0132 24.5003 24.9743 24.6641 24.9804C24.9707 24.9922 25.2397 25.0435 25.5096 25.1938C26.503 25.7497 26.6449 26.9456 26.5199 27.9825C26.4714 28.3841 26.4403 28.3984 26.8337 28.5543C27.0536 28.6425 27.2822 28.7118 27.5138 28.7605C27.8123 28.8246 28.1236 28.8626 28.4287 28.8436C29.4211 28.7815 30.2722 28.2384 30.3309 27.1677C31.1417 27.5682 32.3203 27.8718 33.0668 27.1687C33.6725 26.5969 33.6715 25.6604 33.3929 24.9261C34.4603 25.2615 35.5711 24.9579 36.0865 23.9153C36.4998 23.0778 36.1303 21.8358 35.8222 21.0116C36.8008 21.6465 38.0718 22.3229 39.0352 21.2788C39.6561 20.606 39.7521 19.7137 39.4184 18.869Z" fill="#39B4BD"></path><path d="M15.6527 22.1193C15.2343 21.6147 14.7577 21.3173 14.1072 21.2378C13.6561 21.1839 13.2831 21.2506 13.2117 21.8019C13.1219 22.4942 13.553 23.4999 14.1189 23.9173C14.5286 24.2189 15.6389 24.8055 15.9839 24.0927C16.2686 23.5065 15.9083 22.6332 15.6527 22.1193C15.4353 21.8568 15.7604 22.3378 15.6527 22.1193Z" fill="#39B4BD"></path><path d="M19.9416 23.1829C19.9676 22.6091 19.0839 22.1675 18.6293 22.0849C17.8858 21.9506 17.1164 22.4675 16.724 23.0603C16.0995 24.007 15.9699 25.406 16.701 26.3358C17.3246 27.1281 18.6196 26.7225 19.1869 26.0702C19.586 25.6122 19.812 25.0255 19.935 24.4363C19.9804 24.2168 20.0125 23.9958 20.0294 23.7722C20.0467 23.5445 19.9304 23.3906 19.9416 23.1829C19.9416 23.167 19.935 23.3024 19.9416 23.1829Z" fill="#39B4BD"></path><path d="M23.3533 25.3385C23.1355 24.9288 23.2834 24.357 23.0115 23.9882C22.7992 23.7016 22.4824 23.5313 22.1446 23.4441C21.7619 23.3452 21.2782 23.1718 20.9475 23.4503C20.1153 24.1503 19.6342 25.5867 19.7434 26.6396C19.8321 27.4981 20.471 28.4253 21.4619 28.097C22.0696 27.894 22.5145 27.3519 22.8273 26.8139C23.012 26.4945 23.5115 25.6473 23.3533 25.3385C23.1957 25.0411 23.3574 25.3457 23.3533 25.3385Z" fill="#39B4BD"></path><path d="M24.605 25.8917C24.3356 25.8604 24.0381 25.7645 23.7972 25.9117C23.5666 26.0517 23.4013 26.2855 23.2788 26.5214C23.0446 26.9784 22.8819 27.5158 22.8747 28.0307C22.8655 28.682 23.2028 29.3507 23.8896 29.4241C25.7168 29.6215 26.1729 26.5327 24.605 25.8917C24.506 25.8804 24.9621 26.0378 24.605 25.8917Z" fill="#39B4BD"></path><path d="M44.7867 14.4936C44.7867 14.4936 43.1641 14.3577 42.1503 10.8915C42.1503 10.8915 40.1215 4.56879 40.0531 3.48158C40.0531 3.48158 39.5133 2.12105 40.4593 1.91745L44.1116 0.0820312L48.7784 13.2361C48.7784 13.2361 47.9671 13.6782 44.7867 14.4936Z" fill="#39B4BD"></path><path d="M7.99431 4.09337L11.2405 5.31647C11.2405 5.31647 11.9849 5.45288 11.1726 7.356L6.70951 18.3685C6.70951 18.3685 6.16814 19.2532 3.73325 18.4367L0.959549 17.2818L6.84422 3.68567L7.99431 4.09337Z" fill="#39B4BD"></path></svg> 