<?xml version="1.0" encoding="UTF-8"?> <svg xmlns="http://www.w3.org/2000/svg" width="144" height="85" viewBox="0 0 144 85" fill="none"><path fill-rule="evenodd" clip-rule="evenodd" d="M35.2942 81.0092H29.0394V71.0236H26.9468V80.9145C26.9468 81.5047 27.1583 82.0241 27.5817 82.449C28.0049 82.874 28.5222 83.0863 29.1101 83.0863H35.2236C35.8115 83.0863 36.3287 82.874 36.7521 82.449C37.1752 82.0241 37.3869 81.5047 37.3869 80.9145V71.0236H35.2942V81.0092ZM8.34733 76.0045H2.09274V71.0236H0V83.0863H2.09259V78.0818H8.34733V83.0863H10.4401V71.0236H8.34733V76.0045ZM22.6672 71.0236H14.7901C14.1788 71.0236 13.6614 71.2359 13.2382 71.6609C12.815 72.0858 12.6034 72.6051 12.6034 73.2189V80.9381C12.6034 81.5283 12.815 82.0477 13.2382 82.4725C13.6614 82.8975 14.1787 83.1099 14.7667 83.1099H22.5966C23.208 83.1099 23.7254 82.8975 24.1485 82.4725C24.5719 82.0477 24.7834 81.5283 24.7834 80.9147V73.1954C24.7834 72.6051 24.5719 72.0858 24.1722 71.6609C23.7725 71.2359 23.2786 71.0236 22.6672 71.0236ZM22.7143 81.009H14.7196V73.1008H22.7143V81.009ZM39.997 71.6609C39.5737 72.0858 39.3621 72.6051 39.3621 73.1954V76.0989C39.3621 76.689 39.5737 77.2084 39.997 77.6334C40.3025 77.9401 40.8199 78.1055 41.5254 78.1055H47.3567V80.8437H39.362V83.11H47.6389C48.2267 83.11 48.744 82.8975 49.1674 82.4727C49.5906 82.0477 49.8022 81.5283 49.8022 80.9382V78.0347C49.8022 77.4209 49.5906 76.9015 49.1674 76.4766C48.8617 76.1698 48.3443 76.0281 47.6155 76.0281H41.7839V73.1008H49.7786V71.0236H41.5018C40.9375 71.0236 40.4203 71.2359 39.997 71.6609ZM76.4434 71.0236H73.0338C72.4459 71.0236 71.9287 71.2359 71.5054 71.6373C71.0822 71.2123 70.5883 71.0236 69.9769 71.0236H66.8731C66.2619 71.0236 65.7445 71.2359 65.3214 71.6609C64.898 72.0858 64.6865 72.6051 64.6865 73.2189V83.1099H66.7791V73.4551H70.4943V83.1102H72.587V73.4551H76.4903V83.1102H78.583V73.1954C78.583 72.5816 78.3715 72.0622 77.9717 71.6373C77.5719 71.2359 77.0782 71.0236 76.4434 71.0236ZM52.7415 71.6609C52.3181 72.0858 52.1066 72.6051 52.1066 73.2189V80.9381C52.1066 81.5283 52.3181 82.0477 52.7415 82.4725C53.1647 82.8975 53.682 83.1099 54.2699 83.1099H62.5467V81.0326H54.1992V78.1055H62.5467V76.0045H54.1992V73.1008H62.5467V71.0236H54.2698C53.6584 71.0236 53.1648 71.2359 52.7415 71.6609ZM117.498 82.449C117.922 82.0241 118.11 81.5283 118.11 80.9145V73.1954C118.11 72.6051 117.898 72.0858 117.498 71.6609C117.099 71.2359 116.581 71.0236 115.994 71.0236H108.116C107.505 71.0236 106.988 71.2359 106.564 71.6609C106.141 72.0858 105.93 72.6051 105.93 73.2189V80.9381C105.93 81.5283 106.141 82.0477 106.564 82.4725C106.988 82.8975 107.505 83.1099 108.093 83.1099H114.23L115.641 84.8568H118.086L116.652 82.9919C116.981 82.874 117.24 82.685 117.498 82.449ZM116.041 81.009H114.982L113.454 78.79H110.75L112.466 81.009H108.046V73.1008H116.041L116.041 81.009ZM128.597 81.009H122.342V71.0236H120.25V80.9145C120.25 81.5047 120.461 82.0241 120.884 82.449C121.308 82.874 121.825 83.0863 122.413 83.0863H128.526C129.114 83.0863 129.631 82.874 130.055 82.449C130.478 82.0241 130.69 81.5047 130.69 80.9145V71.0236H128.597L128.597 81.009ZM89.0467 71.0236H82.9331C82.3217 71.0236 81.8045 71.2359 81.3812 71.6609C80.958 72.0858 80.7463 72.6051 80.7463 73.2189V83.1099H82.8391V78.9789H89.1173V83.11H91.2099V73.1954C91.2099 72.5816 90.9984 72.0622 90.575 71.6373C90.1753 71.2359 89.6583 71.0236 89.0467 71.0236ZM89.1173 76.9016H82.8625V73.1008H89.1173V76.9016ZM101.674 78.2707C102.261 78.2707 102.779 78.0582 103.202 77.6334C103.625 77.2084 103.837 76.689 103.837 76.0989V73.1954C103.837 72.5816 103.625 72.0622 103.202 71.6373C102.779 71.2123 102.261 71 101.674 71H93.3968V83.0627H95.4894V78.2473H97.2766L100.921 83.0631H103.86L100.31 78.2473H101.674V78.2707ZM95.4895 76.1933V73.1008H101.744V76.1933H95.4895ZM143.317 73.1008V71.0236H135.04C134.428 71.0236 133.911 71.2359 133.488 71.6609C133.065 72.0858 132.853 72.6051 132.853 73.2189V80.9381C132.853 81.5283 133.065 82.0477 133.488 82.4725C133.911 82.8975 134.428 83.1099 135.016 83.1099H143.293V81.0326H134.969V78.1055H143.317V76.0045H134.969V73.1008H143.317Z" fill="black"></path><path fill-rule="evenodd" clip-rule="evenodd" d="M95.913 22.9306C94.3367 22.4784 91.5623 22.446 91.5623 22.446C91.5623 22.446 90.932 21.0894 90.2698 19.8941C89.6707 18.7959 88.7566 17.6332 88.7566 17.6332C88.7566 17.6332 90.932 15.2751 92.0353 13.5629C94.4945 9.84808 93.5487 8.1685 90.7428 6.42404C88.1576 4.80895 86.392 3.96906 84.7211 3.45219C81.4422 2.45089 79.1093 3.6138 77.123 5.90737C75.6414 7.61919 75.0424 9.10511 75.0424 9.10511C75.0424 9.10511 73.9705 8.97595 73.1191 8.87902C72.205 8.78209 71.3222 8.74985 71.3222 8.74985C71.3222 8.74985 71.1961 6.26263 70.7862 4.51817C70.2188 2.16011 69.7144 -1.36085 65.269 0.545021C61.7382 2.03115 59.3735 3.38791 58.2387 4.58306C56.7884 6.06899 56.5992 7.71632 56.5363 9.5575C56.4415 11.8188 56.883 13.337 56.883 13.337C56.883 13.337 56.0633 14.08 55.275 14.7907C54.613 15.4045 53.9509 16.1472 53.9509 16.1472C53.9509 16.1472 51.5234 14.7585 50.5144 14.4352C49.5686 14.1122 47.4879 13.3692 46.3846 15.3398C45.3125 17.3102 44.146 21.5096 43.9883 23.803C43.7362 27.3562 45.628 29.682 49.0644 30.9096C50.609 31.4587 58.5539 31.2971 58.5539 31.2971C58.5539 31.2971 58.7429 29.0682 60.1302 26.5165C61.5488 23.8352 65.143 20.9603 68.9891 20.8958C76.0828 20.7342 80.4018 26.1286 80.6227 31.9431C80.8434 37.596 76.0828 43.7658 69.2099 43.5397C62.6523 43.3459 59.6258 37.273 59.0899 35.7226C58.7429 34.6889 58.5854 33.2352 58.5854 33.2352C58.5854 33.2352 55.0229 33.2029 52.0593 33.2676C49.4426 33.3321 46.9205 34.5597 45.5019 35.4318C42.7275 37.1439 42.7589 38.5006 43.2634 40.1479C43.9883 42.6354 46.2898 46.0916 47.078 47.1254C48.0869 48.4175 49.0013 49.2251 51.3342 49.128C52.9105 49.0635 54.3607 48.6436 54.3607 48.6436C54.3607 48.6436 54.8652 49.2574 55.8741 50.097C56.7884 50.8724 58.0178 51.8413 58.0178 51.8413C58.0178 51.8413 57.3873 54.1673 57.1666 55.6532C56.9459 57.1714 57.0091 59.0126 58.2387 59.9817C59.2159 60.7569 63.4721 61.7584 65.931 61.9522C68.8947 62.2105 70.1242 61.4029 71.2592 59.9817C72.3942 58.5604 73.1191 55.5563 73.1191 55.5563C73.1191 55.5563 73.6553 55.4916 75.1055 55.2009C76.3349 54.9748 77.2492 54.6842 77.2492 54.6842C77.2492 54.6842 78.5734 57.2359 80.5281 59.5939C82.0098 61.3707 83.6493 61.6614 85.6669 60.5308C87.1486 59.6909 90.1123 56.7192 91.4362 55.1364C93.6116 52.5522 93.0126 49.7093 92.2874 47.9006C91.594 46.1886 90.3959 44.4121 90.3959 44.4121C90.3959 44.4121 90.8689 43.7336 91.4992 42.3446C92.193 40.8264 92.3506 40.1804 92.3506 40.1804C92.3506 40.1804 95.1879 40.471 98.0255 40.4065C101.304 40.3418 101.966 38.6622 101.998 36.0779C102.029 34.3981 101.714 30.4896 101.273 28.6482C100.264 24.772 98.7821 23.7705 95.913 22.9306Z" fill="black"></path></svg> 