<svg width="689" height="671" viewBox="0 0 689 671" fill="none" xmlns="http://www.w3.org/2000/svg">
<circle cx="344.261" cy="335.266" r="234.436" fill="#C4EBED"/>
<path d="M607.118 266.577C622.322 320.606 619.199 377.912 598.206 430.106C577.212 482.301 539.448 526.644 490.44 556.642C441.432 586.64 383.754 600.716 325.852 596.807C267.95 592.898 212.868 571.209 168.669 534.92C124.471 498.63 93.4778 449.646 80.2241 395.14C66.9704 340.635 72.1509 283.468 95.0081 232.007C117.865 180.546 157.2 137.493 207.257 109.152C257.315 80.8107 315.464 68.6726 373.19 74.5162" stroke="#C4EBED"/>
<path d="M226.884 61.8012C274.73 42.6056 326.83 35.4574 378.312 41.026C429.794 46.5946 478.972 64.6978 521.246 93.6407C563.52 122.583 597.509 161.42 620.034 206.515C642.558 251.61 652.884 301.491 650.045 351.493" stroke="#C4EBED"/>
<path d="M497.536 590.305C452.701 615.751 402.032 629.831 350.269 631.226C298.505 632.621 247.342 621.285 201.564 598.281C155.786 575.277 116.89 541.356 88.5142 499.694C60.1381 458.032 43.2081 409.989 39.307 360.059" stroke="#C4EBED"/>
</svg>
