<svg width="38" height="38" viewBox="0 0 38 38" fill="none" xmlns="http://www.w3.org/2000/svg">
<g clip-path="url(#clip0)">
<path d="M19 5.47358C19.6555 5.47358 20.1875 4.94158 20.1875 4.28608V1.1875C20.1875 0.532 19.6555 0 19 0C18.3445 0 17.8125 0.532 17.8125 1.1875V4.28608C17.8125 4.94158 18.3445 5.47358 19 5.47358Z" fill="#39B4BD"/>
<path d="M8.59586 9.78334C8.89986 9.78334 9.20385 9.66776 9.43502 9.43501C9.89894 8.97109 9.89894 8.21901 9.43502 7.75509L7.24369 5.56376C6.77977 5.09984 6.02769 5.09984 5.56377 5.56376C5.09985 6.02767 5.09985 6.77976 5.56377 7.24367L7.75511 9.43501C7.98786 9.66617 8.29186 9.78334 8.59586 9.78334Z" fill="#39B4BD"/>
<path d="M1.18754 20.1875H4.28613C4.94163 20.1875 5.47363 19.6555 5.47363 19C5.47363 18.3445 4.94163 17.8125 4.28613 17.8125H1.18754C0.532039 17.8125 3.8147e-05 18.3445 3.8147e-05 19C3.8147e-05 19.6555 0.532039 20.1875 1.18754 20.1875Z" fill="#39B4BD"/>
<path d="M6.40452 32.7833C6.70852 32.7833 7.01252 32.6678 7.24369 32.435L9.43502 30.2437C9.89894 29.7798 9.89894 29.0277 9.43502 28.5638C8.9711 28.0998 8.21902 28.0998 7.75511 28.5638L5.56377 30.7551C5.09985 31.219 5.09985 31.9711 5.56377 32.435C5.79652 32.6678 6.10052 32.7833 6.40452 32.7833Z" fill="#39B4BD"/>
<path d="M31.5954 32.7833C31.8994 32.7833 32.2034 32.6678 32.4345 32.435C32.8984 31.9711 32.8984 31.219 32.4345 30.7551L30.2432 28.5638C29.7793 28.0998 29.0272 28.0998 28.5633 28.5638C28.0994 29.0277 28.0994 29.7798 28.5633 30.2437L30.7546 32.435C30.9874 32.6678 31.2914 32.7833 31.5954 32.7833Z" fill="#39B4BD"/>
<path d="M33.7139 20.1875H36.8125C37.468 20.1875 38 19.6555 38 19C38 18.3445 37.468 17.8125 36.8125 17.8125H33.7139C33.0584 17.8125 32.5264 18.3445 32.5264 19C32.5264 19.6555 33.0584 20.1875 33.7139 20.1875Z" fill="#39B4BD"/>
<path d="M29.404 9.78334C29.708 9.78334 30.012 9.66776 30.2432 9.43501L32.4345 7.24367C32.8984 6.77976 32.8984 6.02767 32.4345 5.56376C31.9706 5.09984 31.2185 5.09984 30.7546 5.56376L28.5633 7.75509C28.0994 8.21901 28.0994 8.97109 28.5633 9.43501C28.7976 9.66617 29.1 9.78334 29.404 9.78334Z" fill="#39B4BD"/>
<path d="M14.25 33.25V35.2292C14.25 36.7492 15.5008 38 17.0208 38H20.9792C22.3092 38 23.75 36.9867 23.75 34.77V33.25H14.25Z" fill="#39B4BD"/>
<path d="M12.0176 10.3868C14.6142 8.28094 18.0342 7.45761 21.3751 8.17011C25.5709 9.04094 28.9751 12.4609 29.8459 16.6568C30.7326 20.9634 29.1176 25.2384 25.6659 27.8509C24.7317 28.5476 24.0826 29.6243 23.8609 30.8751V30.8909C23.8292 30.8751 23.7817 30.8751 23.7501 30.8751H14.2501C14.2184 30.8751 14.2026 30.8751 14.1709 30.8909V30.8751C13.9492 29.6718 13.2367 28.5634 12.1442 27.7084C9.46841 25.5868 7.91675 22.4201 7.91675 19.0001C7.91675 15.6434 9.40508 12.5084 12.0176 10.3868ZM13.0626 19.7918C13.7117 19.7918 14.2501 19.2534 14.2501 18.6043C14.2501 16.1976 16.1976 14.2501 18.6042 14.2501C19.2534 14.2501 19.7917 13.7118 19.7917 13.0626C19.7917 12.4134 19.2534 11.8751 18.6042 11.8751C14.8992 11.8751 11.8751 14.8993 11.8751 18.6043C11.8751 19.2534 12.4134 19.7918 13.0626 19.7918Z" fill="#39B4BD"/>
<path d="M23.8608 30.875H23.75C23.7817 30.875 23.8292 30.875 23.8608 30.8908V30.875Z" fill="#39B4BD"/>
<path d="M14.1708 30.875V30.8908C14.2025 30.875 14.2183 30.875 14.25 30.875H14.1708Z" fill="#39B4BD"/>
</g>
<defs>
<clipPath id="clip0">
<rect width="38" height="38" fill="white" transform="matrix(-1 0 0 1 38 0)"/>
</clipPath>
</defs>
</svg>
