<?xml version="1.0" encoding="UTF-8"?> <svg xmlns="http://www.w3.org/2000/svg" width="178" height="37" viewBox="0 0 178 37" fill="none"><path d="M159.224 31.4151C156.886 31.4151 153.621 31.0844 151.617 30.6067C151.617 30.6067 152.211 28.5124 152.767 25.9771C152.767 25.9771 154.66 26.4548 156.255 26.4548C158.148 26.4548 159.224 25.9037 159.224 24.6544C159.224 23.5521 158.704 23.1112 155.587 21.3843C153.51 20.2453 151.691 18.4081 151.691 15.6524C151.691 11.3167 155.476 9.07546 161.042 9.07546C163.899 9.07546 166.163 9.70009 166.942 9.95731C166.942 9.95731 166.348 12.0884 165.94 14.0725C165.94 14.0725 165.05 13.852 164.084 13.852C162.934 13.852 161.858 14.3297 161.858 15.4687C161.858 16.424 163.157 17.1589 165.013 18.2244C167.127 19.4737 169.428 21.0536 169.428 24.2869C169.428 29.2472 165.124 31.4151 159.224 31.4151ZM148.463 30.6434L134.659 31.0109L134.251 9.92052L148.463 9.55308C148.574 11.9414 148.871 14.8808 148.871 14.8808L143.008 15.285L142.934 18.2612L148.166 18.1877L148.092 22.6336L142.823 22.7805L142.859 25.8669L149.13 25.9037C148.649 28.9533 148.463 30.6434 148.463 30.6434ZM130.281 30.7537L122.228 30.9741L122.043 21.127C120.151 23.8461 118.406 26.3445 116.477 29.2472L116.143 29.3207L110.985 21.6048L110.614 30.7537C110.614 30.7537 107.757 30.3863 105.383 30.2026L105.048 10.0675C105.048 10.0675 110.355 9.7736 113.248 9.55308C115.327 12.9702 118.147 18.1877 118.147 18.1877C120.077 14.5868 121.895 10.1777 121.895 10.1777C121.895 10.1777 126.459 9.99402 130.8 9.51637C130.837 9.51637 130.429 23.4419 130.281 30.7537ZM94.9181 31.0844C94.4727 29.7249 93.8051 27.8143 93.8051 27.8143L86.8291 28.1817C86.8291 28.1817 86.2354 29.8351 85.9015 30.7537L81.4858 29.9454L89.3152 9.95731C92.3579 9.70009 94.9181 9.36936 94.9181 9.36936L103.268 30.0556C99.26 30.4965 94.9181 31.0844 94.9181 31.0844ZM71.467 31.1212C64.7508 31.1212 58.9621 28.1082 58.9621 20.2453C58.9621 12.7865 66.1608 9.36936 72.506 9.36936C74.6582 9.36936 76.3279 9.62659 76.9588 9.7368C76.9588 9.7368 76.2909 12.8232 76.0311 15.0645C76.0311 15.0645 75.0664 14.8808 74.3242 14.8441C70.4281 14.8074 67.7193 15.7259 67.7193 20.6127C67.7193 24.1032 69.2778 26.1608 72.9512 26.1608C72.9512 26.1608 72.9512 22.8173 72.8029 20.6862C75.994 20.2086 79.4078 19.4369 79.4078 19.4369C79.482 25.3525 79.7417 29.5779 79.7417 29.5779C78.4059 30.2026 75.289 31.1212 71.467 31.1212ZM173.844 6.20953L67.3482 6.24626L68.7953 2.82919C68.7953 2.82919 63.4149 1.46971 58.9621 0L53.6189 15.2115C52.283 12.0149 50.9471 8.45084 50.1679 6.35649L42.3755 7.20158C44.5277 11.0963 49.9824 22.1558 51.3182 25.3525C51.2811 29.6514 50.9843 32.848 50.7616 35.8977L60.1124 37L60.1496 34.3545H172.397C174.474 28.2919 178 19.2165 178 19.2165L173.844 6.20953ZM90.3542 18.1142L92.3951 23.4787L88.3876 23.8093L90.3542 18.1142ZM23.4141 26.0874C23.4141 32.5908 17.7369 35.4568 9.90742 35.4568C6.82759 35.4568 4.30434 35.3098 1.00187 34.6117C1.66979 31.8192 2.11507 28.3654 2.11507 28.3654C2.67166 28.5124 4.34145 28.7695 6.04835 28.8431C8.53448 28.9533 9.90742 28.2184 9.90742 26.565C9.90742 25.0953 9.23951 24.5075 5.12069 22.2293C2.37481 20.7229 0 18.3347 0 14.6603C0 8.92849 4.97226 5.95233 12.3194 5.95233C16.1042 5.95233 19.2582 6.42998 20.0746 6.57695C19.0356 10.1777 18.7759 12.4925 18.7759 12.4925C18.7759 12.4925 17.9595 12.2721 16.3268 12.2721C14.8425 12.2721 13.3954 12.8967 13.3954 14.4031C13.3954 15.6524 15.1023 16.6077 17.5884 18.0775C20.3714 19.7308 23.4141 21.8252 23.4141 26.0874ZM32.5424 22.7805L33.2103 18.2612L34.8059 22.3764L32.5424 22.7805ZM29.7965 11.721L24.8614 31.8559L30.8355 31.9662L31.6518 27.557L36.6983 26.8957C36.6983 26.8957 38.1826 30.7537 38.6279 31.7457C40.9655 31.4886 47.1623 30.7537 47.1623 30.7537L39.2958 10.0308C35.4367 10.9861 32.8392 11.28 29.7965 11.721Z" fill="#4B4B4B"></path></svg> 