<svg width="200" height="66" fill="none" xmlns="http://www.w3.org/2000/svg"><g clip-path="url(#a)"><path d="M36.44 5.821A7.986 7.986 0 0 1 34.971.424a27.923 27.923 0 0 0-5.133 1.622 35.334 35.334 0 0 0 6.6 3.775zM43.473 7.155a10.021 10.021 0 0 0 3.606 1.432 35.846 35.846 0 0 0 9.707-.374 35.022 35.022 0 0 0 3.34-.767A28.033 28.033 0 0 0 38.92-.126a10.073 10.073 0 0 0 4.553 7.281z" fill="#08BEB2"/><path d="M60.277 7.586a25.276 25.276 0 0 1-3.985 2.319 25.113 25.113 0 0 1-6.726 2.046 25.464 25.464 0 0 1-5.602.248 25.223 25.223 0 0 1-17.327-8.538c-8.325 4.887-13.915 13.93-13.915 24.282 0 15.54 12.596 28.136 28.134 28.136s28.133-12.597 28.133-28.136c0-8.008-3.344-15.233-8.712-20.357z" fill="#08BEB2"/><path d="M57.213 29.414c-.085-.026-.17-.05-.256-.074-.096-.027-.19-.055-.288-.08a10.098 10.098 0 0 0-2.481-.308c-1.485 0-2.382.246-4.335.87l-4.408 1.385-1.519.476a61.348 61.348 0 0 0 2.56-6.197 60.993 60.993 0 0 0 1.073-3.362 25.387 25.387 0 0 0 6.548-7.385 46.188 46.188 0 0 1-7.4.602h-.047c-1.05 0-2.092-.038-3.125-.107a45.81 45.81 0 0 1-15.552-3.838 38.987 38.987 0 0 0 14.216 7.565 17.23 17.23 0 0 1-9.239 8.408 69.186 69.186 0 0 0-16.121 6.097c-.535.282-1.066.571-1.592.867-.12.068-.242.134-.361.202-.091.052-.183.102-.273.154L4.426 32.45a5.76 5.76 0 0 0 8.505 3.717A7.987 7.987 0 0 0 11 40.6l-.006.006c-.007.125-.017.25-.024.377l-.003.052c-.018.336-.029.674-.042 1.012-.034.9-.057 1.804-.057 2.713 0 1.323.04 2.636.113 3.941A35.364 35.364 0 0 0-.206 65.689a61.214 61.214 0 0 0 2.79-.594 22.88 22.88 0 0 1 14.847-15.12 5.937 5.937 0 0 0 2.095-1.665c.115-.144.212-.303.312-.459.586-.905 1.502-2.128 2.356-3.014a17.737 17.737 0 0 1 5.54-3.892c1.51-.673 4.162-1.26 4.827-1.377.665-.118 1.916-.307 3.016-.672 1.1-.364 4.06-1.835 4.06-1.835l1.872-.834 3.617-1.613 5.797-2.583a11.899 11.899 0 0 1 6.755-.877l3.434.559 1.84.308 1.901-.443-7.641-2.163zM96.379 39.184v10.123c0 1.882-.456 3.273-1.369 4.17-.912.899-2.288 1.347-4.127 1.347a9.035 9.035 0 0 1-2.954-.477c-.927-.319-1.672-.76-2.237-1.325l.586-.826a5.982 5.982 0 0 0 2.042 1.217c.796.289 1.644.434 2.541.434 1.506 0 2.621-.358 3.346-1.075.724-.717 1.086-1.83 1.086-3.335v-1.912a4.816 4.816 0 0 1-1.933 1.912c-.826.449-1.753.673-2.78.673-1.058 0-2.018-.235-2.879-.706a5.194 5.194 0 0 1-2.03-1.966c-.493-.84-.74-1.788-.74-2.846 0-1.057.247-2.006.74-2.846a5.124 5.124 0 0 1 2.03-1.955c.861-.463 1.82-.695 2.878-.695 1.043 0 1.984.232 2.824.695a4.748 4.748 0 0 1 1.933 1.955v-2.563h1.043zm-3.324 9.373a4.178 4.178 0 0 0 1.662-1.607c.398-.688.598-1.474.598-2.357 0-.884-.2-1.666-.598-2.346a4.204 4.204 0 0 0-1.662-1.597c-.71-.384-1.506-.576-2.389-.576-.883 0-1.676.192-2.378.576a4.221 4.221 0 0 0-1.651 1.597c-.398.68-.597 1.462-.597 2.346 0 .883.198 1.669.597 2.357a4.193 4.193 0 0 0 1.65 1.607c.703.384 1.496.576 2.38.576.882 0 1.679-.192 2.388-.576zM111.518 40.172c.753.717 1.13 1.77 1.13 3.16v7.191h-1.043v-2.02a3.772 3.772 0 0 1-1.585 1.553c-.696.37-1.528.554-2.498.554-1.26 0-2.256-.297-2.987-.89-.731-.594-1.097-1.377-1.097-2.347 0-.941.337-1.705 1.01-2.292.673-.586 1.748-.88 3.226-.88h3.888v-.912c0-1.057-.287-1.86-.858-2.411-.573-.55-1.409-.826-2.509-.826-.753 0-1.474.13-2.161.391-.688.26-1.271.608-1.749 1.043l-.543-.782c.565-.507 1.245-.902 2.042-1.184a7.417 7.417 0 0 1 2.498-.424c1.405 0 2.483.359 3.236 1.076zm-1.444 8.896c.659-.435 1.155-1.065 1.488-1.89v-2.13h-3.867c-1.115 0-1.922.204-2.421.609-.5.406-.75.963-.75 1.673 0 .738.275 1.322.826 1.748.55.428 1.325.641 2.324.641.941 0 1.741-.217 2.4-.651zM138.03 40.335c.803.825 1.205 2.013 1.205 3.562v6.626h-1.086v-6.539c0-1.274-.311-2.245-.934-2.91-.623-.666-1.491-1-2.606-1-1.275 0-2.285.399-3.031 1.195-.745.797-1.118 1.868-1.118 3.215v6.04h-1.086v-6.54c0-1.274-.312-2.244-.934-2.91-.623-.666-1.492-1-2.607-1-1.274 0-2.284.399-3.03 1.195-.746.797-1.119 1.868-1.119 3.215v6.04h-1.086v-11.34h1.043v2.432a4.186 4.186 0 0 1 1.683-1.857c.746-.441 1.633-.662 2.661-.662s1.901.232 2.618.695c.717.464 1.227 1.144 1.531 2.042a4.424 4.424 0 0 1 1.77-1.999c.804-.492 1.741-.738 2.813-.738 1.405 0 2.509.412 3.313 1.238zM156.786 45.114h-9.753c.029.884.253 1.67.673 2.357.42.688.989 1.22 1.706 1.597.716.377 1.523.565 2.422.565.738 0 1.422-.134 2.052-.402a4.002 4.002 0 0 0 1.575-1.184l.63.717a4.845 4.845 0 0 1-1.857 1.368 6.097 6.097 0 0 1-2.422.478c-1.129 0-2.136-.246-3.019-.739a5.352 5.352 0 0 1-2.075-2.042c-.499-.869-.749-1.86-.749-2.976 0-1.1.235-2.089.706-2.965a5.2 5.2 0 0 1 1.944-2.053c.825-.492 1.752-.739 2.78-.739 1.028 0 1.951.243 2.77.728a5.177 5.177 0 0 1 1.933 2.032c.47.868.706 1.853.706 2.954l-.022.304zm-7.537-4.53a4.064 4.064 0 0 0-1.532 1.5 4.894 4.894 0 0 0-.662 2.183h8.688c-.043-.811-.26-1.535-.651-2.173a4.248 4.248 0 0 0-1.542-1.498c-.638-.362-1.354-.544-2.151-.544-.796 0-1.513.178-2.15.533zM163.91 50.197c-.825-.275-1.47-.622-1.932-1.043l.499-.869c.463.392 1.061.717 1.792.978.731.26 1.495.391 2.292.391 1.144 0 1.987-.188 2.531-.565.542-.376.814-.898.814-1.564 0-.478-.149-.854-.446-1.13a2.74 2.74 0 0 0-1.096-.608 18.702 18.702 0 0 0-1.803-.413c-.898-.159-1.622-.332-2.172-.52a3.396 3.396 0 0 1-1.412-.913c-.391-.42-.587-1-.587-1.738 0-.898.373-1.64 1.119-2.227.746-.586 1.806-.88 3.182-.88.724 0 1.441.102 2.15.305.71.202 1.289.47 1.738.803l-.499.87a5.2 5.2 0 0 0-1.586-.761 6.464 6.464 0 0 0-1.825-.261c-1.057 0-1.853.196-2.389.587-.536.39-.804.905-.804 1.542 0 .508.152.902.456 1.184.305.283.677.493 1.119.63.442.138 1.061.287 1.857.446.883.159 1.597.33 2.14.51a3.261 3.261 0 0 1 1.379.88c.376.405.565.963.565 1.673 0 .941-.391 1.694-1.173 2.259-.782.564-1.883.847-3.302.847a8.179 8.179 0 0 1-2.607-.413zM87.955 32.952h-3.173V4.89h5.155v17.697l7.629-9.673h5.886l-6.655 8.36 6.655 11.68h-5.886l-4.068-7.293-5.543 7.292zM112.842 28.04c.2.063.4.104.6.122.2.019.4.029.6.029.5 0 .981-.069 1.443-.207a5.208 5.208 0 0 0 1.303-.59 4.916 4.916 0 0 0 1.865-2.165l3.749 3.768a10.114 10.114 0 0 1-1.64 1.818c-.619.537-1.287.993-2.006 1.368a10.05 10.05 0 0 1-2.268.853c-.794.194-1.609.29-2.446.29a10.132 10.132 0 0 1-7.245-2.98c-.931-.937-1.665-2.053-2.202-3.346-.537-1.294-.806-2.715-.806-4.265 0-1.587.269-3.036.806-4.349.537-1.312 1.271-2.43 2.202-3.355a9.97 9.97 0 0 1 3.262-2.156 10.35 10.35 0 0 1 3.983-.769c.837 0 1.656.1 2.456.3.799.2 1.558.487 2.277.863a10.402 10.402 0 0 1 3.664 3.205l-9.597 11.566zm2.625-10.554a2.965 2.965 0 0 0-.703-.168 6.81 6.81 0 0 0-.722-.038c-.7 0-1.359.128-1.978.384a4.71 4.71 0 0 0-1.611 1.097 5.158 5.158 0 0 0-1.078 1.716c-.263.668-.394 1.421-.394 2.258 0 .188.01.4.028.638a7.965 7.965 0 0 0 .253 1.425c.063.224.144.424.244.6l5.961-7.912zM130.443 32.952l-7.648-20.077h5.83l4.386 12.522 4.367-12.522h5.849l-7.648 20.077h-5.136zM159.703 30.609c-.412.375-.853.728-1.322 1.059a9.916 9.916 0 0 1-1.471.862 9.033 9.033 0 0 1-1.584.58 6.46 6.46 0 0 1-1.658.217c-1.238 0-2.4-.219-3.487-.656a8.61 8.61 0 0 1-2.858-1.865c-.819-.806-1.463-1.787-1.931-2.944-.469-1.155-.703-2.452-.703-3.89V12.876h5.098v11.098c0 .675.104 1.278.31 1.809.206.531.484.978.834 1.34.35.362.759.637 1.228.825.468.187.971.28 1.509.28a3.19 3.19 0 0 0 1.49-.365 4.176 4.176 0 0 0 1.227-.965c.35-.4.625-.853.825-1.359.2-.506.3-1.028.3-1.565V12.875h5.117v20.077l-2.924-2.343zM171.643 32.952h-5.117V12.875l2.924 2.38a8.943 8.943 0 0 1 2.812-1.733 8.955 8.955 0 0 1 3.261-.61h4.517v5.1h-4.517a3.877 3.877 0 0 0-2.755 1.124 3.82 3.82 0 0 0-.825 1.238c-.2.475-.3.98-.3 1.518v11.06zM197.023 30.609c-.413.375-.853.728-1.322 1.059a9.916 9.916 0 0 1-1.471.862 9.062 9.062 0 0 1-1.584.58 6.462 6.462 0 0 1-1.659.217 9.255 9.255 0 0 1-3.486-.656 8.624 8.624 0 0 1-2.859-1.865c-.818-.806-1.461-1.787-1.93-2.944-.469-1.155-.703-2.452-.703-3.89V12.876h5.098v11.098c0 .675.103 1.278.31 1.809.206.531.484.978.834 1.34.349.362.759.637 1.228.825.468.187.971.28 1.509.28.525 0 1.021-.121 1.49-.365a4.19 4.19 0 0 0 1.227-.965c.35-.4.625-.853.825-1.359.2-.506.3-1.028.3-1.565V12.875h5.117v20.077l-2.924-2.343z" fill="#fff"/></g><defs><clipPath id="a"><path fill="#fff" d="M0 0h200v66H0z"/></clipPath></defs></svg>