<?xml version="1.0" encoding="UTF-8"?> <svg xmlns="http://www.w3.org/2000/svg" width="170" height="56" viewBox="0 0 170 56" fill="none"><path d="M21.6869 44.8059L21.6252 44.7608L21.6951 43.8542L21.9006 44.0347C22.024 44.1411 23.1258 45.0891 24.7209 45.5936C25.5061 45.8355 26.3078 45.9628 27.0972 45.9628C28.5566 45.9628 30.0285 45.5359 31.4714 44.695C34.0286 43.2182 35.1264 40.4816 35.5949 38.4465C36.1048 36.2393 36.006 34.3437 36.006 34.3276V34.3233L35.9652 5.99415V5.99008V5.98601C35.9652 5.93681 36.0432 4.72246 36.8121 4.11936C37.3466 3.69252 37.9591 3.46689 38.2182 3.38495V2.47394H31.5704V3.38478C31.8376 3.46672 32.479 3.69235 33.0176 4.11919C33.6835 4.64426 33.8317 5.6289 33.8604 5.91611V5.92443V5.9285C33.8892 15.0202 33.9262 35.575 33.9181 36.4448C33.9057 38.2088 33.4123 39.6406 32.4462 40.6953C31.2129 42.0449 29.8603 42.3282 28.9476 42.3282H28.9189C27.8458 42.324 26.596 41.7782 25.6545 40.9127C24.6556 39.9852 24.3307 38.0488 24.3267 37.5892L24.224 5.9285V5.92019V5.91611C24.2774 5.46078 24.4214 4.82476 24.7707 4.33651C25.2887 3.6267 26.1397 3.42159 26.4481 3.36425V2.43288H17.1275V3.31081C17.4029 3.36001 18.0566 3.53645 18.6446 4.11088C19.2449 4.68531 19.3681 5.5797 19.3887 6.12139H19.3927V6.21978L19.3968 37.9916H18.698V6.22386C18.6898 5.89151 18.6281 5.07906 18.1759 4.64018C17.6373 4.11919 17.0083 4.02877 16.9385 4.02063C16.6425 3.99195 16.4245 3.73765 16.4245 3.43398V2.28512C16.4245 1.96109 16.6753 1.69847 16.9878 1.69847H26.5875C26.9 1.69847 27.1548 1.96109 27.1548 2.28512V3.49132C27.1548 3.79889 26.9328 4.0493 26.6409 4.07797C26.5504 4.08628 25.7528 4.20113 25.3336 4.77539C25.0869 5.11995 24.9759 5.60006 24.9307 5.94478L25.0294 37.5852C25.0335 38.0732 25.3749 39.6654 26.1271 40.3667C26.9289 41.1054 28.0265 41.5894 28.9228 41.5933H28.9515C30.0779 41.5933 31.0811 41.1215 31.9321 40.1903C32.7585 39.2874 33.2025 37.9869 33.2148 36.4361C33.2229 35.5869 33.186 15.0649 33.1531 5.95259V5.94852C33.1284 5.74341 33.0133 5.0336 32.5899 4.70126C32.0348 4.2583 31.2948 4.06541 31.2865 4.06541C31.0398 3.99569 30.863 3.76174 30.863 3.49505V2.33024C30.863 2.01029 31.118 1.7436 31.4303 1.7436H38.3619C38.6701 1.7436 38.9251 2.01029 38.9251 2.33024V3.49539C38.9251 3.76208 38.7483 3.99603 38.5016 4.06575C38.4892 4.06575 37.7985 4.25864 37.2353 4.7016C36.7872 5.05447 36.6843 5.82976 36.668 5.99822V6.66681C36.6885 17.2068 36.7214 34.8981 36.7214 35.0004C36.7132 35.8374 36.635 37.1461 36.2979 38.6151C35.5866 41.7331 34.0367 44.0551 31.8167 45.3395C30.279 46.2337 28.6839 46.6894 27.0764 46.6894C26.2007 46.6894 25.3332 46.5538 24.4987 46.2914C23.0353 45.8237 22.0446 45.0976 21.6869 44.8059ZM21.2881 39.415L20.0794 53.8855C20.0506 54.189 19.804 54.423 19.5121 54.423L1.79265 54.4724C1.64458 54.4724 1.22944 54.4846 1.22944 53.8855L1.23352 52.4539C1.23352 52.1543 1.45146 51.9039 1.73927 51.871C1.87493 51.8504 2.56564 51.711 3.10012 50.9028C3.35087 50.5253 3.39201 49.6311 3.38793 49.4667L3.30123 5.96938C3.29715 5.89966 3.25601 5.26381 2.81605 4.74689C2.4378 4.30377 1.94854 4.16839 1.62384 4.07814L1.47577 4.03708C1.23318 3.96736 1.06879 3.74579 1.06879 3.47503V3.22887C1.06879 2.88822 1.06471 2.31803 1.06471 2.31803C1.06471 2.15805 1.12217 2.01453 1.2291 1.90375C1.33603 1.79296 1.4841 1.73138 1.632 1.73138H11.6923C12.0047 1.73138 12.2596 1.994 12.2596 2.31803V3.50795C12.2596 3.79923 12.0622 4.04132 11.7868 4.08645C11.7087 4.10681 10.9975 4.25457 10.6109 4.63611C10.1463 5.08738 10.0106 5.70694 10.0065 5.77666C10.0065 5.82993 10.0025 20.6779 10.0025 33.3144L9.99838 50.7223C9.99838 50.7223 12.6871 50.7265 13.1641 50.7265C13.2792 50.7265 14.3113 50.6977 15.4212 49.7583C15.9351 49.3315 16.2969 48.8597 16.4983 48.3591L16.523 48.3017C16.5969 48.1294 16.8108 47.6124 16.9012 47.1162C16.967 46.7961 17.9209 39.3617 17.9291 39.2878C17.9659 38.9926 18.2087 38.7753 18.4923 38.7753L20.7247 38.7792C20.885 38.7792 21.0372 38.849 21.1441 38.968C21.251 39.0869 21.3044 39.2509 21.2881 39.415ZM26.8588 47.6739C28.2197 47.6739 29.3174 47.3909 30.004 47.1447C32.9394 46.1149 35.0649 44.2892 36.3106 41.7332C37.0835 40.1292 37.5071 38.3035 37.5892 36.1372C37.7414 32.1657 37.7454 6.40453 37.7454 6.02299C37.7454 6.02299 37.7907 5.60057 37.9222 5.4528C38.2182 5.11639 39.5544 4.55841 39.5544 4.55841C39.8176 4.48462 39.9738 4.15651 39.9738 3.86913V1.25128C39.9738 1.06263 39.9121 0.886191 39.8052 0.779652C39.6901 0.656487 39.5338 0.586761 39.3695 0.586761H30.4232C30.2629 0.586761 30.1067 0.656487 29.9916 0.779652C29.8846 0.886191 29.8229 1.06263 29.8229 1.25128V4.29155C29.8229 4.57063 30.0079 4.82493 30.2751 4.89873L30.2875 4.9028L30.2957 4.9067C31.6154 5.11198 31.932 5.68217 32.0183 6.21554C32.0183 6.21554 32.4911 36.0098 32.0183 37.7821C32.0183 37.7821 32.0183 37.7904 32.0183 37.7864C32.0183 37.7821 32.0183 37.7821 32.0183 37.7821C31.8621 38.3978 31.5661 39.0458 31.1015 39.5383C30.5383 40.1374 29.8105 40.4409 28.9349 40.4409C28.5896 40.4409 27.7137 40.363 27.0026 39.6038C26.3818 38.9513 26.0817 37.9832 26.1023 36.7317V36.7278C26.1023 36.4938 26.1023 31.1891 26.1147 7.27398C26.1147 6.5109 26.1147 5.97345 26.1147 5.97345C26.1229 5.67385 26.1353 5.57139 26.2915 5.45246C26.5054 5.29248 26.9657 5.13233 27.8866 4.9028L27.8907 4.89873C28.158 4.82476 28.3429 4.57046 28.3429 4.29155V1.25128C28.3429 1.06263 28.2771 0.886191 28.1785 0.779652C28.0634 0.656487 27.9031 0.586761 27.7386 0.586761H16.1119C15.9516 0.586761 15.7913 0.656487 15.6762 0.779652C15.5735 0.886191 15.5159 1.06263 15.5159 1.25128V4.29155C15.5159 4.57063 15.7009 4.82493 15.964 4.89873V4.9028H15.9681C16.8849 5.1325 17.3493 5.29248 17.5591 5.45246C17.7194 5.57139 17.7278 5.67402 17.74 5.97345L17.7441 37.6549C17.7441 37.6549 17.0082 37.6797 16.9794 38.2049C16.5519 40.5803 16.3751 42.4962 16.2393 44.0389C16.0337 46.193 15.9064 47.6165 15.2526 48.4495C14.6277 49.2453 13.4888 49.5654 11.2152 49.5817V5.74375C11.2317 5.62058 11.2727 5.52643 11.3468 5.44415C11.5688 5.23904 12.3622 5.10791 12.7898 5.03801L12.8185 5.0297C13.1145 4.9805 13.3243 4.71381 13.3283 4.40607V1.26366C13.3283 0.890263 13.0324 0.58252 12.6747 0.58252H0.60027C0.43996 0.58252 0.27965 0.656486 0.16456 0.77541C0.06171 0.88212 0 1.05855 0 1.2472V4.29138C0 4.57046 0.18496 4.82476 0.4522 4.89856L0.45628 4.90263C1.37717 5.13234 1.83753 5.29639 2.05139 5.45229C2.22819 5.58343 2.22819 6.02248 2.22819 6.02248C2.22819 6.18246 2.23227 49.6964 2.23227 50.0944C2.23227 50.5825 1.54564 50.7548 1.50042 50.7674C1.50042 50.7674 0.90848 50.8658 0.71519 50.8985C0.4233 50.9396 0.20128 51.1981 0.19312 51.5016V51.5055V51.5098V54.9518C0.19312 55.0751 0.19312 55.2636 0.32878 55.4075C0.46036 55.5347 0.62492 55.5347 0.70703 55.5347H0.73984H0.76449H20.4575C20.7781 55.5347 21.0372 55.2841 21.0618 54.9562L21.8018 46.1229C22.2006 46.4101 22.9325 46.886 23.9068 47.2061C24.8608 47.5181 25.8516 47.6739 26.8588 47.6739Z" fill="#4B4B4B"></path><path d="M168.786 54.3041C168.68 54.4108 168.536 54.4765 168.388 54.4765H158.229C157.916 54.4765 157.661 54.2098 157.661 53.8858V52.532C157.661 52.2407 157.871 51.9862 158.147 51.9452C158.192 51.9368 158.615 51.8673 158.94 51.6705C159.174 51.5227 159.442 51.3298 159.589 50.977C159.733 50.6489 159.828 50.1194 159.844 49.4959C159.844 49.4754 159.865 18.0895 159.865 15.0492C159.614 15.0492 159.219 15.0453 158.973 15.0411C158.591 16.9366 153.694 41.3806 153.645 41.6312C153.538 42.1849 153.394 42.6978 153.073 42.6978C152.707 42.6855 152.6 42.0536 152.531 41.6719C152.506 41.545 147.482 17.3797 147.005 15.0533H146.175L146.15 41.3601C146.15 41.3767 146.162 41.7581 146.285 42.1481C146.384 42.4599 146.606 42.8085 146.721 42.9685C146.808 43.0874 147.058 43.3092 147.33 43.4854C147.659 43.6989 148.012 43.8505 148.016 43.8549C148.234 43.945 148.366 44.1625 148.366 44.3963V45.7584C148.366 45.9596 148.271 46.144 148.107 46.2548C148.016 46.3125 147.909 46.3452 147.798 46.3452C147.72 46.3452 147.634 46.3247 147.564 46.2919L143.86 44.503L140.821 43.0998C140.616 43.0014 140.485 42.788 140.485 42.5585V41.0157C140.485 40.7288 140.678 40.4865 140.941 40.4331C140.945 40.4331 140.953 40.4331 140.961 40.4292C141.323 40.3552 141.574 40.2692 141.718 40.2116C141.956 40.1132 142.182 39.9574 142.298 39.8424C142.413 39.7318 142.61 39.4732 142.692 39.2434C142.774 39.0094 142.779 38.7716 142.774 38.7264V36.8181C142.762 9.88765 142.754 6.24037 142.762 6.22798C142.762 6.17878 142.77 5.89971 142.7 5.63726C142.626 5.35429 142.462 5.05893 142.339 4.91117C142.223 4.78393 141.956 4.53794 141.66 4.40239C141.336 4.24258 140.982 4.17269 140.978 4.17269C140.711 4.12739 140.513 3.88954 140.505 3.60233L140.488 2.31011C140.485 2.1542 140.542 1.99829 140.649 1.88327C140.756 1.77266 140.9 1.70684 141.056 1.70684H148.867C149.139 1.70684 149.369 1.9038 149.426 2.17863C153.049 20.0914 153.484 22.2411 153.525 22.4668C153.722 22.4668 154.035 22.4708 154.241 22.4751C154.57 20.8175 158.266 2.28534 158.286 2.16642C158.339 1.89159 158.578 1.69462 158.841 1.69462H168.318C168.63 1.69462 168.885 1.96131 168.885 2.28534V3.57366C168.885 3.84849 168.696 4.09465 168.437 4.14809C168.346 4.17286 168.026 4.2548 167.717 4.39849C167.458 4.51741 167.224 4.69385 167.105 4.81701C166.973 4.95239 166.784 5.2067 166.698 5.44878C166.595 5.72786 166.574 6.02729 166.57 6.0887C166.57 6.72471 166.591 49.7831 166.591 50.1196C166.591 50.1238 166.599 50.4231 166.739 50.7474C166.841 50.9771 167.105 51.2929 167.216 51.4038C167.29 51.4856 167.561 51.6583 167.832 51.7567C168.124 51.8634 168.433 51.9002 168.437 51.9002C168.724 51.9329 168.938 52.1832 168.943 52.4787C168.951 53.8859 168.951 53.8859 168.951 53.8859C168.951 54.0417 168.889 54.1891 168.786 54.3041ZM142.035 38.6152C142.026 38.8203 141.932 39.0048 141.768 39.1565C141.57 39.3331 141.295 39.3577 141.233 39.3577C141.118 39.3577 140.982 39.2921 141.11 38.693C141.233 38.0982 141.985 34.1268 141.985 34.1268C142.006 33.9339 142.154 33.6589 142.187 34.1062C142.22 34.5616 142.047 38.4263 142.035 38.6152ZM139.264 42.4144C139.218 42.3978 134.071 40.3547 131.646 39.5012C129.401 38.7136 126.215 37.7084 125.602 37.5114L125.585 37.5075C125.339 37.4293 125.178 37.2037 125.178 36.9412V35.5708C125.178 35.2632 125.413 35.0049 125.705 34.9843L125.713 34.9801C125.964 34.9596 126.202 34.9105 126.391 34.8449C126.65 34.7587 126.835 34.615 126.901 34.541C126.996 34.4343 127.119 34.262 127.185 34.0324C127.271 33.7247 127.296 33.3555 127.304 33.2527V33.2488V6.35098C127.304 6.34708 127.3 5.92024 127.185 5.51393C127.111 5.25555 126.955 4.98887 126.831 4.83703C126.654 4.61971 125.984 4.29144 125.462 4.11093C125.228 4.02475 125.067 3.7869 125.076 3.53243L125.047 2.2811C125.059 1.96521 125.306 1.71091 125.614 1.71091H135.07C135.383 1.71091 135.637 1.9776 135.637 2.30587V3.53667C135.637 3.79115 135.481 4.01678 135.259 4.09058C134.005 4.4845 133.718 5.08353 133.619 5.28456C133.479 5.584 133.454 5.87121 133.45 5.89988C133.454 10.2448 133.454 21.6053 133.459 28.3953C133.459 32.4898 133.459 35.846 133.459 36.3507C134.211 36.6584 134.91 36.8182 135.531 36.8182C136.106 36.8182 136.402 36.6788 136.406 36.6788L136.431 36.6666C137.479 36.2603 137.981 34.8737 138.042 34.7014C138.096 34.5046 139.703 28.5884 139.72 28.5268L139.724 28.5229V28.5187C139.728 28.5024 139.864 28.1495 140.258 28.1495C140.591 28.1495 141.603 28.1534 141.603 28.1534C141.771 28.1534 141.928 28.2316 142.03 28.3628C142.137 28.4939 142.183 28.6663 142.158 28.8429L140.024 41.9591C139.897 42.5413 139.33 42.4389 139.264 42.4144ZM123.148 36.5595C123.045 36.6416 122.922 36.6829 122.798 36.6829C122.728 36.6829 122.449 36.613 122.362 36.5884C121.548 36.3794 113.437 34.4591 113.355 34.4386C113.096 34.3853 112.907 34.139 112.907 33.8684V32.5553C112.907 32.264 113.124 32.0099 113.4 31.9727C113.494 31.9605 113.803 31.9032 114.066 31.7554C114.337 31.6036 114.592 31.3124 114.703 31.1686C114.752 31.099 114.9 30.8035 114.975 30.4876C115.053 30.1553 115.057 29.8063 115.057 29.8063L115.053 28.1655C115.049 22.204 115.028 6.41663 115.028 5.94874V5.94484C115.02 5.83406 114.983 5.54277 114.896 5.30882C114.814 5.08726 114.654 4.87401 114.572 4.76323L114.563 4.74678C114.51 4.67705 114.346 4.52114 114.156 4.38169L113.7 4.10262C113.548 4.00813 113.383 3.80302 113.383 3.57332V2.32215C113.383 1.99813 113.634 1.73144 113.947 1.73144L122.153 1.70667C122.305 1.70667 122.449 1.77249 122.555 1.87903C122.662 1.98981 122.72 2.14165 122.72 2.29756V3.631C122.72 3.85663 122.555 4.06581 122.404 4.15623L122.042 4.38186C121.82 4.54998 121.581 4.79615 121.495 4.911C121.433 4.99718 121.322 5.2106 121.269 5.40756C121.166 5.76857 121.129 6.15419 121.121 6.20338C121.121 6.78596 121.129 31.6609 121.129 31.6609C121.129 31.6775 121.154 32.0672 121.244 32.4406C121.458 33.3966 122.934 34.094 122.942 34.094C123.185 34.168 123.357 34.3975 123.357 34.66L123.366 36.096C123.366 36.2806 123.283 36.4489 123.148 36.5595ZM111.772 9.62503C111.772 9.9533 111.513 10.22 111.204 10.22H108.943C108.631 10.22 108.372 9.9533 108.372 9.62503L108.38 7.72547C108.368 7.62301 108.335 7.27421 108.187 6.92151C108.051 6.60138 107.751 6.24037 107.582 6.08853C107.434 5.95739 107.101 5.70699 106.777 5.59638C106.308 5.43216 105.806 5.41587 105.806 5.41587H102.966C102.966 6.56049 102.978 14.0522 102.982 15.2708L105.235 15.2749C105.293 15.2665 105.531 15.2379 105.728 15.1476C105.946 15.0451 106.152 14.8193 106.217 14.7496C106.304 14.6551 106.513 14.3557 106.629 14.0849C106.744 13.8059 106.785 13.5229 106.785 13.5186C106.826 13.2274 107.065 13.006 107.348 13.006H109.26C109.568 13.006 109.827 13.2686 109.827 13.5926V20.4605C109.827 20.7847 109.568 21.0514 109.26 21.0514H107.393C107.122 21.0514 106.892 20.8544 106.838 20.5796V20.5755V20.5715L106.834 20.5633C106.822 20.5017 106.744 20.1777 106.629 19.8862C106.514 19.595 105.856 18.6882 105.169 18.6882L102.999 18.6923C103.007 20.3499 103.031 28.6742 103.031 28.6742C103.031 28.6865 103.044 28.9861 103.163 29.2896C103.245 29.5113 103.455 29.7985 103.574 29.9215C103.677 30.0282 104.006 30.2621 104.298 30.3933C104.552 30.5083 104.795 30.5451 104.795 30.5451C105.079 30.5823 105.288 30.8364 105.288 31.1277V32.3958C105.288 32.5638 105.222 32.7239 105.099 32.8345C104.997 32.9372 104.861 32.9865 104.721 32.9865C104.7 32.9865 104.68 32.9865 104.659 32.9823L103.397 32.8388C101.235 32.5926 100.844 32.5475 100.26 32.5064C98.9365 32.4203 96.6094 32.1904 95.6761 32.1001L95.627 32.0962C95.3351 32.0674 95.1171 31.8129 95.1171 31.5055V30.1678C95.1171 29.8765 95.3145 29.6343 95.5942 29.581C95.5942 29.581 95.9435 29.5237 96.2519 29.3596C96.5191 29.2241 96.7782 28.9779 96.8768 28.8549C96.9589 28.7565 97.1152 28.4815 97.1932 28.2148C97.2755 27.9112 97.292 27.5914 97.296 27.5255C97.296 27.1934 97.2466 6.09684 97.2466 6.09684C97.2466 6.09277 97.2302 5.70699 97.1152 5.37482C97.0288 5.11627 96.8233 4.87418 96.7575 4.80853C96.667 4.70182 96.408 4.4884 96.1326 4.35302C95.8283 4.20543 95.5034 4.14385 95.4993 4.14385C95.2321 4.09465 95.0349 3.84849 95.0349 3.56534L95.0308 2.29756C95.0308 2.14165 95.0884 1.98998 95.1954 1.87903C95.3021 1.76842 95.4461 1.70667 95.5981 1.70667H111.204C111.513 1.70667 111.772 1.96928 111.772 2.29739V9.62503ZM93.2754 10.5276C93.2754 10.8477 93.0246 11.1144 92.7081 11.1144H90.6237C90.3153 11.1144 90.0605 10.8477 90.0605 10.5276V9.00972C90.0646 8.86195 90.0853 8.09056 89.8509 7.31102C89.744 6.97478 89.5095 6.61767 89.2834 6.27311C88.7243 5.41978 87.5363 5.02178 86.907 5.02178C86.3316 5.02178 85.6572 5.29661 85.2379 5.70682C84.9955 5.93653 84.8022 6.19507 84.7077 6.40849C84.5061 6.85568 84.5022 7.28235 84.5022 7.28659V10.8519C84.5022 10.8558 84.5144 11.254 84.646 11.6478C84.7488 11.939 84.9831 12.2836 85.0737 12.4149C85.164 12.5503 85.6903 12.981 86.1961 13.3258L87.228 13.9903C88.4654 14.7903 90.5294 16.1278 90.5499 16.1402C90.6115 16.1811 91.1748 16.5832 91.6804 17.1125C92.0792 17.531 92.408 18.052 92.5848 18.4049C92.7616 18.7537 93.0165 19.3608 93.1399 19.931C93.2961 20.6571 93.2961 21.3383 93.2961 21.3466V26.5735V26.5775C93.2878 26.6554 93.1729 28.469 92.0463 29.7939C91.3596 30.5942 90.6361 31.1806 89.8961 31.5335C88.8479 32.0219 87.968 32.1242 86.965 32.1242C85.8673 32.1242 84.7118 31.9234 83.865 31.5785C83.2688 31.3406 82.4302 30.8401 81.9779 30.5612C81.9862 30.9631 81.9945 31.505 81.9945 31.5128C81.9945 31.6689 81.9369 31.8124 81.8342 31.9273C81.7313 32.034 81.5833 32.1035 81.4313 32.1035H79.4081C79.2558 32.1035 79.1161 32.0379 79.0052 31.9273C78.8983 31.8166 78.8408 31.6689 78.8408 31.5087V21.9738C78.8408 21.6497 79.0955 21.3871 79.4081 21.3871H81.3815C81.6856 21.3871 81.9447 21.6455 81.9447 21.9699L81.9653 25.4243C81.9653 25.4283 81.9736 25.8386 82.1133 26.3105C82.2284 26.7004 82.4545 27.1189 82.6806 27.3732C83.0177 27.7466 83.4783 28.0625 83.8771 28.1897C84.0826 28.2637 84.3128 28.2922 84.5884 28.2922C84.5965 28.2922 85.4477 28.28 85.9038 28.0791C86.233 27.9354 86.5864 27.6441 86.9235 27.238C87.0427 27.0902 87.1989 26.84 87.2688 26.5611C87.4331 25.958 87.4331 25.2606 87.4331 25.1784V22.405C87.4331 22.401 87.4209 21.8922 87.3099 21.4777C87.2565 21.2685 87.1166 21.0592 87.0466 20.9484L87.0219 20.9157C86.9726 20.8378 86.8286 20.6573 86.619 20.4809C86.3231 20.2306 85.9531 19.9887 85.8462 19.9188C85.6611 19.7997 81.4225 17.0017 81.406 16.9893C81.3279 16.9361 80.9373 16.6488 80.5549 16.2549C80.1685 15.8612 79.778 15.34 79.5642 14.9339C79.375 14.5769 79.1365 13.9984 79.0215 13.4528C78.8653 12.7225 78.8653 12.0334 78.8653 12.0045V5.8383V5.83423V5.82999C78.8692 5.75212 79.0091 3.9837 80.2671 2.83093C80.814 2.3303 81.3239 1.89142 82.027 1.6042C83.063 1.16939 84.2305 1.07897 84.5964 1.07897C84.5964 1.07897 85.0734 1.02977 86.5247 1.3007C87.1125 1.40741 87.7621 1.66985 88.465 2.01051C88.9378 2.24021 89.5711 2.69165 89.9821 2.99922V2.3057C89.9821 1.97743 90.2371 1.71074 90.5496 1.71074H92.7079C93.0244 1.71074 93.2752 1.97743 93.2752 2.3057V10.5276H93.2754ZM77.5745 31.743C77.5745 32.0382 77.3567 32.2927 77.0688 32.3256C77.0688 32.3256 69.1258 33.212 69.1053 33.212C68.9655 33.212 68.8299 33.1587 68.727 33.06C68.6077 32.9533 68.5378 32.7936 68.5378 32.6252V31.4147C68.5378 31.1564 68.6981 30.935 68.9326 30.8568C68.9366 30.8529 69.2039 30.7623 69.4506 30.5738C69.6396 30.4303 69.8329 30.1716 69.874 30.0937C69.9233 29.9953 70.0056 29.7697 70.0221 29.5562C70.0221 29.503 70.0262 29.4495 70.0262 29.3963C70.0262 29.1501 69.9398 28.5797 69.9398 28.5797L69.8494 28.0465L69.5658 26.3684C69.3644 25.1703 69.1464 23.8574 69.0519 23.3118H63.9417L63.6087 25.5067L63.5716 25.7734C63.2673 27.7632 62.8562 30.4958 62.8522 30.5287C62.8522 30.5287 62.7493 31.0578 63.0742 31.3286C63.14 31.3862 63.362 31.5542 63.5799 31.6119C63.769 31.6609 64.0898 31.6651 64.0898 31.6651C64.2378 31.6651 64.3817 31.7225 64.4843 31.8292C64.5953 31.9398 64.6571 32.0959 64.6571 32.256V33.4745C64.6571 33.7495 64.4678 33.9956 64.2047 34.0491L58.5394 35.2223C58.5025 35.2307 58.4696 35.2346 58.4327 35.2346C58.3011 35.2346 58.1695 35.1852 58.0709 35.099C57.9393 34.9884 57.8654 34.8199 57.8654 34.6437V33.5605C57.8654 33.38 57.9434 33.2118 58.0791 33.1009C58.0832 33.0926 58.4203 32.8179 58.6957 32.4817C58.9053 32.2272 59.0945 31.8909 59.2014 31.6855C59.3124 31.4846 59.4933 30.6846 59.5797 30.1841C59.773 28.8753 63.066 6.58899 63.0701 6.56847C63.0701 6.5644 63.1522 6.14587 63.0988 5.70682C63.0619 5.40739 62.922 5.07505 62.8029 4.87809C62.7043 4.72218 62.5069 4.50876 62.2849 4.37762C61.9394 4.18066 61.553 4.10279 61.5078 4.09448C61.2406 4.03697 61.0432 3.79488 61.0474 3.50783L61.0556 2.2811C61.0597 1.96521 61.3104 1.69853 61.6188 1.69853H74.2938C74.6063 1.69853 74.8611 1.96504 74.8611 2.28517V3.57756C74.8611 3.73754 74.7953 3.89752 74.6803 4.00422C74.5776 4.11093 74.4377 4.1642 74.2938 4.1642C74.2816 4.1642 73.8005 4.16827 73.5991 4.22579C73.3031 4.29958 73.0153 4.4923 72.9248 4.57441C72.7152 4.75916 72.5796 4.91914 72.526 5.04231C72.3863 5.37855 72.382 5.5633 72.382 5.7438C72.382 5.7438 75.8273 27.9933 75.8519 28.1695C75.856 28.1734 75.856 28.1778 75.856 28.1817C75.9218 28.4608 75.9957 28.6496 76.0409 28.7602C76.1314 28.957 76.2876 29.142 76.3452 29.2076C76.4027 29.2816 76.5795 29.429 76.7893 29.5439L77.184 29.7079C77.4103 29.8063 77.5745 30.0402 77.5745 30.2659V31.743ZM56.3811 32.8876C55.9988 34.057 55.1765 35.2018 54.531 35.8131C53.458 36.8345 52.3684 37.5404 51.2832 37.9135C50.7363 38.1023 49.8154 38.3279 48.5327 38.3279C48.5327 38.3279 48.1504 38.3318 48.0312 38.3318C47.3939 38.3318 46.7486 38.2706 46.1277 38.1434C44.8985 37.8972 43.6733 37.3842 43.0813 36.8674C42.6086 36.4489 41.7494 35.5957 41.3424 34.566C40.8491 33.3023 40.8778 31.9566 40.8778 31.9483V6.81056V6.80649C40.886 6.62615 40.9558 5.68239 41.4821 4.65262C41.9961 3.64745 43.2952 2.43701 44.3805 1.95707C44.4463 1.92009 46.0497 1.12002 47.8792 1.12002C48.0725 1.12002 48.2657 1.12834 48.4549 1.14869C49.4087 1.24319 50.5392 1.52633 51.5465 1.9323C51.9989 2.12095 52.4592 2.34268 52.9155 2.59699V2.3303C52.9155 2.00203 53.1746 1.73551 53.487 1.73551H56.1346C56.443 1.73551 56.6978 2.00203 56.6978 2.32623L56.6937 12.5133C56.6937 12.6692 56.6363 12.821 56.5294 12.9318C56.4224 13.0426 56.2744 13.1042 56.1305 13.1042H53.5734C53.2609 13.1042 53.0102 12.8416 53.0102 12.5175V8.75524C53.0061 8.65685 52.8786 6.35098 51.456 5.2598C50.9544 4.88233 50.4117 4.68961 49.832 4.68961C48.9892 4.68961 48.2903 5.09982 48.0108 5.33783C47.3201 5.92855 46.9543 6.83125 46.9543 7.94296L46.9378 31.0578C46.9459 31.1808 46.9912 31.6036 47.1557 32.0302C47.316 32.4484 47.6574 32.9202 47.9081 33.1747C48.1342 33.4003 48.5455 33.6958 48.8989 33.8188C49.2319 33.9295 49.5568 33.9461 49.7212 33.9461C49.7253 33.9461 50.4983 33.9339 51.1108 33.6958C51.5548 33.5192 52.0029 33.1458 52.2785 32.8546C52.4388 32.6822 52.7472 32.2065 52.8951 31.6813C53.0678 31.0698 53.0678 30.4218 53.0678 30.393L53.0513 22.9752C53.0513 22.8152 53.1088 22.6676 53.2157 22.5526C53.3267 22.4459 53.4624 22.3803 53.6145 22.3803H56.1924C56.5049 22.3803 56.7597 22.6469 56.7597 22.971V30.204C56.7592 30.2577 56.8127 31.5871 56.3811 32.8876ZM169.975 51.4935C169.975 51.1695 169.736 50.8988 169.432 50.866L168.532 50.7551C168.532 50.7551 167.631 50.6689 167.631 50.0453L167.611 6.02271C167.627 5.49357 167.635 5.36633 169.473 4.90268L169.477 4.89861C169.74 4.82465 169.925 4.57441 169.925 4.2872V1.25133C169.925 1.06675 169.868 0.882175 169.761 0.775465C169.65 0.656541 169.49 0.590718 169.329 0.590718L157.974 0.586816C157.686 0.586816 157.431 0.800064 157.374 1.09542C157.374 1.09542 154.763 14.1709 153.846 18.7538C152.925 14.212 150.307 1.2308 150.274 1.09542C150.216 0.800064 149.965 0.586816 149.677 0.586816H140.024C139.864 0.586816 139.704 0.65247 139.589 0.775465C139.486 0.882175 139.429 1.05861 139.429 1.25133V4.28737C139.429 4.57441 139.613 4.82482 139.876 4.89878H139.881C140.798 5.13256 141.262 5.29254 141.472 5.45269C141.632 5.56754 141.64 5.67018 141.648 5.97368L141.652 6.01881C141.652 6.35522 141.661 24.8958 141.661 27.0044L139.453 27.0005C139.178 27.0005 138.935 27.1891 138.861 27.4599C138.84 27.5296 136.966 34.3811 136.908 34.5945C136.88 34.6849 136.612 35.4152 136.061 35.6287H136.053L136.045 35.6326C136.045 35.6326 135.889 35.7065 135.589 35.7065C135.259 35.7065 134.894 35.6244 134.499 35.4604C134.495 33.3228 134.483 6.4621 134.483 6.02305C134.487 5.99438 134.487 5.96978 134.487 5.94111C134.495 5.64982 134.503 5.55549 134.655 5.44454C134.869 5.28864 135.317 5.13273 136.217 4.90319V4.89912H136.221C136.489 4.82516 136.674 4.57492 136.674 4.28771V1.25133C136.674 1.06675 136.608 0.882175 136.509 0.775465C136.394 0.656541 136.234 0.590718 136.069 0.590718L124.796 0.586816C124.636 0.586816 124.476 0.65247 124.365 0.775465C124.258 0.882175 124.2 1.05861 124.2 1.25133V4.32435C124.2 4.6114 124.385 4.8618 124.648 4.93967H124.652C125.923 5.18583 126.186 5.71106 126.194 6.01473L126.198 33.1871C126.194 33.257 126.12 33.7739 125.598 33.8355L124.644 33.9094C124.57 33.9133 124.496 33.934 124.426 33.9625C124.426 33.9625 124.467 33.3677 123.982 33.2405C123.982 33.2405 122.136 32.9986 122.202 31.6609L122.198 6.02271C122.215 5.55923 122.404 5.40332 123.008 5.06266C123.053 5.03806 123.67 4.74695 123.67 4.28737V1.25133C123.67 1.06675 123.604 0.882175 123.502 0.775465C123.386 0.656541 123.23 0.590718 123.066 0.590718L113.075 0.586816C112.915 0.586816 112.767 0.648229 112.652 0.763251C112.537 0.648229 112.389 0.586816 112.229 0.586816L94.5662 0.590718C94.4101 0.590718 94.258 0.6523 94.1429 0.763251C94.0319 0.65247 93.884 0.586816 93.7276 0.586816H89.5094C89.238 0.586816 89.0079 0.779707 88.938 1.04623C88.9297 1.04232 87.4087 0.398166 86.7467 0.250402C85.7354 0.0288404 84.7444 0.00424122 84.6334 0H84.5964C84.0743 0 82.7794 0.127237 81.6282 0.607174C80.7688 0.964115 80.1602 1.48528 79.5601 2.03494C77.9937 3.46678 77.8128 5.55515 77.7964 5.78486V5.79707V5.80539L77.7923 12.0086C77.7923 12.1481 77.8006 12.8825 77.9732 13.6947C78.1459 14.5194 78.5117 15.262 78.6227 15.4671C78.8816 15.9636 79.3464 16.583 79.8068 17.0507C80.2466 17.502 80.6784 17.8221 80.7975 17.9124L80.8346 17.9372L80.8468 17.9411L80.8509 17.9451C81.0316 18.0641 85.1883 20.8047 85.2665 20.8582C85.2993 20.8828 85.6816 21.1576 85.9448 21.3464L86.1464 21.5597L86.1587 21.5761C86.2489 21.7156 86.2695 21.769 86.2778 21.7773C86.3353 21.9946 86.3599 22.3188 86.3599 22.4337C86.3599 22.4748 86.3559 24.2471 86.3559 25.1744V25.1783C86.3642 25.6214 86.1955 26.2533 85.7926 26.6841C85.4759 27.0164 85.069 27.1888 84.5714 27.1888C84.3781 27.1888 83.8849 27.1396 83.4903 26.7251C83.1573 26.3724 82.9928 25.8514 83.0052 25.1784V25.1745C83.0052 24.7682 83.0091 20.9445 83.0091 20.9035C83.0091 20.5547 82.7337 20.2676 82.3964 20.2676H78.4004C78.0633 20.2676 77.7877 20.5547 77.7877 20.9075L77.771 28.793C77.771 28.793 77.1092 28.7273 76.8996 27.9108C76.7063 26.68 73.553 6.58475 73.4955 6.21136C73.4379 5.88309 73.475 5.64524 73.5982 5.48933C73.7544 5.29644 74.0298 5.27591 74.1368 5.27591C74.1655 5.27591 75.3043 5.27998 75.3167 5.27998C75.473 5.27998 75.621 5.21433 75.7319 5.10762C75.8553 4.98446 75.9292 4.81633 75.9292 4.64397L75.9333 1.22232C75.9333 0.873522 75.6579 0.590378 75.3206 0.590378H60.5859C60.4215 0.590378 60.2612 0.656202 60.1502 0.775126C60.0475 0.881835 59.9858 1.06641 59.9858 1.25099V4.28703C59.9858 4.57407 60.1708 4.82448 60.4339 4.89844C60.4339 4.89844 61.7371 5.0133 61.9716 5.42758C62.0579 5.58756 62.1237 5.74347 62.0991 5.99387L58.5182 30.0072C58.4194 30.5774 58.2797 31.1026 58.2469 31.1805C58.2469 31.1805 58.0373 31.7221 57.7 31.9478C57.811 31.1231 57.8275 30.245 57.8316 30.204V21.9042C57.8316 21.5556 57.5602 21.2684 57.219 21.2684H52.5857C52.4254 21.2684 52.2692 21.334 52.1541 21.453C52.039 21.5761 51.9732 21.7361 51.9732 21.9085V30.4464C51.9856 30.9716 51.7841 31.7223 51.3073 32.2311C50.9372 32.625 50.4479 32.8262 49.8601 32.8262C49.634 32.8262 49.046 32.773 48.5815 32.2762C48.1869 31.8577 47.9937 31.2468 48.0101 30.4505V30.4466C48.0061 30.0815 48.0183 7.27828 48.0183 7.27828C48.0183 7.23722 48.047 6.87621 48.2403 6.52741C48.4952 6.04748 48.9351 5.80963 49.5395 5.80963C51.4224 5.80963 51.8623 7.1429 51.9363 9.16155V9.20668V13.5845C51.9363 13.9333 52.2076 14.2203 52.5447 14.2203H57.1534C57.3137 14.2203 57.474 14.1506 57.5891 14.0357C57.7085 13.9126 57.77 13.7526 57.77 13.5802V1.22266C57.7659 0.873862 57.4781 0.586816 57.1329 0.586816H52.4665C52.117 0.586816 51.9361 0.89863 51.9361 0.89863H51.932C50.8303 0.451266 49.601 0.139451 48.5526 0.0369835C48.3347 0.0164559 48.1127 0.00424124 47.8906 0.00424124C45.9089 0.00424124 44.1987 0.808377 43.948 0.935614C43.948 0.935614 41.7031 2.07616 40.5356 4.13163C39.8326 5.36651 39.9396 6.70826 39.9436 6.81904L39.9477 31.9771L39.9436 32.0017C39.9518 34.1227 40.6425 35.9361 41.9376 37.241C43.3642 38.681 45.5103 39.4481 48.1414 39.4481C48.1907 39.4481 48.4168 39.4442 48.4333 39.4442C50.5999 39.4196 52.5075 38.8167 54.0944 37.6595C55.4718 36.6586 56.3226 35.4437 56.7872 34.6069V35.961C56.8325 36.4859 57.2765 36.7241 57.5849 36.7241C57.6136 36.7241 65.3881 35.0213 65.3881 35.0213C65.6017 34.9188 65.7292 34.7012 65.7292 34.455V31.1482C65.7292 30.9759 65.6635 30.8079 65.5443 30.6929C65.4292 30.574 65.2811 30.5124 65.1208 30.5124C65.1167 30.5124 63.9779 30.5412 63.9368 30.537C64.0272 29.93 64.8577 24.424 64.8577 24.424H68.1509C68.3112 25.3676 68.8827 28.7728 68.9156 28.9657C68.9156 28.9657 69.006 29.7534 68.3564 29.8726C67.9576 29.9422 67.4355 30.1639 67.4726 30.6437L67.4643 31.4068V33.9261C67.4643 34.1023 67.5425 34.275 67.6657 34.3979C67.7808 34.5046 67.9248 34.5578 68.0729 34.5619L68.1016 34.558C70.8972 34.0984 77.9726 33.3065 77.9726 33.3065C78.0631 33.2985 78.1413 33.2614 78.1987 33.2123C78.3057 33.2697 78.3878 33.3065 78.466 33.3065C78.466 33.3065 81.4959 33.1465 82.7704 33.0931C82.7704 33.0931 83.0786 33.0441 83.0829 32.5682C83.0829 32.5639 83.0829 32.5149 83.0829 32.4449C83.2309 32.5188 83.3582 32.576 83.4733 32.6215C83.8846 32.7894 84.3533 32.9207 84.8588 33.0274C85.5371 33.1669 86.2607 33.2408 86.964 33.2408C87.8027 33.2408 88.4933 33.163 89.1388 32.9906C89.5376 32.8839 89.9322 32.7361 90.3393 32.5433C91.2231 32.1291 92.066 31.4521 92.8512 30.5329C94.1997 28.9494 94.364 26.8855 94.364 26.6476C94.364 26.5328 94.3681 21.3469 94.3681 21.3469C94.3681 21.2648 94.3641 20.518 94.1873 19.6935C94.0434 19.0124 93.7515 18.3109 93.5334 17.8801C93.4308 17.675 93.0443 16.9612 92.4441 16.3292C91.8685 15.7302 91.108 15.1846 91.108 15.1846C91.108 15.1846 91.0997 15.1805 86.7583 12.3742C85.706 11.7095 85.566 11.2379 85.5701 10.8233V7.45471C85.5784 7.30695 85.6771 6.17878 86.8939 6.17878C88.5507 6.17878 88.9373 7.37277 88.9907 9.16155C88.9907 9.35444 88.9868 11.5042 88.9868 11.5902C88.9868 11.9431 89.262 12.2263 89.595 12.2263H93.7352C94.0722 12.2263 94.3518 11.9431 94.3518 11.5943L94.3396 4.87401C94.3644 4.88233 95.6676 5.12442 96.0047 5.45252C96.1445 5.58366 96.1691 5.66169 96.1814 5.96944L96.2225 27.4925C96.1074 28.5224 94.6685 28.6374 94.6685 28.6374C94.3765 28.6864 94.1585 28.9531 94.1585 29.2611L94.1546 32.4774C94.1546 32.8059 94.393 33.0765 94.7097 33.1133L95.3552 33.1872L95.536 33.1995C98.9648 33.3923 102.291 33.7289 105.773 34.2212C105.773 34.2212 105.987 34.2414 106.16 34.0613C106.283 33.934 106.361 33.7657 106.361 33.5851V30.2087C106.361 29.8886 106.143 29.6261 105.839 29.5768C105.839 29.5768 104.153 29.355 104.1 28.6208C104.1 28.3746 104.075 19.808 104.075 19.808C104.515 19.808 105.082 19.808 105.161 19.808C105.695 19.7833 105.847 21.1045 105.958 21.6543C106.016 21.9497 106.266 22.1631 106.554 22.1631H110.283C110.62 22.1631 110.9 21.8759 110.9 21.5271V12.5259C110.9 12.1771 110.62 11.8898 110.283 11.8898H106.46C106.155 11.8898 105.892 12.1277 105.851 12.4356L105.724 13.3463C105.724 13.3463 105.592 14.1055 105.157 14.1547H104.051C104.051 12.0171 104.042 7.52461 104.038 6.5359H105.802C105.909 6.53997 106.188 6.56864 106.439 6.65482C106.55 6.6918 106.756 6.82294 106.879 6.93389C106.961 7.00786 107.155 7.25402 107.204 7.37685C107.274 7.53682 107.294 7.70529 107.303 7.77501V10.6962C107.303 11.0489 107.578 11.332 107.915 11.332H112.228C112.565 11.332 112.845 11.0489 112.845 10.6962V4.87401C112.869 4.8864 113.934 5.17769 113.955 5.793V5.82591C113.959 6.08429 113.979 29.79 113.979 29.8063C113.979 29.8063 113.967 30.7501 113.26 30.869L112.372 30.9923C112.076 31.0374 111.845 31.3041 111.842 31.6199L111.833 34.726C111.833 34.935 111.936 35.1319 112.109 35.2551C112.109 35.2551 123.994 38.0696 124.003 38.0696C124.052 38.0696 124.097 38.0573 124.138 38.0327C124.175 38.0818 124.216 38.1228 124.27 38.1474L124.303 38.1641C125.034 38.3731 125.7 38.566 126.338 38.7589C135.526 41.5121 143.58 45.307 148.719 48.0107C148.719 48.0107 148.863 48.0885 149.122 47.9328C149.303 47.8218 149.402 47.6127 149.402 47.395L149.41 43.6534C149.41 43.395 149.262 43.1653 149.032 43.0627C149.032 43.0627 147.19 42.4884 147.19 41.2987C147.19 40.1048 147.202 28.0959 147.21 21.4289C148.538 27.7922 151.774 43.2145 151.811 43.3867C151.823 43.4524 151.901 43.7847 152.033 43.9408C152.152 44.0885 152.37 44.1213 152.531 44.1213C152.551 44.1213 153.641 44.117 153.641 44.117C153.665 44.1131 153.879 44.0843 154.052 43.9158C154.212 43.7601 154.319 43.4111 154.319 43.4111C154.319 43.4111 157.468 27.7634 158.759 21.3671C158.755 29.4085 158.738 49.1549 158.738 49.4588C158.726 49.8401 158.664 50.2219 158.627 50.3654C158.533 50.6567 158.044 50.7961 157.953 50.8127C157.9 50.8211 157.719 50.8455 157.082 50.948C156.781 50.9973 156.563 51.2598 156.56 51.5758L156.555 54.9194C156.555 55.2723 156.831 55.5595 157.168 55.5595H169.387C169.551 55.5595 169.708 55.4856 169.822 55.3707C169.933 55.2477 169.999 55.0877 169.999 54.9194C169.999 54.9194 169.999 54.9194 169.975 51.4935Z" fill="#4B4B4B"></path><path d="M67.7082 43.0503C65.8993 43.0503 64.1931 43.883 63.0337 45.3396L53.545 45.3806C53.3517 45.3723 53.0105 45.1794 53.0105 44.8144C53.0187 44.4164 53.3188 44.2606 53.5819 44.2481C53.771 44.2606 53.9478 44.4164 54.0465 44.5558C54.1575 44.7119 54.3384 44.806 54.5358 44.806C54.6755 44.806 54.8112 44.7609 54.914 44.6708C55.1813 44.4574 55.1483 44.0061 54.9635 43.6984C54.7003 43.2716 54.1701 43.0132 53.545 43.001H53.5204C53.1093 43.001 52.6529 43.2103 52.3322 43.5467C52.1021 43.7846 51.8348 44.1948 51.8389 44.8062C51.843 46.1028 52.9448 46.6403 53.5328 46.6403C53.545 46.6403 53.5533 46.6403 53.5615 46.6403C53.6026 46.6403 63.3175 46.6075 63.8027 46.6035H63.852L63.8766 46.5663C64.7606 45.27 66.1954 44.4944 67.7084 44.4944C70.3026 44.4944 72.4157 46.7058 72.4157 49.4135C72.4157 52.1255 70.3024 54.333 67.7084 54.333C66.142 54.333 64.6867 53.5206 63.8067 52.1585L63.7821 52.1133H63.7328L31.2786 52.0762C30.5838 52.105 29.7534 52.9175 29.7658 53.8857C29.7823 55.0756 30.6661 55.7031 31.5295 55.7073H31.5377C32.0434 55.7073 32.5777 55.3708 32.7792 55.1451C33.1041 54.776 33.1493 54.382 32.8985 54.103H32.8944L32.8904 54.0991C32.7916 54.0086 32.6765 53.9635 32.5408 53.9635C32.2695 53.9635 32.0229 54.1401 31.9282 54.2385C31.8294 54.3369 31.6897 54.4558 31.5293 54.4558C31.2334 54.4475 30.9784 54.1808 30.9825 53.8896C30.9825 53.5983 31.225 53.3441 31.4964 53.3441C31.5088 53.3441 61.8538 53.3726 62.9474 53.3726C64.1149 54.903 65.8457 55.7811 67.7082 55.7811C71.0671 55.7811 73.797 52.9214 73.797 49.4134C73.797 45.9059 71.0671 43.0503 67.7082 43.0503Z" fill="#4B4B4B"></path><path d="M145.177 52.0761L112.719 52.1133H112.669L112.641 52.1543C111.765 53.5164 110.305 54.3329 108.739 54.3329C106.145 54.3329 104.036 52.1255 104.036 49.4135C104.036 46.7018 106.145 44.4986 108.739 44.4986C110.256 44.4986 111.687 45.27 112.571 46.5662L112.599 46.6073H112.645C113.134 46.6073 123.429 46.64 123.47 46.64C123.474 46.64 123.482 46.64 123.49 46.64C124.078 46.64 125.184 46.1026 125.188 44.806C125.192 44.1946 124.921 43.7845 124.695 43.5426C124.37 43.206 123.914 42.9968 123.503 42.9968H123.482C122.853 43.009 122.323 43.2715 122.064 43.6943C121.879 44.0061 121.846 44.4534 122.109 44.6747C122.216 44.7568 122.352 44.8019 122.487 44.8019C122.685 44.8019 122.87 44.7118 122.976 44.5596C123.079 44.4161 123.256 44.2561 123.445 44.2439C123.704 44.2605 124.008 44.4163 124.013 44.8141C124.017 45.1836 123.671 45.3763 123.478 45.3804L113.422 45.3395C112.254 43.8829 110.552 43.0459 108.739 43.0459C105.384 43.0459 102.65 45.9056 102.65 49.4133C102.65 52.9255 105.384 55.7768 108.739 55.7768C110.606 55.7768 112.336 54.9031 113.504 53.3687C114.598 53.3687 144.918 53.3398 144.918 53.3398C144.926 53.3398 144.939 53.3398 144.955 53.3398C145.226 53.3398 145.465 53.5982 145.469 53.8895C145.473 54.185 145.218 54.4475 144.918 54.4558C144.758 54.4558 144.614 54.3328 144.523 54.234C144.425 54.144 144.178 53.9633 143.911 53.9633C143.779 53.9633 143.656 54.0084 143.557 54.1027H143.553V54.107C143.302 54.3777 143.343 54.7756 143.668 55.1491C143.874 55.3748 144.404 55.7112 144.91 55.7112L144.922 55.7073C145.786 55.703 146.669 55.0753 146.682 53.8856C146.694 52.9174 145.872 52.1049 145.177 52.0761Z" fill="#4B4B4B"></path><path d="M108.738 47.9939C108.027 47.9939 107.447 48.6012 107.447 49.3438C107.447 50.0863 108.027 50.6937 108.738 50.6937C109.215 50.6937 109.643 50.427 109.869 49.9879L138.327 49.9511C138.66 49.9511 138.931 49.6721 138.931 49.3233C138.931 48.9787 138.66 48.6957 138.327 48.6957L109.889 48.7325C109.672 48.2813 109.223 47.9939 108.738 47.9939Z" fill="#4B4B4B"></path><path d="M66.5688 49.9919C66.7949 50.4268 67.2183 50.6937 67.6952 50.6937C68.4065 50.6937 68.9862 50.0863 68.9862 49.3438C68.9862 48.6012 68.4065 47.9939 67.6952 47.9939C67.21 47.9939 66.7661 48.2811 66.5482 48.7325L38.1395 48.6957C37.8065 48.6957 37.5352 48.9787 37.5352 49.3233C37.5352 49.6722 37.8065 49.9511 38.1395 49.9511L66.5688 49.9919Z" fill="#4B4B4B"></path><path d="M154.772 53.0282C154.644 52.9461 142.15 45.0689 126.252 40.3098C113.47 36.4777 100.754 34.5371 88.4574 34.5371C79.5647 34.5371 68.4356 35.1197 53.3063 39.3906C37.0669 43.9818 23.582 52.1828 23.0188 52.5318C22.624 52.7696 22.4967 53.2909 22.7228 53.6967C22.7228 53.6967 22.8955 54.0252 23.2243 54.0868C23.4669 54.1441 23.837 53.9923 23.837 53.9923C24.4043 53.6477 37.7083 45.5568 53.734 41.0274C68.6784 36.8057 79.6759 36.2355 88.4576 36.2355C100.602 36.2355 113.166 38.1556 125.804 41.9426C141.497 46.64 153.794 54.3986 153.921 54.4724C154.303 54.7143 154.805 54.5913 155.039 54.1891C155.273 53.7912 155.154 53.2704 154.772 53.0282Z" fill="#4B4B4B"></path><path d="M83.8898 49.2005L82.4919 49.1678C82.422 49.1635 82.3605 49.2211 82.3479 49.2947L82.1177 50.6201C81.9985 51.1659 81.8219 51.6867 81.7724 51.8345C81.5916 52.3553 81.4107 52.7331 81.23 52.9504C80.9008 53.3484 80.4857 53.4796 80.35 53.4796C80.2472 53.4796 80.0457 53.3646 79.9307 53.1021C79.8278 52.8643 79.7909 52.5031 79.7703 52.2856C79.7703 52.2856 79.7333 45.7458 79.7333 42.7014C79.7333 41.8194 79.7333 41.2247 79.7414 41.1425V41.1386C79.7414 41.1344 79.7414 41.1264 79.7414 41.122C79.7414 41.1137 79.7375 41.1098 79.7375 41.1015V41.0852C79.7375 40.9907 79.7459 40.8185 79.795 40.6545C79.8404 40.523 79.9266 40.4039 79.9966 40.3138C80.0007 40.3099 80.0459 40.2482 80.0459 40.2482C80.12 40.1375 80.3419 40.0059 80.638 39.9036C80.6955 39.887 80.7366 39.8257 80.7366 39.7641L80.72 38.6236C80.7161 38.5781 80.6994 38.5415 80.6666 38.5126C80.638 38.488 80.6008 38.4758 80.5639 38.4758L75.3507 38.9188C75.2766 38.9227 75.2191 38.9927 75.2191 39.0665L75.2109 40.1168C75.2109 40.1701 75.2562 40.2315 75.3055 40.2563L75.7741 40.4899C75.9797 40.6294 76.0825 40.806 76.1113 40.855C76.1687 40.9537 76.2634 41.2328 76.3168 41.5197C76.3168 41.5239 76.3867 42.2215 76.3867 42.2254C76.3867 42.3937 76.4237 52.3099 76.4237 52.3099C76.4237 52.3099 76.4113 52.5726 76.3374 52.831C76.2716 53.0607 76.1441 53.2495 76.1031 53.2986C76.0373 53.3931 75.8729 53.5491 75.7413 53.6392L75.3097 53.8854C75.2645 53.91 75.2233 53.9675 75.2233 54.0248L75.2562 55.0096C75.2602 55.0875 75.3219 55.1491 75.3959 55.1491L83.3184 55.1613C83.3881 55.1613 83.4498 55.1036 83.4539 55.0258L84.0297 49.3641C84.0336 49.323 84.0214 49.282 83.9926 49.249C83.9637 49.2211 83.9267 49.2005 83.8898 49.2005Z" fill="#4B4B4B"></path><path d="M90.5844 53.188C90.5473 53.1634 90.4897 53.1592 90.4486 53.1718L90.0336 53.3236C89.7992 53.3726 89.5278 53.3892 89.3592 53.3892C89.2523 53.3892 88.7098 53.3726 88.4259 53.0854C88.1259 52.7778 88.0806 52.1993 88.0766 51.9698C88.0682 51.6454 88.0682 49.3479 88.0725 45.4996L88.0766 45.3313C88.0725 45.2861 88.0725 45.1713 88.134 45.1262C88.1794 45.0893 88.3149 45.0605 88.3768 45.0646C88.3931 45.0729 88.4096 45.0771 88.4096 45.0771C88.4342 45.0851 88.4589 45.0729 88.4793 45.0688C88.6396 45.0688 90.0664 45.0646 90.0664 45.0646C90.1239 45.0646 90.1772 45.0239 90.2021 44.9662C90.2473 44.831 90.3294 44.5438 90.3789 44.1415L90.42 43.44V43.3744C90.4158 43.2882 90.35 43.2103 90.2758 43.2103H88.4463C88.2326 43.2266 88.1299 43.1981 88.1094 43.1815C88.0641 43.1404 88.0436 43.038 88.0436 42.9597V40.2481C88.0436 40.2029 88.0269 40.1619 87.9902 40.1291C87.9574 40.1003 87.9079 40.092 87.8666 40.1046L84.8902 40.9167C84.8285 40.9333 84.7833 40.9906 84.7833 41.0605V42.9847C84.7833 43.0914 84.7666 43.1693 84.7338 43.1937C84.7051 43.2225 84.6106 43.2388 84.5077 43.2308H83.0564C82.9745 43.2308 82.9126 43.2965 82.9126 43.3783L82.9043 44.8842C82.9043 44.925 82.921 44.9582 82.9454 44.9867C82.9701 45.0155 83.0112 45.0318 83.0481 45.0318H84.4379C84.5242 45.0239 84.6762 45.0401 84.7255 45.1058C84.7583 45.1385 84.787 45.2247 84.787 45.3769L84.7831 45.4548V52.5936C84.787 52.6548 84.8078 53.1433 84.9681 53.6108C85.1038 54.0171 85.3792 54.3781 85.5107 54.5177C85.6342 54.645 85.9711 54.9363 86.3823 55.1003C86.7524 55.2481 87.1346 55.2808 87.1757 55.2849C87.188 55.2849 88.6969 55.2849 88.6969 55.2849C88.7175 55.281 89.1984 55.2237 89.1984 55.2237C89.219 55.2194 89.3381 55.1865 89.3381 55.1865C89.3465 55.1826 89.9301 55.006 89.9301 55.006C90.1973 54.9035 90.3165 54.8092 90.4564 54.6737C90.625 54.5137 90.6619 54.399 90.6619 54.3291L90.6497 53.3076C90.6502 53.2579 90.6215 53.2169 90.5844 53.188Z" fill="#4B4B4B"></path><path d="M96.8855 51.8014C96.8813 52.2155 96.4661 52.9378 95.7055 52.9378C94.9286 52.9378 94.4681 52.3222 94.4722 51.793C94.4763 51.4607 94.4598 46.1641 94.4598 45.9958C94.4598 45.7374 94.6284 44.7692 95.6234 44.7692C96.713 44.7692 96.8733 45.7006 96.8857 45.8974C96.8977 46.0452 96.8937 51.4853 96.8855 51.8014ZM101.416 53.8034C101.239 53.7995 100.791 53.7627 100.507 53.5326C100.125 53.2249 100.1 52.5151 100.1 52.5071C100.092 52.1049 100.08 39.0336 100.08 38.9024C100.08 38.8326 100.03 38.771 99.9645 38.7547C99.5863 38.6931 98.2829 38.4797 97.0332 38.4512L95.2982 38.4429C95.2613 38.4429 95.2241 38.4592 95.1955 38.4839C95.1666 38.5124 95.1544 38.5496 95.1544 38.5864V39.7229C95.1544 39.7968 95.2078 39.8664 95.2858 39.8706C95.4544 39.8829 95.6105 39.9158 95.7423 39.969C95.9848 40.0674 96.2109 40.2725 96.2973 40.3587C96.3468 40.412 96.6098 40.6827 96.725 40.9538C96.7825 41.0933 96.832 41.3108 96.832 41.4419C96.832 41.4419 96.832 41.4624 96.832 41.4791C96.8236 41.4993 96.8153 41.5159 96.8153 41.5159C96.8194 41.5076 96.8275 41.512 96.832 41.5037V43.2144C96.8277 43.2884 96.8071 43.4032 96.7662 43.4606C96.7332 43.5099 96.6674 43.5345 96.6098 43.5345C96.5729 43.5179 96.4083 43.4361 96.4083 43.4361C96.2643 43.3583 96.0341 43.2227 95.7628 43.1284C95.3353 42.9849 94.813 42.9316 94.624 42.9316C94.402 42.9316 93.0042 43.0834 92.2559 43.7481C91.3144 44.5852 91.3184 46.0825 91.3184 46.099C91.3184 46.0947 91.3267 52.975 91.3267 52.975C91.3267 52.9833 91.3595 53.8202 91.9434 54.4233C92.4779 54.973 93.222 55.2768 93.6907 55.2892C93.6907 55.2892 94.9487 55.4286 95.7297 55.0181C96.067 54.8418 96.4986 54.5056 96.589 54.4274H96.7249C96.7536 54.485 96.8976 54.7845 97.107 54.9814C97.2756 55.1414 97.5101 55.1826 97.617 55.1826H101.412C101.49 55.1826 101.556 55.117 101.556 55.0308V53.9517C101.556 53.8733 101.49 53.8034 101.416 53.8034Z" fill="#4B4B4B"></path><path d="M67.2894 19.2174C67.1373 19.2214 65.8669 19.2133 65.7395 19.2133C65.608 19.2133 65.5051 19.1027 65.5257 18.9425C65.5627 18.6921 66.3973 11.4836 66.4013 11.4508C66.4095 11.4181 66.4301 11.4016 66.4547 11.4016C66.4795 11.4016 66.5042 11.4222 66.5124 11.4508C66.5205 11.4797 67.4579 18.8358 67.4785 18.9466C67.4992 19.0615 67.4416 19.2133 67.2894 19.2174ZM66.1384 7.89381L64.3418 20.0994H68.6668L66.7056 7.8855L66.1384 7.89381Z" fill="#4B4B4B"></path><path d="M69.2614 20.6245C69.1546 20.7599 68.9941 20.8379 68.8297 20.8379H64.1799C64.0114 20.8379 63.8552 20.7599 63.7442 20.6287C63.6415 20.4974 63.592 20.3251 63.6208 20.1569L65.4586 7.65991C65.4998 7.37287 65.734 7.15945 66.0137 7.15945L66.8195 7.15114C67.099 7.15114 67.3375 7.36031 67.3827 7.64346L69.389 20.1486C69.4176 20.321 69.3683 20.4972 69.2614 20.6245ZM75.8189 29.6997C75.7491 29.6179 75.5311 29.3634 75.4038 29.0638C75.2476 28.7152 75.1653 28.3335 75.1612 28.3174V28.3131L71.8887 7.42614C71.8887 7.41783 71.7695 6.76553 71.7325 6.46185C71.6832 6.07624 71.6832 5.85468 71.6832 5.7439C71.6832 5.53879 71.6832 5.22291 71.8846 4.75094C72.0244 4.41046 72.3328 4.13156 72.4684 4.01246C72.6287 3.87301 73.011 3.62261 73.4221 3.5159C73.7018 3.43803 73.9894 3.42582 74.1334 3.42582H74.158V2.43286H61.7586L61.7504 3.39698C61.9272 3.43803 62.2849 3.54474 62.622 3.73763C62.9756 3.94274 63.251 4.25455 63.3948 4.48018C63.547 4.73059 63.7444 5.17354 63.802 5.62073C63.8637 6.17871 63.7649 6.69173 63.7608 6.70801L60.2745 30.2987C60.2663 30.352 60.0402 31.632 59.8182 32.0505C59.8182 32.0505 59.4933 32.6412 59.2263 32.9614C58.9753 33.2691 58.6877 33.5236 58.5684 33.6303V34.467L63.9541 33.3553V32.3993C63.8061 32.3954 63.6046 32.3705 63.4032 32.3172C63.0496 32.2271 62.7165 31.9891 62.5933 31.8659C62.4658 31.7429 62.2562 31.4352 62.1739 31.1029C62.0959 30.75 62.1533 30.4136 62.1574 30.4014L63.2881 22.9097C63.2962 22.8481 63.325 22.7249 63.4197 22.6513C63.506 22.5897 63.617 22.5732 63.6745 22.5732H69.2083C69.2165 22.5732 69.233 22.5732 69.2371 22.5732C69.2988 22.5732 69.4179 22.5897 69.5249 22.6594C69.677 22.7619 69.7017 22.9098 69.7057 22.9426L70.6678 28.6536C70.6718 28.6703 70.7541 29.15 70.7254 29.6055C70.7006 29.9418 70.5857 30.2619 70.4952 30.4426C70.4048 30.6105 70.154 30.9473 69.8662 31.1685C69.6277 31.349 69.381 31.4598 69.2454 31.5175V32.4651L76.8677 31.612V30.3727C76.7731 30.3359 76.6169 30.2743 76.4689 30.1964C76.1807 30.0402 75.934 29.8312 75.8189 29.6997Z" fill="#4B4B4B"></path><path d="M90.6862 3.74155C90.6903 3.78685 90.6697 4.03301 90.5465 4.09849C90.3491 4.2052 90.193 4.06151 90.1558 4.04098H90.1477L90.1436 4.03691L90.1313 4.0247C89.9217 3.85658 88.8281 2.99493 88.166 2.67497C87.5123 2.35484 86.9122 2.13345 86.3818 2.01436C85.5225 1.82554 84.6468 1.80908 84.614 1.80908H84.5934C84.2687 1.80908 83.2203 1.89526 82.2872 2.28088C81.6869 2.53128 81.2306 2.92503 80.7373 3.38037C79.7176 4.31582 79.5779 5.79685 79.5696 5.87082L79.5738 12.0043C79.5738 12.0126 79.5738 12.6485 79.7136 13.2967C79.8081 13.7685 80.0218 14.269 80.1821 14.5808C80.3672 14.9255 80.7125 15.3891 81.0498 15.7337C81.4115 16.103 81.7898 16.3697 81.8022 16.3819L86.2217 19.2948C86.2257 19.2989 86.6904 19.5944 87.0684 19.9103C87.3151 20.1237 87.5084 20.3534 87.6031 20.4969L87.6237 20.5258C87.7182 20.6776 87.9033 20.9482 87.9936 21.2805C88.1294 21.7934 88.1417 22.3884 88.1417 22.3965V25.1781C88.1417 25.2108 88.15 26.0233 87.9526 26.7578C87.8622 27.09 87.6772 27.4512 87.4593 27.7138C87.1755 28.0585 86.7274 28.5178 86.1807 28.756C85.6049 29.0062 84.6102 29.0306 84.6019 29.0306C84.2524 29.0306 83.9442 28.9816 83.6645 28.8912C83.1465 28.7232 82.5874 28.3415 82.168 27.8779C81.8678 27.5416 81.5883 27.0245 81.4403 26.5241C81.2718 25.9496 81.2636 25.4532 81.2636 25.4327L81.2388 22.1176H79.5655L79.5488 31.3694H81.2879L81.2674 30.0195C81.2634 29.8884 81.3085 29.6464 81.5018 29.5765C81.5346 29.5643 81.5715 29.556 81.6126 29.556C81.7853 29.556 81.9623 29.6872 81.999 29.716C82.2292 29.8638 83.4051 30.6102 84.1164 30.8976C84.885 31.2094 85.9498 31.394 86.9656 31.394C87.8741 31.394 88.6715 31.3039 89.6048 30.8649C90.2542 30.5571 90.8997 30.0319 91.5207 29.306C92.4704 28.19 92.5856 26.6145 92.5897 26.5407V21.3467C92.5897 21.3426 92.5856 20.7353 92.45 20.0952C92.3473 19.5988 92.1251 19.0573 91.9648 18.7455C91.8126 18.4418 91.5209 17.9865 91.1796 17.6295C90.7233 17.1496 90.1766 16.7597 90.1601 16.7475L85.8227 13.9412C85.7773 13.9125 84.7454 13.2068 84.4946 12.8376C84.3877 12.6856 84.1164 12.2796 83.985 11.8898C83.8121 11.381 83.7958 10.8928 83.7958 10.8724V7.28654C83.7958 7.26177 83.7958 6.70379 84.0671 6.10493C84.1987 5.80126 84.4455 5.46892 84.7578 5.16542C85.3004 4.64018 86.1639 4.28731 86.9078 4.28731C87.6521 4.28731 89.1156 4.71805 89.868 5.85877L89.8802 5.87523C90.1312 6.26491 90.3901 6.65884 90.5176 7.08958C90.8095 8.04555 90.7683 8.97675 90.7642 9.04648V10.3799H92.5732V2.44934H90.686V3.74155H90.6862Z" fill="#4B4B4B"></path><path d="M18.0439 44.2031C18.0398 44.2279 17.7068 46.6773 17.5958 47.2558C17.4888 47.8384 17.2462 48.4085 17.1682 48.597L17.1517 48.6425C16.9051 49.2578 16.4734 49.8241 15.8648 50.3327C14.5863 51.4076 13.1926 51.457 13.1761 51.457C13.1761 51.457 9.69808 51.4527 9.68975 51.4527C9.62396 51.4527 9.28685 51.4281 9.28685 50.9402L9.29501 5.77288V5.76881V5.76474C9.29909 5.72775 9.38953 4.82098 10.1255 4.1071C10.5817 3.65176 11.2643 3.45904 11.5562 3.39321V2.46167H1.77148L1.77556 3.36013C2.12916 3.44631 2.86917 3.68433 3.34602 4.2669C3.98335 5.04237 4.00393 5.94507 4.00393 5.95305C4.008 7.72961 4.09436 49.4012 4.09436 49.4627C4.09436 49.5079 4.13959 50.6281 3.67922 51.3173C3.06263 52.2528 2.23201 52.5112 1.94029 52.5807L1.93213 53.7377L19.3843 53.6926L20.5725 39.5093L18.6156 39.5054L18.0439 44.2031Z" fill="#4B4B4B"></path><path d="M95.7381 3.44609C95.8903 3.48714 96.1575 3.55687 96.4247 3.68818C96.7947 3.86868 97.1319 4.15183 97.2674 4.30366C97.358 4.39816 97.6459 4.7305 97.7813 5.12833C97.9376 5.57552 97.95 6.05546 97.95 6.07598L98.0034 27.5293C98.0034 27.5457 97.991 27.9765 97.8718 28.4196C97.7649 28.793 97.5592 29.1582 97.4153 29.3304C97.2878 29.4823 96.9548 29.8189 96.5684 30.0156C96.2765 30.1675 95.9846 30.2454 95.8204 30.2864V31.3779C96.3836 31.4312 98.9161 31.6855 100.306 31.7759C100.91 31.817 101.309 31.866 103.537 32.1166L104.586 32.2396V31.2509C104.458 31.222 104.244 31.173 104.018 31.0663C103.64 30.898 103.233 30.6067 103.073 30.4343C102.925 30.2825 102.645 29.9091 102.509 29.5685C102.341 29.1336 102.329 28.7358 102.324 28.6903L102.296 18.487C102.291 18.4295 102.283 18.2079 102.394 18.0685C102.464 17.9904 102.591 17.9536 102.797 17.9536C102.863 17.9536 102.916 17.9575 102.933 17.9618L105.182 17.9577C105.733 17.966 106.23 18.2081 106.67 18.6716C107.069 19.0984 107.258 19.5497 107.279 19.6029C107.393 19.882 107.464 20.1609 107.5 20.3168H109.12V13.74H107.464C107.439 13.8836 107.381 14.1257 107.274 14.38C107.126 14.7328 106.863 15.1061 106.732 15.2497C106.572 15.4262 106.325 15.6723 106.021 15.8159C105.675 15.9758 105.293 16.0006 105.276 16.0047H105.272H102.695C102.592 16.0047 102.464 15.9882 102.378 15.9226C102.267 15.8201 102.275 15.6355 102.279 15.5863L102.263 5.1324C102.255 5.09151 102.238 4.89455 102.357 4.7836C102.44 4.69742 102.571 4.68113 102.674 4.68113C102.686 4.68113 102.695 4.68113 102.695 4.68113L105.807 4.6852C105.815 4.6852 106.411 4.69352 107.003 4.90269C107.402 5.03807 107.813 5.32936 108.039 5.53447C108.253 5.72311 108.639 6.17455 108.833 6.62175C109.063 7.16734 109.079 7.67187 109.079 7.70071V9.48542H111.065V2.44092H95.7344L95.7381 3.44609Z" fill="#4B4B4B"></path><path d="M56.0564 23.115H53.7541L53.7787 30.3933C53.7787 30.4016 53.7787 31.1606 53.5732 31.8867C53.4046 32.4818 53.0469 33.0805 52.7839 33.3677C52.6236 33.536 52.0521 34.1103 51.3613 34.377C50.6008 34.6766 49.7168 34.6805 49.7086 34.6805C49.5072 34.6805 49.1083 34.6599 48.6808 34.5125C48.208 34.3481 47.6941 33.979 47.4145 33.704C47.1267 33.4047 46.7115 32.8467 46.5017 32.3093C46.2591 31.6897 46.2386 31.1072 46.2345 31.0824C46.2345 31.0824 46.2756 9.1081 46.2591 8.02489C46.2386 6.62987 46.6415 5.64946 47.5705 4.85347C48.0351 4.45157 48.9273 3.98775 49.918 3.98775C50.6212 3.98775 51.2748 4.21746 51.8708 4.67297C53.6018 5.98995 53.7126 8.70179 53.7126 8.73453V12.3737H55.9862L55.9656 2.46956H53.6222V3.10151C53.6222 3.12628 53.6633 3.38058 53.4454 3.47898C53.1863 3.594 52.8781 3.41332 52.8327 3.38465C52.6107 3.25741 52.0228 2.91693 51.2869 2.6175C50.3536 2.24003 49.2683 1.96113 48.3886 1.87885C48.224 1.86239 48.0514 1.85425 47.8787 1.85425C46.2137 1.85425 44.7008 2.60902 44.6843 2.61733C43.7222 3.03992 42.5423 4.13535 42.1064 4.99683C41.6171 5.94856 41.5802 6.82666 41.5802 6.8309V31.9479C41.5802 31.9601 41.5597 33.1745 41.9954 34.2865C42.3406 35.1686 43.1136 35.9277 43.5371 36.305C44.1168 36.8175 45.3583 37.2444 46.2588 37.4251C46.8426 37.5401 47.4388 37.6013 48.039 37.6013C48.1048 37.6013 48.5365 37.5974 48.557 37.5974C49.0833 37.5974 50.1112 37.548 51.0608 37.2199C52.0393 36.8837 53.0671 36.2107 54.0538 35.2753C54.6294 34.7173 55.3735 33.6997 55.7147 32.6537C56.097 31.4843 56.0559 30.2452 56.0559 30.2289V23.115H56.0564Z" fill="#4B4B4B"></path><path d="M138.721 34.9227L138.717 34.939C138.606 35.2508 138.014 36.8347 136.694 37.3516C136.612 37.3926 136.217 37.5567 135.531 37.5567C134.746 37.5567 133.887 37.3477 132.962 36.9375L132.748 36.8387V36.3546C132.748 36.0594 132.727 6.24053 132.748 5.88766C132.764 5.52257 132.834 5.31323 132.982 4.97274C133.142 4.61156 133.484 4.23409 133.627 4.11517C134.146 3.68036 134.692 3.48747 134.931 3.42181V2.44531H125.82L125.783 3.45048C126.137 3.57772 127.025 3.9428 127.37 4.36557C127.53 4.56236 127.757 4.92762 127.859 5.30508C128.007 5.822 128.007 6.32654 128.007 6.34724V33.2573C128.007 33.2778 127.991 33.7864 127.859 34.2418C127.761 34.6113 127.563 34.8779 127.419 35.0379C127.247 35.2347 126.93 35.4315 126.614 35.5426C126.33 35.641 126.046 35.6821 125.886 35.7026V36.8348C126.482 37.0237 129.627 38.0164 131.872 38.8084C134.092 39.5877 138.483 41.3193 139.359 41.6639L141.439 28.8878L140.378 28.8836C139.584 31.7637 138.733 34.8734 138.721 34.9227Z" fill="#4B4B4B"></path><path d="M122.066 34.492C121.658 34.2375 121.219 33.8395 121.075 33.6385C120.992 33.5196 120.701 33.1053 120.565 32.654C120.417 32.1617 120.421 31.6733 120.421 31.6528L120.417 6.17065V6.16657C120.417 6.15826 120.462 5.66187 120.59 5.20229C120.672 4.91932 120.816 4.6321 120.923 4.47619C121.063 4.28754 121.367 3.98794 121.634 3.78691C121.786 3.66798 121.93 3.5857 122.016 3.54075V2.43701L114.086 2.46585V3.48324C114.197 3.54075 114.382 3.64746 114.567 3.78691C114.801 3.96334 115.019 4.16014 115.118 4.29569L115.122 4.30383C115.225 4.43921 115.43 4.71404 115.553 5.04248C115.693 5.42792 115.73 5.85069 115.734 5.89989V5.90396L115.759 29.8026C115.759 29.8192 115.759 30.2294 115.656 30.6602C115.574 31.0336 115.389 31.4399 115.262 31.6121C115.225 31.6653 114.867 32.1369 114.402 32.3997C114.106 32.568 113.794 32.6459 113.617 32.6788V33.7498C114.472 33.9507 121.581 35.6451 122.658 35.9118L122.654 34.7713C122.522 34.726 122.296 34.6354 122.066 34.492Z" fill="#4B4B4B"></path><path d="M167.602 52.4496C167.224 52.3102 166.87 52.0845 166.718 51.9288C166.57 51.7727 166.246 51.3913 166.098 51.0507C165.892 50.5706 165.888 50.1441 165.888 50.1235L165.868 6.08031C165.868 6.06385 165.884 5.62904 166.04 5.18999C166.168 4.82491 166.431 4.47611 166.612 4.29577C166.809 4.0905 167.134 3.86486 167.426 3.72948C167.722 3.5941 168.018 3.50385 168.182 3.4628V2.42896H158.957L154.891 22.8277V22.836L154.886 22.8401C154.886 22.8482 154.829 23.0165 154.755 23.0985C154.677 23.1928 154.525 23.2052 154.484 23.2093H154.479L153.341 23.1969H153.337H153.333C153.316 23.1969 153.135 23.1763 153.012 23.0369C152.909 22.9137 152.852 22.6964 152.843 22.6514L148.757 2.44117H141.196L141.208 3.47518C141.373 3.51216 141.669 3.59003 141.96 3.7378C142.326 3.91406 142.676 4.20942 142.861 4.42708C143.042 4.63626 143.276 5.03018 143.379 5.44446C143.482 5.84653 143.465 6.22807 143.461 6.26913L143.482 38.7177C143.482 38.7382 143.49 39.1077 143.35 39.4933C143.227 39.842 142.972 40.1948 142.783 40.3754C142.627 40.5311 142.331 40.7484 141.969 40.8962C141.677 41.0151 141.352 41.0933 141.188 41.1301V42.4634C141.525 42.6112 142.7 43.1447 144.156 43.8338C145.541 44.4943 147.128 45.2655 147.667 45.5283V44.4902C147.527 44.4286 147.239 44.2851 146.96 44.1046C146.635 43.8995 146.306 43.6123 146.158 43.411C145.981 43.1691 145.735 42.7547 145.615 42.3772C145.451 41.8725 145.443 41.3968 145.443 41.3722L145.467 14.7124C145.467 14.7041 145.464 14.5032 145.574 14.4048C145.648 14.3308 145.755 14.3185 145.829 14.3185C145.85 14.3185 145.875 14.3185 145.883 14.3225C145.973 14.3185 147.276 14.3185 147.309 14.3185C147.391 14.3185 147.466 14.339 147.515 14.38C147.601 14.454 147.634 14.6097 147.646 14.6713L153.085 40.7527L158.323 14.6835C158.34 14.6179 158.381 14.4579 158.463 14.38C158.521 14.3308 158.607 14.3103 158.718 14.3103C158.738 14.3103 158.755 14.3103 158.763 14.3103L160.12 14.3225C160.132 14.3185 160.145 14.3185 160.165 14.3185C160.239 14.3185 160.35 14.3351 160.441 14.413C160.576 14.5443 160.572 14.7575 160.572 14.778L160.547 49.4997V49.516C160.543 49.9057 160.498 50.8659 160.198 51.3418C159.877 51.8546 159.302 52.4946 158.368 52.6545V53.742H168.244L168.235 52.6094C168.092 52.5891 167.849 52.5358 167.602 52.4496Z" fill="#4B4B4B"></path></svg> 