<svg width="38" height="38" viewBox="0 0 38 38" fill="none" xmlns="http://www.w3.org/2000/svg">
<g clip-path="url(#clip0)">
<path d="M26.9167 4.75V7.91666C27.7563 7.91766 28.5612 8.25161 29.1548 8.84526C29.7485 9.43891 30.0824 10.2438 30.0834 11.0833H33.2501C33.2482 9.4042 32.5803 7.79439 31.393 6.60707C30.2057 5.41975 28.5959 4.75189 26.9167 4.75Z" fill="#39B4BD"/>
<path d="M26.9167 0V3.16667C29.0157 3.16902 31.0279 4.00386 32.5121 5.48801C33.9962 6.97216 34.8311 8.98443 34.8334 11.0833H38.0001C37.9968 8.14486 36.828 5.32769 34.7502 3.24988C32.6724 1.17207 29.8552 0.00330021 26.9167 0V0Z" fill="#39B4BD"/>
<path d="M7.91666 11.0833C7.91766 10.2438 8.25161 9.43891 8.84526 8.84526C9.43891 8.25161 10.2438 7.91766 11.0833 7.91666V4.75C9.4042 4.75189 7.79439 5.41975 6.60707 6.60707C5.41975 7.79439 4.75189 9.4042 4.75 11.0833H7.91666Z" fill="#39B4BD"/>
<path d="M11.0833 3.16667V0C8.14486 0.00330021 5.32769 1.17207 3.24988 3.24988C1.17207 5.32769 0.00330021 8.14486 0 11.0833H3.16667C3.16902 8.98443 4.00386 6.97216 5.48801 5.48801C6.97216 4.00386 8.98443 3.16902 11.0833 3.16667Z" fill="#39B4BD"/>
<path d="M23.75 10.317V9.5C23.75 8.24022 23.2496 7.03204 22.3588 6.14124C21.468 5.25045 20.2598 4.75 19 4.75C17.7403 4.75 16.5321 5.25045 15.6413 6.14124C14.7505 7.03204 14.25 8.24022 14.25 9.5V10.317C11.0808 11.4375 8.40965 13.6423 6.70878 16.5418C5.00791 19.4412 4.38681 22.8486 4.95525 26.1617C5.52369 29.4748 7.24507 32.4803 9.81515 34.647C12.3852 36.8137 15.6385 38.002 19 38.002C22.3615 38.002 25.6148 36.8137 28.1849 34.647C30.755 32.4803 32.4764 29.4748 33.0448 26.1617C33.6132 22.8486 32.9921 19.4412 31.2913 16.5418C29.5904 13.6423 26.9193 11.4375 23.75 10.317ZM19 36.4167C16.4948 36.4167 14.0458 35.6738 11.9628 34.2819C9.87978 32.8901 8.25627 30.9119 7.29756 28.5973C6.33885 26.2828 6.088 23.7359 6.57675 21.2789C7.0655 18.8218 8.27188 16.5648 10.0433 14.7933C11.8148 13.0218 14.0718 11.8155 16.5289 11.3267C18.986 10.838 21.5328 11.0888 23.8474 12.0475C26.1619 13.0062 28.1401 14.6298 29.532 16.7128C30.9238 18.7958 31.6667 21.2448 31.6667 23.75C31.6629 27.1083 30.3272 30.3279 27.9526 32.7025C25.5779 35.0772 22.3583 36.4129 19 36.4167Z" fill="#39B4BD"/>
<path d="M29.9684 22.1663C29.623 19.8 28.5231 17.6084 26.8322 15.9175C25.1412 14.2266 22.9497 13.1266 20.5834 12.7812V15.8329H17.4167V12.7812C15.0505 13.1266 12.8589 14.2266 11.168 15.9175C9.47709 17.6084 8.37713 19.8 8.03174 22.1663H11.0834V25.3329H8.03174C8.37713 27.6992 9.47709 29.8907 11.168 31.5817C12.8589 33.2726 15.0505 34.3725 17.4167 34.7179V31.6663H20.5834V34.7179C22.9497 34.3725 25.1412 33.2726 26.8322 31.5817C28.5231 29.8907 29.623 27.6992 29.9684 25.3329H26.9167V22.1663H29.9684ZM20.1197 24.8692C19.8574 25.122 19.5176 25.279 19.1551 25.315C18.7926 25.3509 18.4285 25.2636 18.1217 25.0671L13.3717 21.9005L15.1282 19.2658L18.7982 21.7122L24.2138 16.2966L26.453 18.5359L20.1197 24.8692Z" fill="#39B4BD"/>
</g>
<defs>
<clipPath id="clip0">
<rect width="38" height="38" fill="white"/>
</clipPath>
</defs>
</svg>
