<?xml version="1.0" encoding="UTF-8"?> <svg xmlns="http://www.w3.org/2000/svg" width="97" height="33" viewBox="0 0 97 33" fill="none"><path d="M0 -0.104492V31.4688H6.81156V21.0155C8.41744 21.7622 10.2604 22.2955 12.2867 22.2955C16.8133 22.2955 20.6933 19.7355 22.5256 16.1088C21.8789 14.7222 21.5556 13.1222 21.5556 11.4155C21.5556 9.60217 21.8789 8.00217 22.5256 6.61551C20.6933 2.98884 16.8133 0.428841 12.2867 0.428841C10.2604 0.428841 8.41744 0.962173 6.81156 1.70884V-0.104492H0H0ZM61.5411 -0.104492V1.70884C59.9244 0.855507 58.0922 0.428841 56.26 0.428841C51.6256 0.428841 47.7456 2.88217 45.9133 6.61551C46.56 8.00217 46.8833 9.60217 46.8833 11.4155C46.8833 13.0155 46.56 14.6155 45.9133 16.1088C47.7456 19.7355 51.6256 22.2955 56.26 22.2955C58.0922 22.2955 59.9244 21.7622 61.5411 20.9088C61.4333 25.1755 58.9544 25.8155 56.0444 25.8155C53.4578 25.8155 51.3022 25.3888 48.8233 24.4288V31.0422C51.1944 32.0022 53.7811 32.3222 56.26 32.3222C64.2356 32.3222 68.3311 27.9488 68.3311 19.5222V14.6155C69.84 18.9888 74.0433 22.2955 79.2167 22.2955C85.4678 22.2955 90.5333 17.2822 90.5333 11.4155C90.5333 5.33551 85.4678 0.428841 79.2167 0.428841C74.0433 0.428841 69.84 3.62884 68.3311 8.10884V0.00217387H61.5411V-0.104492ZM88.7011 0.108841V0.74884H89.8867V4.16217H90.6411V0.74884H91.8267V0.108841H88.7011ZM92.4733 0.108841V4.16217H93.2278V2.24217V0.962175L94.3055 4.16217H95.1678L96.1378 0.962175V1.92217V2.24217V4.16217H97V0.108841H95.7067L94.6289 3.20218L93.7667 0.108841H92.4733ZM34.2733 0.962175C28.0222 0.962175 23.1722 5.76218 23.1722 11.7355C23.1722 17.6022 28.0222 22.5088 34.2733 22.5088C40.5244 22.5088 45.59 17.6022 45.59 11.7355C45.59 5.76218 40.5244 0.962175 34.2733 0.962175ZM56.26 6.93551C58.6311 6.93551 60.7867 8.96217 60.7867 11.4155C60.7867 13.8688 58.6311 15.7888 56.26 15.7888C53.6733 15.7888 51.5178 13.8688 51.5178 11.4155C51.5178 8.96217 53.6733 6.93551 56.26 6.93551ZM79.2167 6.93551C81.6956 6.93551 83.7433 8.96217 83.7433 11.4155C83.7433 13.8688 81.6956 15.7888 79.2167 15.7888C76.63 15.7888 74.5822 13.8688 74.5822 11.4155C74.5822 8.96217 76.63 6.93551 79.2167 6.93551ZM12.2867 6.93551C14.8733 6.93551 16.8133 8.96217 16.8133 11.4155C16.8133 13.8688 14.8733 15.8955 12.2867 15.8955C9.67844 15.8955 7.60911 13.8688 7.60911 11.4155C7.60911 8.96217 9.67844 6.93551 12.2867 6.93551ZM34.2733 7.36217C36.86 7.36217 38.8 9.28218 38.8 11.7355C38.8 14.1888 36.86 16.1088 34.2733 16.1088C31.7944 16.1088 29.6389 14.1888 29.6389 11.7355C29.6389 9.28218 31.7944 7.36217 34.2733 7.36217Z" fill="#323333"></path></svg> 