<svg width="46" height="38" viewBox="0 0 46 38" fill="none" xmlns="http://www.w3.org/2000/svg">
<path d="M27.241 37.0077V24.8245C27.241 19.684 27.8064 15.2117 28.9374 11.4077C30.0683 7.60366 31.8161 4.10808 34.1807 0.920929H45.4386C42.8683 4.21089 40.8635 7.60366 39.4241 11.0992C37.9847 14.492 37.2651 17.6792 37.2651 20.6607H45.2843V37.0077H27.241ZM0.407229 37.0077V24.8245C0.407229 19.7868 0.921286 15.3659 1.9494 11.5619C3.08032 7.65506 4.82811 4.10808 7.19277 0.920929H18.6048C16.0345 4.21089 14.0297 7.60366 12.5904 11.0992C11.151 14.492 10.4313 17.6792 10.4313 20.6607H18.4506V37.0077H0.407229Z" fill="#39B4BD"/>
</svg>
