<?xml version="1.0" encoding="UTF-8"?> <svg xmlns="http://www.w3.org/2000/svg" width="41" height="40" viewBox="0 0 41 40" fill="none"><g clip-path="url(#clip0)"><path d="M5.13702 35.5779C6.23618 35.2599 7.22742 34.5499 7.78699 33.3939C8.00082 32.9519 7.8989 32.4359 7.57115 32.1079C7.48522 32.0199 7.3813 31.9479 7.26539 31.8899C6.8537 31.6899 6.38207 31.7659 6.05432 32.0459C5.71658 30.4859 7.12549 29.2959 8.63633 29.4519C4.73733 27.5299 0.632487 30.6759 -0.644531 34.9359C-0.0789661 34.3279 0.520573 33.8859 1.03018 33.6239C1.54179 33.3619 2.14532 33.4719 2.53103 33.8579C2.62296 33.9519 2.70289 34.0599 2.76685 34.1799C3.0906 34.8119 2.84479 35.5839 2.21727 35.9139C1.89951 36.0859 -0.540611 37.5299 0.0129632 41.1219C2.01143 38.7559 4.89521 39.8719 7.92088 38.8559C10.8526 37.8759 12.3155 34.4839 10.6388 31.3099C10.9446 33.4819 8.99206 36.4959 5.13702 35.5779Z" fill="#39B4BD"></path><path d="M11.1643 14.0223C5.72648 14.1343 3.758 14.8923 0.354614 20.0003C0.354614 20.0003 4.19566 20.0023 7.77891 21.0283C8.51834 19.0523 9.6095 16.6123 11.1643 14.0223Z" fill="#39B4BD"></path><path d="M29.3824 0.988C29.854 6.266 34.0628 10.478 39.3347 10.95C40.322 7.466 40.324 3.98 40.324 0C36.347 0 32.8657 0.00199991 29.3824 0.988Z" fill="#39B4BD"></path><path d="M27.4517 1.65234C24.566 2.79434 21.6242 4.71634 18.3407 8.00034C10.3469 16.0003 8.34842 26.0003 8.34842 26.0003L14.3438 32.0003C14.3438 32.0003 24.3361 30.0003 32.33 22.0003C35.6135 18.7163 37.534 15.7703 38.6731 12.8823C32.8296 12.1363 28.1972 7.50034 27.4517 1.65234ZM24.3361 20.0003C22.1298 20.0003 20.3392 18.2083 20.3392 16.0003C20.3392 13.7923 22.1298 12.0003 24.3361 12.0003C26.5424 12.0003 28.3331 13.7923 28.3331 16.0003C28.3331 18.2083 26.5424 20.0003 24.3361 20.0003Z" fill="#39B4BD"></path><path d="M20.3393 39.9995C25.4454 36.5935 26.2028 34.6235 26.3107 29.1815C23.7227 30.7375 21.2866 31.8295 19.3121 32.5695C20.3373 36.1555 20.3393 39.9995 20.3393 39.9995Z" fill="#39B4BD"></path></g><defs><clipPath id="clip0"><rect width="39.9693" height="40" fill="white" transform="translate(0.354614)"></rect></clipPath></defs></svg> 