<?xml version="1.0" standalone="no"?>
<!DOCTYPE svg PUBLIC "-//W3C//DTD SVG 20010904//EN"
 "http://www.w3.org/TR/2001/REC-SVG-20010904/DTD/svg10.dtd">
<svg version="1.0" xmlns="http://www.w3.org/2000/svg"
 width="512.000000pt" height="512.000000pt" viewBox="0 0 512.000000 512.000000"
 preserveAspectRatio="xMidYMid meet">
<metadata>
Created by potrace 1.11, written by Peter Selinger 2001-2013
</metadata>
<g transform="translate(0.000000,512.000000) scale(0.100000,-0.100000)"
fill="#000000" stroke="none">
<path d="M2807 4893 c-26 -4 -27 -7 -21 -41 46 -261 253 -485 514 -558 93 -26
494 -27 660 -1 132 21 291 56 303 67 12 11 -118 118 -248 205 -204 137 -455
241 -700 290 -176 35 -409 53 -508 38z"/>
<path d="M1811 4560 c-247 -162 -468 -395 -618 -648 -139 -236 -229 -502 -264
-785 -16 -135 -6 -471 18 -592 l18 -90 42 -13 41 -13 128 69 c328 176 673 314
1054 418 116 32 191 59 252 91 207 109 385 281 501 485 l27 47 -56 16 c-180
52 -455 179 -638 293 -114 72 -308 213 -302 219 2 3 55 -16 118 -40 263 -104
540 -172 853 -209 164 -19 579 -16 738 6 71 10 130 16 132 14 7 -7 -113 -177
-181 -259 -38 -45 -116 -124 -173 -175 l-104 -93 -57 -168 c-63 -186 -98 -275
-158 -405 -23 -49 -38 -88 -34 -88 4 0 129 38 279 84 307 96 398 113 517 97
65 -9 369 -90 611 -163 l70 -21 -68 -18 -68 -17 -212 35 c-187 31 -227 34
-342 30 -103 -4 -146 -10 -205 -29 -71 -24 -757 -326 -995 -438 -164 -78 -215
-95 -388 -129 -87 -18 -207 -48 -267 -67 -227 -74 -442 -232 -595 -437 l-28
-38 59 -60 c246 -251 629 -455 989 -528 154 -31 256 -41 415 -41 313 1 594 66
875 204 614 300 1021 875 1106 1559 19 160 7 473 -26 627 -78 372 -252 709
-503 972 l-73 76 -84 -53 c-229 -144 -479 -231 -758 -266 -140 -17 -402 -7
-542 21 -348 69 -669 239 -929 491 l-88 86 -87 -57z"/>
</g>
</svg>
