<?xml version="1.0" encoding="UTF-8"?> <svg xmlns="http://www.w3.org/2000/svg" width="162" height="34" viewBox="0 0 162 34" fill="none"><mask id="mask0" maskUnits="userSpaceOnUse" x="0" y="0" width="37" height="34"><path fill-rule="evenodd" clip-rule="evenodd" d="M0 0.36377H36.3212V33.0698H0V0.36377Z" fill="white"></path></mask><g mask="url(#mask0)"><path fill-rule="evenodd" clip-rule="evenodd" d="M22.2409 7.43325L22.2379 7.43621C22.0855 7.70508 21.8943 7.97083 21.6673 8.22502L21.5835 8.32358L19.5819 10.6153V10.6183L8.78969 22.9992C8.58634 23.2326 8.27405 23.3396 7.9702 23.2803C7.45412 23.1794 7.14612 22.646 7.31687 22.1486L13.6778 3.60587C13.7794 3.29817 13.9138 2.99922 14.0723 2.71835C15.3749 0.468583 18.2641 -0.305252 20.514 0.991489C21.6046 1.62185 22.3843 2.63787 22.7131 3.85384C23.0387 5.07276 22.8714 6.34268 22.2409 7.43325Z" fill="#E15E53"></path><path fill-rule="evenodd" clip-rule="evenodd" d="M36.1594 29.5817C35.9952 30.1882 35.7174 30.7499 35.3469 31.2338C34.9734 31.7179 34.5072 32.1302 33.9605 32.444C31.7104 33.7467 28.8212 32.9729 27.5217 30.7229C27.3603 30.4452 27.2289 30.1434 27.1212 29.8298L27.0794 29.7072L20.7636 11.2872C20.6634 10.9951 20.7265 10.6715 20.9293 10.4385C21.2741 10.0422 21.8899 10.0419 22.2348 10.438L35.003 25.0881L35.1167 25.2194C35.3409 25.4705 35.5321 25.7332 35.6872 26.0052C36.3177 27.0958 36.485 28.3656 36.1594 29.5817Z" fill="#F6BC60"></path><path fill-rule="evenodd" clip-rule="evenodd" d="M1.37947 31.6981C0.936454 31.2527 0.588888 30.7313 0.355003 30.1683C0.122601 29.6028 -0.00145613 28.993 1.28975e-05 28.3626C-0.00308651 25.7629 2.11166 23.6477 4.71003 23.647C5.03136 23.6462 5.35833 23.6833 5.68381 23.7469L5.81083 23.7718L8.7956 24.3568L24.9208 27.5125C25.2239 27.5716 25.4726 27.7881 25.5729 28.0801C25.7438 28.5768 25.4362 29.1102 24.9208 29.2112L5.84922 32.9435L5.67862 32.9763C5.34929 33.0448 5.02603 33.0789 4.7127 33.0777C3.45316 33.0783 2.2698 32.5883 1.37947 31.6981Z" fill="#00A760"></path></g><path fill-rule="evenodd" clip-rule="evenodd" d="M52.4302 17.6024C53.2659 18.456 53.684 19.541 53.684 20.8571V21.9242C53.684 23.3649 53.2659 24.57 52.4302 25.5392C51.5939 26.5088 50.2426 26.9932 48.3749 26.9932H41.4651C41.3225 26.9932 41.1983 26.9444 41.0917 26.8465C40.9849 26.7489 40.9316 26.6289 40.9316 26.4863V24.2986C40.9316 24.1565 40.9849 24.0364 41.0917 23.9386C41.1983 23.8409 41.3225 23.7917 41.4651 23.7917H46.9876C48.1435 23.7917 48.9618 23.6583 49.4422 23.3917C49.9224 23.1248 50.1624 22.6091 50.1624 21.8442V20.9638C50.1624 20.3948 49.9664 20.0125 49.5756 19.8166C49.184 19.6211 48.5083 19.5231 47.5479 19.5231H46.4007C44.5687 19.5231 43.2259 19.0429 42.3722 18.0824C41.5184 17.122 41.0917 15.9127 41.0917 14.4541V13.9205C41.0917 12.4799 41.5094 11.2752 42.3455 10.3056C43.1813 9.33638 44.5331 8.85156 46.4007 8.85156H52.7504C52.8925 8.85156 53.017 8.90077 53.1237 8.9983C53.2305 9.09627 53.284 9.21632 53.284 9.35846V11.5461C53.284 11.6887 53.2305 11.8088 53.1237 11.9063C53.017 12.0043 52.8925 12.0532 52.7504 12.0532H47.5212C46.4717 12.0532 45.7246 12.1866 45.2803 12.4532C44.8355 12.7201 44.6133 13.2361 44.6133 14.0006V14.3474C44.6133 15.1124 44.8087 15.6326 45.2001 15.9081C45.5911 16.1841 46.2674 16.3216 47.2277 16.3216H48.3749C50.2426 16.3216 51.5939 16.7485 52.4302 17.6024Z" fill="#323333"></path><path fill-rule="evenodd" clip-rule="evenodd" d="M63.0081 24.1656C63.3724 24.0235 63.626 23.7387 63.7685 23.312C63.964 22.6541 64.0619 21.6578 64.0619 20.3238C64.0619 18.9899 63.964 17.994 63.7685 17.3358C63.626 16.909 63.3724 16.6247 63.0081 16.4821C62.6433 16.34 62.141 16.2688 61.5008 16.2688C60.8606 16.2688 60.3577 16.34 59.9934 16.4821C59.6286 16.6247 59.3752 16.909 59.233 17.3358C59.0371 17.994 58.9396 18.9899 58.9396 20.3238C58.9396 21.6578 59.0371 22.6541 59.233 23.312C59.3752 23.7387 59.6286 24.0235 59.9934 24.1656C60.3577 24.3082 60.8606 24.379 61.5008 24.379C62.141 24.379 62.6433 24.3082 63.0081 24.1656ZM57.8191 26.6201C56.9474 26.1578 56.3292 25.4287 55.9649 24.4325C55.6001 23.4365 55.418 22.0672 55.418 20.3238C55.418 18.581 55.6001 17.207 55.9649 16.202C56.3292 15.1974 56.952 14.468 57.8324 14.0144C58.7128 13.5608 59.9354 13.334 61.5008 13.334C63.0835 13.334 64.3108 13.5653 65.1826 14.0276C66.0536 14.4904 66.672 15.2194 67.0368 16.2153C67.4009 17.2116 67.5835 18.581 67.5835 20.3238C67.5835 22.0672 67.4009 23.4411 67.0368 24.4457C66.672 25.4508 66.0495 26.1799 65.1691 26.6334C64.2887 27.0869 63.0656 27.3139 61.5008 27.3139C59.9175 27.3139 58.6903 27.0823 57.8191 26.6201Z" fill="#323333"></path><path fill-rule="evenodd" clip-rule="evenodd" d="M73.1727 22.6174C73.3061 23.2577 73.5505 23.6671 73.9064 23.8446C74.2086 24.0227 74.689 24.1114 75.3471 24.1114H78.842C78.9841 24.1114 79.1043 24.1648 79.2021 24.2717C79.2997 24.3782 79.3489 24.503 79.3489 24.6452V26.4859C79.3489 26.6284 79.2957 26.7485 79.1888 26.846C79.0821 26.944 78.9574 26.9928 78.8153 26.9928H74.9203C72.4299 26.9928 70.8025 26.1304 70.038 24.4049C69.6465 23.3557 69.4512 21.9863 69.4512 20.2964C69.4512 18.6424 69.6465 17.2908 70.038 16.2412C70.8025 14.5162 72.4299 13.6533 74.9203 13.6533H78.8153C78.9574 13.6533 79.0821 13.7025 79.1888 13.8002C79.2957 13.898 79.3489 14.0181 79.3489 14.1602V16.0011C79.3489 16.1436 79.2997 16.268 79.2021 16.3746C79.1043 16.4813 78.9841 16.5346 78.842 16.5346H75.3471C74.689 16.5346 74.2086 16.6239 73.9064 16.8016C73.2836 17.1041 72.9726 18.2689 72.9726 20.2964C72.9726 21.2034 73.0393 21.9773 73.1727 22.6174Z" fill="#323333"></path><path fill-rule="evenodd" clip-rule="evenodd" d="M81.3627 26.8469C81.2648 26.7493 81.216 26.6293 81.216 26.4867V14.1877C81.216 14.0456 81.2648 13.921 81.3627 13.8142C81.4603 13.7075 81.5803 13.6542 81.7229 13.6542H84.1505C84.2928 13.6542 84.4173 13.7075 84.5242 13.8142C84.6309 13.921 84.6843 14.0456 84.6843 14.1877V26.4867C84.6843 26.6293 84.6309 26.7493 84.5242 26.8469C84.4173 26.9448 84.2928 26.9936 84.1505 26.9936H81.7229C81.5803 26.9936 81.4603 26.9448 81.3627 26.8469ZM81.4426 11.5599C81.1134 11.231 80.9492 10.7287 80.9492 10.0527C80.9492 9.37696 81.1134 8.8745 81.4426 8.54517C81.7717 8.21628 82.274 8.05176 82.9501 8.05176C83.6258 8.05176 84.1282 8.21628 84.4575 8.54517C84.7862 8.8745 84.951 9.37696 84.951 10.0527C84.951 10.7287 84.7862 11.231 84.4575 11.5599C84.1282 11.8892 83.6258 12.0536 82.9501 12.0536C82.274 12.0536 81.7717 11.8892 81.4426 11.5599Z" fill="#323333"></path><path fill-rule="evenodd" clip-rule="evenodd" d="M90.8604 24.0982C91.2426 24.3207 91.8516 24.4317 92.6879 24.4317C93.5238 24.4317 94.1819 24.3428 94.6619 24.1648V21.5769C93.9684 21.3814 93.1948 21.2835 92.341 21.2835C91.594 21.2835 91.0646 21.4127 90.7536 21.6703C90.4422 21.9284 90.2868 22.2973 90.2868 22.7775C90.2868 23.4357 90.4777 23.8759 90.8604 24.0982ZM96.9963 14.9606C97.7522 15.8324 98.1303 16.9261 98.1303 18.2421V26.2991C96.6363 26.9753 94.7509 27.3131 92.4744 27.3131C90.411 27.3131 88.9528 26.9352 88.0991 26.179C87.2454 25.4233 86.8184 24.2894 86.8184 22.7775C86.8184 21.4436 87.2675 20.4256 88.1658 19.7229C89.0637 19.0204 90.3576 18.6689 92.0477 18.6689C93.0615 18.6689 93.9324 18.7669 94.6619 18.9624V18.4555C94.6619 17.9044 94.5994 17.4951 94.4753 17.2283C94.3508 16.9615 94.1285 16.7747 93.8084 16.668C93.4881 16.5613 92.9813 16.5171 92.2877 16.5346L88.4192 16.5613C88.2767 16.5613 88.1568 16.508 88.0592 16.4012C87.961 16.2945 87.9123 16.1703 87.9123 16.0277V14.1602C87.9123 14.0181 87.9657 13.898 88.0724 13.8002C88.1791 13.7025 88.3033 13.6533 88.4459 13.6533H93.3015C95.0089 13.6533 96.2403 14.0894 96.9963 14.9606Z" fill="#323333"></path><path fill-rule="evenodd" clip-rule="evenodd" d="M100.812 26.0055C100.269 25.3477 99.998 24.3873 99.998 23.1242V8.85096C99.998 8.70897 100.047 8.58417 100.145 8.47746C100.242 8.37074 100.363 8.31738 100.505 8.31738H102.933C103.075 8.31738 103.2 8.37074 103.306 8.47746C103.413 8.58417 103.466 8.70897 103.466 8.85096V22.9107C103.466 23.2842 103.551 23.5777 103.72 23.7911C103.889 24.0046 104.142 24.1113 104.48 24.1113H105.121C105.423 24.1113 105.623 24.1872 105.721 24.338C105.818 24.4894 105.868 24.7074 105.868 24.9917V26.0855C105.868 26.3702 105.809 26.5924 105.694 26.7525C105.578 26.9126 105.352 26.9926 105.014 26.9926H103.226C102.159 26.9926 101.354 26.6637 100.812 26.0055Z" fill="#323333"></path><path fill-rule="evenodd" clip-rule="evenodd" d="M115.176 23.1651C115.62 22.534 115.843 21.5423 115.843 20.1905C115.843 18.7857 115.607 17.7806 115.136 17.1757C114.665 16.5713 113.833 16.2688 112.642 16.2688C111.841 16.2688 111.183 16.3579 110.667 16.5354V24.1122H113.122C114.046 24.1122 114.731 23.7968 115.176 23.1651ZM119.311 20.1905C119.311 22.414 118.782 24.1035 117.724 25.2594C116.665 26.4158 115.274 26.9936 113.549 26.9936H110.667V31.2889C110.667 31.431 110.614 31.5511 110.507 31.6492C110.401 31.7467 110.276 31.7958 110.134 31.7958H107.706C107.564 31.7958 107.443 31.7467 107.346 31.6492C107.248 31.5511 107.199 31.431 107.199 31.2889V14.6146C108.675 13.761 110.561 13.334 112.855 13.334C117.159 13.334 119.311 15.6196 119.311 20.1905Z" fill="#323333"></path><path fill-rule="evenodd" clip-rule="evenodd" d="M128.369 24.1656C128.734 24.0235 128.987 23.7387 129.13 23.312C129.325 22.6541 129.423 21.6578 129.423 20.3238C129.423 18.9899 129.325 17.994 129.13 17.3358C128.987 16.909 128.734 16.6247 128.369 16.4821C128.005 16.34 127.502 16.2688 126.862 16.2688C126.222 16.2688 125.719 16.34 125.355 16.4821C124.99 16.6247 124.737 16.909 124.594 17.3358C124.398 17.994 124.301 18.9899 124.301 20.3238C124.301 21.6578 124.398 22.6541 124.594 23.312C124.737 23.7387 124.99 24.0235 125.355 24.1656C125.719 24.3082 126.222 24.379 126.862 24.379C127.502 24.379 128.005 24.3082 128.369 24.1656ZM123.18 26.6201C122.309 26.1578 121.691 25.4287 121.326 24.4325C120.962 23.4365 120.779 22.0672 120.779 20.3238C120.779 18.581 120.962 17.207 121.326 16.202C121.691 15.1974 122.313 14.468 123.194 14.0144C124.074 13.5608 125.297 13.334 126.862 13.334C128.445 13.334 129.672 13.5653 130.544 14.0276C131.415 14.4904 132.033 15.2194 132.398 16.2153C132.762 17.2116 132.945 18.581 132.945 20.3238C132.945 22.0672 132.762 23.4411 132.398 24.4457C132.033 25.4508 131.411 26.1799 130.53 26.6334C129.65 27.0869 128.427 27.3139 126.862 27.3139C125.279 27.3139 124.052 27.0823 123.18 26.6201Z" fill="#323333"></path><path fill-rule="evenodd" clip-rule="evenodd" d="M134.826 26.8469C134.728 26.7493 134.679 26.6293 134.679 26.4867V14.1877C134.679 14.0456 134.728 13.921 134.826 13.8142C134.923 13.7075 135.043 13.6542 135.186 13.6542H137.613C137.756 13.6542 137.88 13.7075 137.987 13.8142C138.094 13.921 138.147 14.0456 138.147 14.1877V26.4867C138.147 26.6293 138.094 26.7493 137.987 26.8469C137.88 26.9448 137.756 26.9936 137.613 26.9936H135.186C135.043 26.9936 134.923 26.9448 134.826 26.8469ZM134.906 11.5599C134.576 11.231 134.412 10.7287 134.412 10.0527C134.412 9.37696 134.576 8.8745 134.906 8.54517C135.234 8.21628 135.737 8.05176 136.413 8.05176C137.089 8.05176 137.591 8.21628 137.92 8.54517C138.249 8.8745 138.414 9.37696 138.414 10.0527C138.414 10.7287 138.249 11.231 137.92 11.5599C137.591 11.8892 137.089 12.0536 136.413 12.0536C135.737 12.0536 135.234 11.8892 134.906 11.5599Z" fill="#323333"></path><path fill-rule="evenodd" clip-rule="evenodd" d="M152.127 18.8565V26.4867C152.127 26.6292 152.074 26.7493 151.967 26.8468C151.861 26.9448 151.736 26.9936 151.594 26.9936H149.166C149.024 26.9936 148.904 26.9448 148.806 26.8468C148.708 26.7493 148.659 26.6292 148.659 26.4867V18.9099C148.659 17.9853 148.459 17.3137 148.059 16.8956C147.659 16.4779 146.969 16.2688 145.991 16.2688C145.191 16.2688 144.533 16.3846 144.017 16.6155V26.4867C144.017 26.6292 143.964 26.7493 143.857 26.8468C143.75 26.9448 143.626 26.9936 143.484 26.9936H141.056C140.913 26.9936 140.793 26.9448 140.696 26.8468C140.598 26.7493 140.549 26.6292 140.549 26.4867V14.8814C141.954 13.8501 143.75 13.334 145.938 13.334C150.064 13.334 152.127 15.1748 152.127 18.8565Z" fill="#323333"></path><path fill-rule="evenodd" clip-rule="evenodd" d="M158.824 16.5351V22.9914C158.824 23.3117 158.908 23.5783 159.077 23.7918C159.246 24.0052 159.5 24.1119 159.838 24.1119H161.118C161.616 24.1119 161.865 24.45 161.865 25.1257V26.0862C161.865 26.3709 161.807 26.593 161.692 26.7531C161.576 26.9132 161.349 26.9932 161.011 26.9932H158.584C156.432 26.9932 155.356 25.7039 155.356 23.1248V16.5351H153.461C153.319 16.5351 153.195 16.4864 153.088 16.3885C152.981 16.2909 152.928 16.1708 152.928 16.0282V14.1874C152.928 14.0452 152.981 13.9206 153.088 13.8139C153.195 13.7072 153.319 13.6538 153.461 13.6538H155.356V10.7193C155.356 10.577 155.404 10.4523 155.502 10.3458C155.6 10.2389 155.72 10.1855 155.862 10.1855H158.29C158.432 10.1855 158.557 10.2389 158.664 10.3458C158.77 10.4523 158.824 10.577 158.824 10.7193V13.6538H161.332C161.474 13.6538 161.598 13.703 161.705 13.8007C161.812 13.8985 161.865 14.0186 161.865 14.1607V16.0015C161.865 16.1441 161.812 16.2685 161.705 16.375C161.598 16.4818 161.474 16.5351 161.332 16.5351H158.824Z" fill="#323333"></path></svg> 