<svg width="18" height="17" viewBox="0 0 18 17" fill="none" xmlns="http://www.w3.org/2000/svg">
<g clip-path="url(#clip0)">
<path d="M0 9.66211V10.1417C0 10.9351 0.709664 11.5806 1.58203 11.5806H4.42013L3.74702 12.8049C3.57121 13.1237 3.82827 13.4991 4.21875 13.4991H9.49219V9.66211H0Z" fill="#39B4BD"/>
<path d="M14.3086 0.0057373H1.58203C0.709664 0.0057373 0 0.651178 0 1.4446V8.70285H9.49219V7.26399C9.49219 5.94174 10.6751 4.86589 12.1289 4.86589H15.8906V1.4446C15.8906 0.651178 15.181 0.0057373 14.3086 0.0057373Z" fill="#39B4BD"/>
<path d="M16.418 5.82507H12.1289C11.2565 5.82507 10.5469 6.47051 10.5469 7.26393V7.74355C12.2975 7.74355 16.5087 7.74355 18 7.74355V7.26393C18 6.47051 17.2903 5.82507 16.418 5.82507Z" fill="#39B4BD"/>
<path d="M10.5469 8.70288V13.4991C12.2975 13.4991 16.5087 13.4991 18 13.4991V8.70288C16.5027 8.70288 12.2956 8.70288 10.5469 8.70288Z" fill="#39B4BD"/>
<path d="M10.5469 14.4583V14.9379C10.5469 15.7313 11.2565 16.3767 12.1289 16.3767H16.418C17.2903 16.3767 18 15.7313 18 14.9379V14.4583C16.5027 14.4583 12.2956 14.4583 10.5469 14.4583Z" fill="#39B4BD"/>
</g>
<defs>
<clipPath id="clip0">
<rect width="18" height="16.371" fill="white" transform="translate(0 0.0057373)"/>
</clipPath>
</defs>
</svg>
