<?xml version="1.0" encoding="UTF-8"?> <svg xmlns="http://www.w3.org/2000/svg" width="58" height="47" viewBox="0 0 58 47" fill="none"><path fill-rule="evenodd" clip-rule="evenodd" d="M23.8588 16.0779C22.6348 23.058 27.3479 29.7303 34.3755 30.9473C41.41 32.1642 48.1069 27.4852 49.3309 20.4911C50.555 13.5041 45.8488 6.83871 38.8143 5.62174C31.7867 4.41177 25.0828 9.08381 23.8588 16.0779ZM25.3783 28.0727C27.6856 30.6885 30.7667 32.3321 34.0378 32.8986C34.2137 32.9266 34.3825 32.9546 34.5584 32.9825L33.7072 44.3339H2.84653L2.02349 33.3322C1.74914 29.3107 3.31785 27.4153 7.45417 27.4153H10.683L17.4855 36.4516L18.2804 37.5077L19.0753 36.4516L25.3783 28.0727ZM36.5421 33.1224L35.6276 45.397L35.5573 46.3132H34.6357H1.925H0.99644L0.926094 45.397L0.0397389 33.4791C-0.354197 28.3105 2.18528 25.4289 7.45417 25.4289H11.1755H11.6679L11.9704 25.8276L18.2804 34.2065L24.1331 26.4361C23.1342 24.9324 22.4519 23.3097 22.065 21.6522C21.671 21.799 21.263 21.9179 20.841 22.0228C20.0109 22.2187 19.1527 22.3306 18.2804 22.3306C12.2236 22.3306 7.27831 17.4207 7.27831 11.3988C7.27831 8.3844 8.51639 5.64972 10.5072 3.6704C12.498 1.68408 15.2485 0.453125 18.2804 0.453125C20.5596 0.453125 22.684 1.15253 24.4497 2.34152C25.9058 3.32769 27.1088 4.64957 27.9529 6.19526L28.0162 6.15329C31.3858 3.79629 35.3955 3.01995 39.1519 3.6704C47.2628 5.07621 52.7075 12.7557 51.2936 20.8269C50.8645 23.2888 49.8093 25.6528 48.1702 27.6461L57.1393 39.1443C58.3071 40.6341 58.2297 42.6344 57.1815 44.1521C56.8228 44.6696 56.3585 45.1312 55.8379 45.4949C55.3174 45.8586 54.7265 46.1384 54.1074 46.2993C52.3206 46.7679 50.3861 46.1664 49.3802 44.5647L41.5366 32.2831C39.9117 32.8567 38.2234 33.1294 36.5421 33.1224ZM26.3772 7.47517C23.9573 9.72726 22.4378 12.6508 21.8961 15.7422C21.671 17.0291 21.6148 18.344 21.7343 19.6518C21.2982 19.8337 20.841 19.9806 20.3767 20.0925C19.7154 20.2533 19.012 20.3373 18.2733 20.3373C13.314 20.3373 9.26909 16.3157 9.26909 11.3849C9.26909 8.92294 10.2821 6.67785 11.9141 5.06222C13.5461 3.43959 15.7972 2.43245 18.2733 2.43245C20.1445 2.43245 21.8821 2.99897 23.3171 3.97814C24.6256 4.85939 25.6878 6.06237 26.3772 7.47517ZM43.3938 31.4928C44.6319 30.8633 45.7785 30.059 46.7985 29.1148L55.5425 40.3193C56.2108 41.2635 56.0771 42.2637 55.5495 43.026C55.3244 43.3478 55.0289 43.6415 54.6983 43.8723C54.3607 44.1031 53.9949 44.285 53.608 44.3829C52.7146 44.6207 51.7368 44.4109 51.0685 43.4946L43.3938 31.4928ZM42.0502 14.4692C40.988 12.9725 39.4192 12.0423 37.738 11.7485C34.1081 11.1191 30.6471 13.532 30.0211 17.141C29.7256 18.8126 30.0773 20.603 31.1325 22.0998L29.606 23.3797C28.2343 21.3304 27.6223 19.2812 28.0584 16.8123C28.8815 12.1332 33.3625 8.98589 38.0756 9.8042C40.2634 10.1819 42.3034 11.3919 43.6752 13.3362L42.0502 14.4692Z" fill="#08BEB2"></path></svg> 