<svg width="15" height="12" viewBox="0 0 15 12" fill="none" xmlns="http://www.w3.org/2000/svg">
<g clip-path="url(#clip0)">
<path d="M14.5029 6.07345C13.9516 4.67904 12.9945 3.47315 11.7499 2.60483C10.5052 1.7365 9.02768 1.2438 7.4998 1.18762C5.97192 1.2438 4.49436 1.7365 3.24974 2.60483C2.00512 3.47315 1.048 4.67904 0.496676 6.07345C0.459441 6.17415 0.459441 6.28442 0.496676 6.38512C1.048 7.77953 2.00512 8.98542 3.24974 9.85375C4.49436 10.7221 5.97192 11.2148 7.4998 11.271C9.02768 11.2148 10.5052 10.7221 11.7499 9.85375C12.9945 8.98542 13.9516 7.77953 14.5029 6.38512C14.5402 6.28442 14.5402 6.17415 14.5029 6.07345ZM7.4998 10.3543C5.01543 10.3543 2.39043 8.55304 1.43886 6.22929C2.39043 3.90554 5.01543 2.10429 7.4998 2.10429C9.98418 2.10429 12.6092 3.90554 13.5607 6.22929C12.6092 8.55304 9.98418 10.3543 7.4998 10.3543Z" fill="#CACACA"/>
<path d="M7.5 3.47925C6.94374 3.47925 6.39997 3.64053 5.93746 3.94271C5.47495 4.24488 5.11446 4.67437 4.90159 5.17687C4.68872 5.67937 4.63302 6.2323 4.74154 6.76575C4.85006 7.29919 5.11793 7.7892 5.51126 8.17379C5.9046 8.55839 6.40574 8.8203 6.95131 8.92641C7.49688 9.03252 8.06238 8.97806 8.5763 8.76992C9.09022 8.56178 9.52947 8.2093 9.83851 7.75707C10.1476 7.30483 10.3125 6.77315 10.3125 6.22925C10.3125 5.4999 10.0162 4.80043 9.48874 4.2847C8.96129 3.76898 8.24592 3.47925 7.5 3.47925ZM7.5 8.06258C7.12916 8.06258 6.76665 7.95506 6.45831 7.75361C6.14996 7.55216 5.90964 7.26583 5.76773 6.93083C5.62581 6.59584 5.58868 6.22721 5.66103 5.87158C5.73338 5.51595 5.91195 5.18928 6.17418 4.93289C6.4364 4.67649 6.77049 4.50188 7.13421 4.43114C7.49792 4.3604 7.87492 4.39671 8.21753 4.53547C8.56014 4.67423 8.85298 4.90921 9.05901 5.2107C9.26503 5.51219 9.375 5.86665 9.375 6.22925C9.375 6.71548 9.17746 7.18179 8.82583 7.52561C8.4742 7.86943 7.99728 8.06258 7.5 8.06258Z" fill="#CACACA"/>
</g>
<defs>
<clipPath id="clip0">
<rect width="15" height="11" fill="white" transform="translate(0 0.729248)"/>
</clipPath>
</defs>
</svg>
