<svg width="18" height="17" viewBox="0 0 18 17" fill="none" xmlns="http://www.w3.org/2000/svg">
<g clip-path="url(#clip0)">
<path d="M13.0029 8.97216L11.8027 10.0638L11.8027 10.0637L3.51216 2.52345L4.14932 1.94395L1.50736 0.00732422L0 1.37827L2.12932 3.78111L2.76652 3.20161L11.0571 10.7419L9.85686 11.8335L11.5686 13.3903L14.7146 10.529L13.0029 8.97216Z" fill="#39B4BD"/>
<path d="M15.4605 11.2058L12.3145 14.0672L14.202 15.7839C14.6222 16.166 15.1808 16.3765 15.7751 16.3765C16.3693 16.3765 16.9279 16.166 17.3481 15.7839C18.2155 14.995 18.2155 13.7114 17.3481 12.9226L15.4605 11.2058Z" fill="#39B4BD"/>
<path d="M9.11002 10.3263L6.65266 8.09131L4.85355 9.72738C3.53206 9.35073 2.08999 9.66535 1.09544 10.5702C0.38917 11.2126 0 12.0666 0 12.9753C0 13.8837 0.38917 14.738 1.09544 15.3804C1.82456 16.0435 2.78219 16.3751 3.73983 16.3751C4.69746 16.3751 5.65544 16.0435 6.38421 15.3804C7.37911 14.4758 7.72504 13.1643 7.31091 11.9624L9.11002 10.3263ZM4.59586 13.7535C4.12302 14.1836 3.35663 14.1836 2.88415 13.7535C2.41131 13.3238 2.41131 12.6267 2.88415 12.1967C3.35663 11.767 4.12302 11.767 4.59586 12.1967C5.06835 12.6267 5.06835 13.3238 4.59586 13.7535Z" fill="#39B4BD"/>
<path d="M17.7547 2.05717L17.4608 1.37453L15.574 3.09057L14.8122 2.9048L14.6079 2.21192L16.4947 0.496207L15.7441 0.228585C14.4283 -0.240152 12.9328 0.0437765 11.934 0.952154C11.0193 1.78411 10.6804 2.9956 11.0263 4.11309L8.88965 6.05659L11.347 8.29157L13.4836 6.34807C13.8007 6.42928 14.1242 6.46893 14.4459 6.46893C15.3715 6.46861 16.2803 6.13992 16.9591 5.5225C17.9579 4.61415 18.2701 3.25399 17.7547 2.05717Z" fill="#39B4BD"/>
</g>
<defs>
<clipPath id="clip0">
<rect width="18" height="16.371" fill="white" transform="translate(0 0.00561523)"/>
</clipPath>
</defs>
</svg>
