<?xml version="1.0" encoding="UTF-8"?> <svg xmlns="http://www.w3.org/2000/svg" width="58" height="56" viewBox="0 0 58 56" fill="none"><g clip-path="url(#clip0)"><path d="M56.7917 24.7464V40.6828C56.7917 42.8935 55.7888 44.9949 54.0729 46.3796L44.7083 53.8984L35.3438 46.3674C33.6279 44.9827 32.625 42.8935 32.625 40.6828V24.7464L44.7083 22.3171L56.7917 24.7464Z" stroke="#08BEB2" stroke-width="2" stroke-miterlimit="10"></path><path d="M51.9583 33.2491L44.7083 40.537L39.875 35.6784" stroke="#08BEB2" stroke-width="2" stroke-miterlimit="10"></path><path d="M40.3101 8.34845C36.1776 12.4783 30.4622 15.0291 24.1668 15.0291C17.8714 15.0291 12.1559 12.4783 8.02344 8.34845" stroke="#08BEB2" stroke-width="2" stroke-miterlimit="10"></path><path d="M1.20831 24.7464H12.0833H29" stroke="#08BEB2" stroke-width="2" stroke-miterlimit="10"></path><path d="M24.1666 47.825C23.9612 47.825 23.7558 47.825 23.5504 47.8007C19.2487 47.3756 15.5391 42.6627 13.5816 35.8484C12.6271 32.5567 12.0833 28.7669 12.0833 24.7464C12.0833 20.2886 12.7479 16.1101 13.8958 12.5876C16.0346 6.02843 19.8287 1.66779 24.1666 1.66779C28.5046 1.66779 32.2987 6.02843 34.4254 12.5876C35.1866 14.9319 35.7304 17.5434 36.0204 20.3493" stroke="#08BEB2" stroke-width="2" stroke-miterlimit="10"></path><path d="M7.44336 40.537C9.20753 38.6422 11.2738 37.051 13.5817 35.8484C16.7475 34.1843 20.3484 33.2491 24.1667 33.2491C25.8342 33.2491 27.4413 33.4313 29 33.7835" stroke="#08BEB2" stroke-width="2" stroke-miterlimit="10"></path><path d="M46.3758 18.9403C45.3366 14.859 43.1979 11.215 40.31 8.34844C36.2621 4.30361 30.7158 1.77711 24.5775 1.67993C24.4446 1.66779 24.2996 1.66779 24.1666 1.66779C24.0337 1.66779 23.8887 1.66779 23.7558 1.67993C17.6175 1.77711 12.0712 4.30361 8.02331 8.34844C3.81831 12.5269 1.20831 18.333 1.20831 24.7464C1.20831 30.8562 3.57665 36.4193 7.44331 40.537C11.4912 44.8855 17.1946 47.6428 23.5504 47.8007C23.7558 47.825 23.9612 47.825 24.1666 47.825C26.4987 47.825 28.7462 47.4606 30.8608 46.8047" stroke="#08BEB2" stroke-width="2" stroke-miterlimit="10"></path></g><defs><clipPath id="clip0"><rect width="58" height="55" fill="white" transform="translate(0 0.453125)"></rect></clipPath></defs></svg> 