{
    "asset" : {
        "generator" : "Khronos glTF Blender I/O v1.6.16",
        "version" : "2.0"
    },
    "scene" : 0,
    "scenes" : [
        {
            "name" : "Scene",
            "nodes" : [
                0,
                3,
                4,
                5
            ]
        }
    ],
    "nodes" : [
        {
            "mesh" : 0,
            "name" : "land.mountain"
        },
        {
            "mesh" : 1,
            "name" : "Landscape.001"
        },
        {
            "mesh" : 2,
            "name" : "Landscape_plane"
        },
        {
            "children" : [
                1,
                2
            ],
            "name" : "land.lake"
        },
        {
            "mesh" : 3,
            "name" : "sed.mud",
            "scale" : [
                1,
                0.20000000298023224,
                1
            ],
            "translation" : [
                0,
                -0.26286381483078003,
                0
            ]
        },
        {
            "mesh" : 4,
            "name" : "sed.gold",
            "scale" : [
                1,
                0.20000000298023224,
                1
            ],
            "translation" : [
                0,
                -0.26286381483078003,
                0
            ]
        }
    ],
    "materials" : [
        {
            "doubleSided" : true,
            "name" : "Material",
            "pbrMetallicRoughness" : {
                "baseColorFactor" : [
                    0.8000000715255737,
                    0.13682202994823456,
                    0.19169287383556366,
                    1
                ],
                "metallicFactor" : 0,
                "roughnessFactor" : 0.4000000059604645
            }
        },
        {
            "doubleSided" : true,
            "name" : "Material.002",
            "pbrMetallicRoughness" : {
                "baseColorFactor" : [
                    0.042117889970541,
                    0.8000000715255737,
                    0.08524024486541748,
                    1
                ],
                "metallicFactor" : 0,
                "roughnessFactor" : 0.5
            }
        },
        {
            "doubleSided" : true,
            "name" : "Material.001",
            "pbrMetallicRoughness" : {
                "baseColorFactor" : [
                    0.0039704423397779465,
                    0.4771297872066498,
                    0.8000000715255737,
                    1
                ],
                "metallicFactor" : 0,
                "roughnessFactor" : 0.5
            }
        },
        {
            "doubleSided" : true,
            "name" : "Material.003",
            "pbrMetallicRoughness" : {
                "baseColorFactor" : [
                    0.8000000715255737,
                    0.3063945174217224,
                    0.07356726378202438,
                    1
                ],
                "metallicFactor" : 0,
                "roughnessFactor" : 0.5
            }
        },
        {
            "doubleSided" : true,
            "name" : "Material.004",
            "pbrMetallicRoughness" : {
                "baseColorFactor" : [
                    0.7002570629119873,
                    0.8000000715255737,
                    0,
                    1
                ],
                "metallicFactor" : 0,
                "roughnessFactor" : 0.5
            }
        }
    ],
    "meshes" : [
        {
            "name" : "Landscape",
            "primitives" : [
                {
                    "attributes" : {
                        "POSITION" : 0,
                        "NORMAL" : 1
                    },
                    "indices" : 2,
                    "material" : 0
                }
            ]
        },
        {
            "name" : "Landscape.001",
            "primitives" : [
                {
                    "attributes" : {
                        "POSITION" : 3,
                        "NORMAL" : 4
                    },
                    "indices" : 5,
                    "material" : 1
                }
            ]
        },
        {
            "name" : "Landscape_plane",
            "primitives" : [
                {
                    "attributes" : {
                        "POSITION" : 6,
                        "NORMAL" : 7
                    },
                    "indices" : 8,
                    "material" : 2
                }
            ]
        },
        {
            "name" : "Cube.001",
            "primitives" : [
                {
                    "attributes" : {
                        "POSITION" : 9,
                        "NORMAL" : 10,
                        "TEXCOORD_0" : 11
                    },
                    "indices" : 12,
                    "material" : 3
                }
            ]
        },
        {
            "name" : "Cube.002",
            "primitives" : [
                {
                    "attributes" : {
                        "POSITION" : 13,
                        "NORMAL" : 14,
                        "TEXCOORD_0" : 15
                    },
                    "indices" : 12,
                    "material" : 4
                }
            ]
        }
    ],
    "accessors" : [
        {
            "bufferView" : 0,
            "componentType" : 5126,
            "count" : 16384,
            "max" : [
                1,
                0.6337766051292419,
                1
            ],
            "min" : [
                -1,
                0,
                -1
            ],
            "type" : "VEC3"
        },
        {
            "bufferView" : 1,
            "componentType" : 5126,
            "count" : 16384,
            "type" : "VEC3"
        },
        {
            "bufferView" : 2,
            "componentType" : 5123,
            "count" : 96774,
            "type" : "SCALAR"
        },
        {
            "bufferView" : 3,
            "componentType" : 5126,
            "count" : 16384,
            "max" : [
                1,
                0.05210583657026291,
                1
            ],
            "min" : [
                -1,
                -0.2487834244966507,
                -1
            ],
            "type" : "VEC3"
        },
        {
            "bufferView" : 4,
            "componentType" : 5126,
            "count" : 16384,
            "type" : "VEC3"
        },
        {
            "bufferView" : 5,
            "componentType" : 5123,
            "count" : 96774,
            "type" : "SCALAR"
        },
        {
            "bufferView" : 6,
            "componentType" : 5126,
            "count" : 4,
            "max" : [
                1,
                -0.019999997690320015,
                1
            ],
            "min" : [
                -1,
                -0.019999997690320015,
                -1
            ],
            "type" : "VEC3"
        },
        {
            "bufferView" : 7,
            "componentType" : 5126,
            "count" : 4,
            "type" : "VEC3"
        },
        {
            "bufferView" : 8,
            "componentType" : 5123,
            "count" : 6,
            "type" : "SCALAR"
        },
        {
            "bufferView" : 9,
            "componentType" : 5126,
            "count" : 24,
            "max" : [
                1,
                1,
                1
            ],
            "min" : [
                -1,
                -1,
                -1
            ],
            "type" : "VEC3"
        },
        {
            "bufferView" : 10,
            "componentType" : 5126,
            "count" : 24,
            "type" : "VEC3"
        },
        {
            "bufferView" : 11,
            "componentType" : 5126,
            "count" : 24,
            "type" : "VEC2"
        },
        {
            "bufferView" : 12,
            "componentType" : 5123,
            "count" : 36,
            "type" : "SCALAR"
        },
        {
            "bufferView" : 13,
            "componentType" : 5126,
            "count" : 24,
            "max" : [
                1,
                1,
                1
            ],
            "min" : [
                -1,
                -1,
                -1
            ],
            "type" : "VEC3"
        },
        {
            "bufferView" : 14,
            "componentType" : 5126,
            "count" : 24,
            "type" : "VEC3"
        },
        {
            "bufferView" : 15,
            "componentType" : 5126,
            "count" : 24,
            "type" : "VEC2"
        }
    ],
    "bufferViews" : [
        {
            "buffer" : 0,
            "byteLength" : 196608,
            "byteOffset" : 0
        },
        {
            "buffer" : 0,
            "byteLength" : 196608,
            "byteOffset" : 196608
        },
        {
            "buffer" : 0,
            "byteLength" : 193548,
            "byteOffset" : 393216
        },
        {
            "buffer" : 0,
            "byteLength" : 196608,
            "byteOffset" : 586764
        },
        {
            "buffer" : 0,
            "byteLength" : 196608,
            "byteOffset" : 783372
        },
        {
            "buffer" : 0,
            "byteLength" : 193548,
            "byteOffset" : 979980
        },
        {
            "buffer" : 0,
            "byteLength" : 48,
            "byteOffset" : 1173528
        },
        {
            "buffer" : 0,
            "byteLength" : 48,
            "byteOffset" : 1173576
        },
        {
            "buffer" : 0,
            "byteLength" : 12,
            "byteOffset" : 1173624
        },
        {
            "buffer" : 0,
            "byteLength" : 288,
            "byteOffset" : 1173636
        },
        {
            "buffer" : 0,
            "byteLength" : 288,
            "byteOffset" : 1173924
        },
        {
            "buffer" : 0,
            "byteLength" : 192,
            "byteOffset" : 1174212
        },
        {
            "buffer" : 0,
            "byteLength" : 72,
            "byteOffset" : 1174404
        },
        {
            "buffer" : 0,
            "byteLength" : 288,
            "byteOffset" : 1174476
        },
        {
            "buffer" : 0,
            "byteLength" : 288,
            "byteOffset" : 1174764
        },
        {
            "buffer" : 0,
            "byteLength" : 192,
            "byteOffset" : 1175052
        }
    ],
    "buffers" : [
        {
            "byteLength" : 1175244,
            "uri" : "data:application/octet-stream;base64,"
        }
    ]
}
