{
    "asset" : {
        "generator" : "Khronos glTF Blender I/O v1.6.16",
        "version" : "2.0"
    },
    "scene" : 0,
    "scenes" : [
        {
            "name" : "Scene",
            "nodes" : [
                0,
                1,
                6,
                7,
                12,
                13,
                14,
                18
            ]
        }
    ],
    "nodes" : [
        {
            "name" : "Light",
            "rotation" : [
                0.16907575726509094,
                0.7558803558349609,
                -0.27217137813568115,
                0.570947527885437
            ],
            "translation" : [
                9.557214736938477,
                7.263984680175781,
                -5.695840835571289
            ]
        },
        {
            "name" : "Camera",
            "rotation" : [
                0.483536034822464,
                0.33687159419059753,
                -0.20870360732078552,
                0.7804827094078064
            ],
            "translation" : [
                7.358891487121582,
                4.958309173583984,
                6.925790786743164
            ]
        },
        {
            "mesh" : 0,
            "name" : "Landscape",
            "scale" : [
                100,
                100,
                100
            ]
        },
        {
            "mesh" : 1,
            "name" : "Landscape_plane",
            "scale" : [
                100,
                100,
                100
            ]
        },
        {
            "mesh" : 2,
            "name" : "Plane.x.001",
            "scale" : [
                20,
                1,
                200
            ],
            "translation" : [
                110,
                0,
                0
            ]
        },
        {
            "mesh" : 3,
            "name" : "Plane.y.001",
            "scale" : [
                240,
                1,
                20
            ],
            "translation" : [
                0,
                0,
                -110
            ]
        },
        {
            "children" : [
                2,
                3,
                4,
                5
            ],
            "name" : "terrain.1"
        },
        {
            "mesh" : 4,
            "name" : "sed.1",
            "scale" : [
                100,
                1,
                100
            ],
            "translation" : [
                0,
                -10,
                0
            ]
        },
        {
            "mesh" : 5,
            "name" : "Landscape.001",
            "scale" : [
                100,
                100,
                100
            ]
        },
        {
            "mesh" : 6,
            "name" : "Landscape_plane.001",
            "scale" : [
                100,
                100,
                100
            ]
        },
        {
            "mesh" : 7,
            "name" : "Plane.x",
            "scale" : [
                20,
                1,
                200
            ],
            "translation" : [
                110,
                0,
                0
            ]
        },
        {
            "mesh" : 8,
            "name" : "Plane.y",
            "scale" : [
                240,
                1,
                20
            ],
            "translation" : [
                0,
                0,
                -110
            ]
        },
        {
            "children" : [
                8,
                9,
                10,
                11
            ],
            "name" : "terrain.2"
        },
        {
            "mesh" : 9,
            "name" : "sed.2",
            "scale" : [
                100,
                1,
                100
            ],
            "translation" : [
                0,
                -10,
                0
            ]
        },
        {
            "name" : "Mirror"
        },
        {
            "mesh" : 10,
            "name" : "Object_2"
        },
        {
            "mesh" : 11,
            "name" : "Object_3"
        },
        {
            "children" : [
                15,
                16
            ],
            "name" : "acacia.obj.cleaner.materialmerger.gles"
        },
        {
            "children" : [
                17
            ],
            "name" : "tree.maple",
            "rotation" : [
                -0.7071068286895752,
                0,
                0,
                0.7071068286895752
            ],
            "scale" : [
                0.06798895448446274,
                0.06798895448446274,
                0.06798895448446274
            ]
        }
    ],
    "materials" : [
        {
            "doubleSided" : true,
            "name" : "Material",
            "pbrMetallicRoughness" : {
                "baseColorFactor" : [
                    0.021252036094665527,
                    0.8000000715255737,
                    0.052629873156547546,
                    1
                ],
                "metallicFactor" : 0,
                "roughnessFactor" : 0.4000000059604645
            }
        },
        {
            "doubleSided" : true,
            "name" : "Material.001",
            "pbrMetallicRoughness" : {
                "baseColorFactor" : [
                    0.06336884945631027,
                    0.372546911239624,
                    0.8000000715255737,
                    1
                ],
                "metallicFactor" : 0,
                "roughnessFactor" : 0.5
            }
        },
        {
            "doubleSided" : true,
            "name" : "Material.002",
            "pbrMetallicRoughness" : {
                "baseColorFactor" : [
                    0.8000000715255737,
                    0.24990302324295044,
                    0.09252224862575531,
                    1
                ],
                "metallicFactor" : 0,
                "roughnessFactor" : 0.5
            }
        },
        {
            "doubleSided" : true,
            "name" : "Material.005",
            "pbrMetallicRoughness" : {
                "baseColorFactor" : [
                    0.8000000715255737,
                    0.5426899194717407,
                    0.0730302557349205,
                    1
                ],
                "metallicFactor" : 0,
                "roughnessFactor" : 0.5
            }
        },
        {
            "doubleSided" : true,
            "name" : "Material.004",
            "pbrMetallicRoughness" : {
                "baseColorFactor" : [
                    0.8000000715255737,
                    0.03697733208537102,
                    0.766292154788971,
                    1
                ],
                "metallicFactor" : 0,
                "roughnessFactor" : 0.5
            }
        },
        {
            "alphaCutoff" : 0.24561737477779388,
            "alphaMode" : "MASK",
            "doubleSided" : true,
            "name" : "acacia_leaf",
            "pbrMetallicRoughness" : {}
        },
        {
            "doubleSided" : true,
            "name" : "bark07",
            "pbrMetallicRoughness" : {}
        }
    ],
    "meshes" : [
        {
            "name" : "Landscape",
            "primitives" : [
                {
                    "attributes" : {
                        "POSITION" : 0,
                        "NORMAL" : 1
                    },
                    "indices" : 2,
                    "material" : 0
                }
            ]
        },
        {
            "name" : "Landscape_plane",
            "primitives" : [
                {
                    "attributes" : {
                        "POSITION" : 3,
                        "NORMAL" : 4
                    },
                    "indices" : 5,
                    "material" : 1
                }
            ]
        },
        {
            "name" : "Plane.002",
            "primitives" : [
                {
                    "attributes" : {
                        "POSITION" : 6,
                        "NORMAL" : 7,
                        "TEXCOORD_0" : 8
                    },
                    "indices" : 9,
                    "material" : 0
                }
            ]
        },
        {
            "name" : "Plane.003",
            "primitives" : [
                {
                    "attributes" : {
                        "POSITION" : 10,
                        "NORMAL" : 11,
                        "TEXCOORD_0" : 12
                    },
                    "indices" : 9,
                    "material" : 0
                }
            ]
        },
        {
            "name" : "Cube.001",
            "primitives" : [
                {
                    "attributes" : {
                        "POSITION" : 13,
                        "NORMAL" : 14,
                        "TEXCOORD_0" : 15
                    },
                    "indices" : 16,
                    "material" : 2
                }
            ]
        },
        {
            "name" : "Landscape.001",
            "primitives" : [
                {
                    "attributes" : {
                        "POSITION" : 17,
                        "NORMAL" : 18
                    },
                    "indices" : 2,
                    "material" : 3
                }
            ]
        },
        {
            "name" : "Landscape_plane.001",
            "primitives" : [
                {
                    "attributes" : {
                        "POSITION" : 19,
                        "NORMAL" : 20
                    },
                    "indices" : 5,
                    "material" : 1
                }
            ]
        },
        {
            "name" : "Plane.001",
            "primitives" : [
                {
                    "attributes" : {
                        "POSITION" : 21,
                        "NORMAL" : 22,
                        "TEXCOORD_0" : 23
                    },
                    "indices" : 9,
                    "material" : 3
                }
            ]
        },
        {
            "name" : "Plane",
            "primitives" : [
                {
                    "attributes" : {
                        "POSITION" : 24,
                        "NORMAL" : 25,
                        "TEXCOORD_0" : 26
                    },
                    "indices" : 9,
                    "material" : 3
                }
            ]
        },
        {
            "name" : "Cube.002",
            "primitives" : [
                {
                    "attributes" : {
                        "POSITION" : 27,
                        "NORMAL" : 28,
                        "TEXCOORD_0" : 29
                    },
                    "indices" : 16,
                    "material" : 4
                }
            ]
        },
        {
            "name" : "Object_0",
            "primitives" : [
                {
                    "attributes" : {
                        "POSITION" : 30,
                        "NORMAL" : 31,
                        "TEXCOORD_0" : 32,
                        "COLOR_0" : 33
                    },
                    "indices" : 34,
                    "material" : 5
                }
            ]
        },
        {
            "name" : "Object_1",
            "primitives" : [
                {
                    "attributes" : {
                        "POSITION" : 35,
                        "NORMAL" : 36,
                        "TEXCOORD_0" : 37,
                        "COLOR_0" : 38
                    },
                    "indices" : 39,
                    "material" : 6
                }
            ]
        }
    ],
    "accessors" : [
        {
            "bufferView" : 0,
            "componentType" : 5126,
            "count" : 16384,
            "max" : [
                1,
                0.05210583657026291,
                1
            ],
            "min" : [
                -1,
                -0.2487834244966507,
                -1
            ],
            "type" : "VEC3"
        },
        {
            "bufferView" : 1,
            "componentType" : 5126,
            "count" : 16384,
            "type" : "VEC3"
        },
        {
            "bufferView" : 2,
            "componentType" : 5123,
            "count" : 96774,
            "type" : "SCALAR"
        },
        {
            "bufferView" : 3,
            "componentType" : 5126,
            "count" : 4,
            "max" : [
                1,
                -0.019999997690320015,
                1
            ],
            "min" : [
                -1,
                -0.019999997690320015,
                -1
            ],
            "type" : "VEC3"
        },
        {
            "bufferView" : 4,
            "componentType" : 5126,
            "count" : 4,
            "type" : "VEC3"
        },
        {
            "bufferView" : 5,
            "componentType" : 5123,
            "count" : 6,
            "type" : "SCALAR"
        },
        {
            "bufferView" : 6,
            "componentType" : 5126,
            "count" : 4,
            "max" : [
                0.5,
                0,
                0.5
            ],
            "min" : [
                -0.5,
                0,
                -0.5
            ],
            "type" : "VEC3"
        },
        {
            "bufferView" : 7,
            "componentType" : 5126,
            "count" : 4,
            "type" : "VEC3"
        },
        {
            "bufferView" : 8,
            "componentType" : 5126,
            "count" : 4,
            "type" : "VEC2"
        },
        {
            "bufferView" : 9,
            "componentType" : 5123,
            "count" : 6,
            "type" : "SCALAR"
        },
        {
            "bufferView" : 10,
            "componentType" : 5126,
            "count" : 4,
            "max" : [
                0.5,
                0,
                0.5
            ],
            "min" : [
                -0.5,
                0,
                -0.5
            ],
            "type" : "VEC3"
        },
        {
            "bufferView" : 11,
            "componentType" : 5126,
            "count" : 4,
            "type" : "VEC3"
        },
        {
            "bufferView" : 12,
            "componentType" : 5126,
            "count" : 4,
            "type" : "VEC2"
        },
        {
            "bufferView" : 13,
            "componentType" : 5126,
            "count" : 24,
            "max" : [
                1,
                1,
                1
            ],
            "min" : [
                -1,
                -1,
                -1
            ],
            "type" : "VEC3"
        },
        {
            "bufferView" : 14,
            "componentType" : 5126,
            "count" : 24,
            "type" : "VEC3"
        },
        {
            "bufferView" : 15,
            "componentType" : 5126,
            "count" : 24,
            "type" : "VEC2"
        },
        {
            "bufferView" : 16,
            "componentType" : 5123,
            "count" : 36,
            "type" : "SCALAR"
        },
        {
            "bufferView" : 17,
            "componentType" : 5126,
            "count" : 16384,
            "max" : [
                1,
                0.016360333189368248,
                1
            ],
            "min" : [
                -1,
                -0.22347788512706757,
                -1
            ],
            "type" : "VEC3"
        },
        {
            "bufferView" : 18,
            "componentType" : 5126,
            "count" : 16384,
            "type" : "VEC3"
        },
        {
            "bufferView" : 19,
            "componentType" : 5126,
            "count" : 4,
            "max" : [
                1,
                -0.019999997690320015,
                1
            ],
            "min" : [
                -1,
                -0.019999997690320015,
                -1
            ],
            "type" : "VEC3"
        },
        {
            "bufferView" : 20,
            "componentType" : 5126,
            "count" : 4,
            "type" : "VEC3"
        },
        {
            "bufferView" : 21,
            "componentType" : 5126,
            "count" : 4,
            "max" : [
                0.5,
                0,
                0.5
            ],
            "min" : [
                -0.5,
                0,
                -0.5
            ],
            "type" : "VEC3"
        },
        {
            "bufferView" : 22,
            "componentType" : 5126,
            "count" : 4,
            "type" : "VEC3"
        },
        {
            "bufferView" : 23,
            "componentType" : 5126,
            "count" : 4,
            "type" : "VEC2"
        },
        {
            "bufferView" : 24,
            "componentType" : 5126,
            "count" : 4,
            "max" : [
                0.5,
                0,
                0.5
            ],
            "min" : [
                -0.5,
                0,
                -0.5
            ],
            "type" : "VEC3"
        },
        {
            "bufferView" : 25,
            "componentType" : 5126,
            "count" : 4,
            "type" : "VEC3"
        },
        {
            "bufferView" : 26,
            "componentType" : 5126,
            "count" : 4,
            "type" : "VEC2"
        },
        {
            "bufferView" : 27,
            "componentType" : 5126,
            "count" : 24,
            "max" : [
                1,
                1,
                1
            ],
            "min" : [
                -1,
                -1,
                -1
            ],
            "type" : "VEC3"
        },
        {
            "bufferView" : 28,
            "componentType" : 5126,
            "count" : 24,
            "type" : "VEC3"
        },
        {
            "bufferView" : 29,
            "componentType" : 5126,
            "count" : 24,
            "type" : "VEC2"
        },
        {
            "bufferView" : 30,
            "componentType" : 5126,
            "count" : 1680,
            "max" : [
                84.80169677734375,
                91.5457534790039,
                188.26284790039062
            ],
            "min" : [
                -113.71204376220703,
                -103.8504409790039,
                77.48120880126953
            ],
            "type" : "VEC3"
        },
        {
            "bufferView" : 31,
            "componentType" : 5126,
            "count" : 1680,
            "type" : "VEC3"
        },
        {
            "bufferView" : 32,
            "componentType" : 5126,
            "count" : 1680,
            "type" : "VEC2"
        },
        {
            "bufferView" : 33,
            "componentType" : 5123,
            "count" : 1680,
            "normalized" : true,
            "type" : "VEC4"
        },
        {
            "bufferView" : 34,
            "componentType" : 5123,
            "count" : 2160,
            "type" : "SCALAR"
        },
        {
            "bufferView" : 35,
            "componentType" : 5126,
            "count" : 2361,
            "max" : [
                71.43824768066406,
                80.73960876464844,
                167.51318359375
            ],
            "min" : [
                -96.1502914428711,
                -93.9144058227539,
                -1.9977484043920413e-05
            ],
            "type" : "VEC3"
        },
        {
            "bufferView" : 36,
            "componentType" : 5126,
            "count" : 2361,
            "type" : "VEC3"
        },
        {
            "bufferView" : 37,
            "componentType" : 5126,
            "count" : 2361,
            "type" : "VEC2"
        },
        {
            "bufferView" : 38,
            "componentType" : 5123,
            "count" : 2361,
            "normalized" : true,
            "type" : "VEC4"
        },
        {
            "bufferView" : 39,
            "componentType" : 5123,
            "count" : 9399,
            "type" : "SCALAR"
        }
    ],
    "bufferViews" : [
        {
            "buffer" : 0,
            "byteLength" : 196608,
            "byteOffset" : 0
        },
        {
            "buffer" : 0,
            "byteLength" : 196608,
            "byteOffset" : 196608
        },
        {
            "buffer" : 0,
            "byteLength" : 193548,
            "byteOffset" : 393216
        },
        {
            "buffer" : 0,
            "byteLength" : 48,
            "byteOffset" : 586764
        },
        {
            "buffer" : 0,
            "byteLength" : 48,
            "byteOffset" : 586812
        },
        {
            "buffer" : 0,
            "byteLength" : 12,
            "byteOffset" : 586860
        },
        {
            "buffer" : 0,
            "byteLength" : 48,
            "byteOffset" : 586872
        },
        {
            "buffer" : 0,
            "byteLength" : 48,
            "byteOffset" : 586920
        },
        {
            "buffer" : 0,
            "byteLength" : 32,
            "byteOffset" : 586968
        },
        {
            "buffer" : 0,
            "byteLength" : 12,
            "byteOffset" : 587000
        },
        {
            "buffer" : 0,
            "byteLength" : 48,
            "byteOffset" : 587012
        },
        {
            "buffer" : 0,
            "byteLength" : 48,
            "byteOffset" : 587060
        },
        {
            "buffer" : 0,
            "byteLength" : 32,
            "byteOffset" : 587108
        },
        {
            "buffer" : 0,
            "byteLength" : 288,
            "byteOffset" : 587140
        },
        {
            "buffer" : 0,
            "byteLength" : 288,
            "byteOffset" : 587428
        },
        {
            "buffer" : 0,
            "byteLength" : 192,
            "byteOffset" : 587716
        },
        {
            "buffer" : 0,
            "byteLength" : 72,
            "byteOffset" : 587908
        },
        {
            "buffer" : 0,
            "byteLength" : 196608,
            "byteOffset" : 587980
        },
        {
            "buffer" : 0,
            "byteLength" : 196608,
            "byteOffset" : 784588
        },
        {
            "buffer" : 0,
            "byteLength" : 48,
            "byteOffset" : 981196
        },
        {
            "buffer" : 0,
            "byteLength" : 48,
            "byteOffset" : 981244
        },
        {
            "buffer" : 0,
            "byteLength" : 48,
            "byteOffset" : 981292
        },
        {
            "buffer" : 0,
            "byteLength" : 48,
            "byteOffset" : 981340
        },
        {
            "buffer" : 0,
            "byteLength" : 32,
            "byteOffset" : 981388
        },
        {
            "buffer" : 0,
            "byteLength" : 48,
            "byteOffset" : 981420
        },
        {
            "buffer" : 0,
            "byteLength" : 48,
            "byteOffset" : 981468
        },
        {
            "buffer" : 0,
            "byteLength" : 32,
            "byteOffset" : 981516
        },
        {
            "buffer" : 0,
            "byteLength" : 288,
            "byteOffset" : 981548
        },
        {
            "buffer" : 0,
            "byteLength" : 288,
            "byteOffset" : 981836
        },
        {
            "buffer" : 0,
            "byteLength" : 192,
            "byteOffset" : 982124
        },
        {
            "buffer" : 0,
            "byteLength" : 20160,
            "byteOffset" : 982316
        },
        {
            "buffer" : 0,
            "byteLength" : 20160,
            "byteOffset" : 1002476
        },
        {
            "buffer" : 0,
            "byteLength" : 13440,
            "byteOffset" : 1022636
        },
        {
            "buffer" : 0,
            "byteLength" : 13440,
            "byteOffset" : 1036076
        },
        {
            "buffer" : 0,
            "byteLength" : 4320,
            "byteOffset" : 1049516
        },
        {
            "buffer" : 0,
            "byteLength" : 28332,
            "byteOffset" : 1053836
        },
        {
            "buffer" : 0,
            "byteLength" : 28332,
            "byteOffset" : 1082168
        },
        {
            "buffer" : 0,
            "byteLength" : 18888,
            "byteOffset" : 1110500
        },
        {
            "buffer" : 0,
            "byteLength" : 18888,
            "byteOffset" : 1129388
        },
        {
            "buffer" : 0,
            "byteLength" : 18798,
            "byteOffset" : 1148276
        }
    ],
    "buffers" : [
        {
            "byteLength" : 1167076,
            "uri" : "data:application/octet-stream;base64,"
        }
    ]
}
