{
    "asset" : {
        "generator" : "Khronos glTF Blender I/O v1.6.16",
        "version" : "2.0"
    },
    "scene" : 0,
    "scenes" : [
        {
            "name" : "Scene",
            "nodes" : [
                0,
                1,
                4,
                5,
                8,
                9
            ]
        }
    ],
    "nodes" : [
        {
            "name" : "Light",
            "rotation" : [
                0.16907575726509094,
                0.7558803558349609,
                -0.27217137813568115,
                0.570947527885437
            ],
            "translation" : [
                9.557214736938477,
                7.263984680175781,
                -5.695840835571289
            ]
        },
        {
            "name" : "Camera",
            "rotation" : [
                0.483536034822464,
                0.33687159419059753,
                -0.20870360732078552,
                0.7804827094078064
            ],
            "translation" : [
                7.358891487121582,
                4.958309173583984,
                6.925790786743164
            ]
        },
        {
            "mesh" : 0,
            "name" : "Landscape",
            "scale" : [
                100,
                100,
                100
            ]
        },
        {
            "mesh" : 1,
            "name" : "Landscape_plane",
            "scale" : [
                100,
                100,
                100
            ]
        },
        {
            "children" : [
                2,
                3
            ],
            "name" : "terrain.1"
        },
        {
            "mesh" : 2,
            "name" : "sed.1",
            "scale" : [
                100,
                1,
                100
            ],
            "translation" : [
                0,
                -10,
                0
            ]
        },
        {
            "mesh" : 3,
            "name" : "Landscape.001",
            "scale" : [
                100,
                100,
                100
            ]
        },
        {
            "mesh" : 4,
            "name" : "Landscape_plane.001",
            "scale" : [
                100,
                100,
                100
            ]
        },
        {
            "children" : [
                6,
                7
            ],
            "name" : "terrain.2"
        },
        {
            "mesh" : 5,
            "name" : "sed.2",
            "scale" : [
                100,
                1,
                100
            ],
            "translation" : [
                0,
                -10,
                0
            ]
        }
    ],
    "materials" : [
        {
            "doubleSided" : true,
            "name" : "Material",
            "pbrMetallicRoughness" : {
                "baseColorFactor" : [
                    0.021252036094665527,
                    0.8000000715255737,
                    0.052629873156547546,
                    1
                ],
                "metallicFactor" : 0,
                "roughnessFactor" : 0.4000000059604645
            }
        },
        {
            "doubleSided" : true,
            "name" : "Material.001",
            "pbrMetallicRoughness" : {
                "baseColorFactor" : [
                    0.06336884945631027,
                    0.372546911239624,
                    0.8000000715255737,
                    1
                ],
                "metallicFactor" : 0,
                "roughnessFactor" : 0.5
            }
        },
        {
            "doubleSided" : true,
            "name" : "Material.002",
            "pbrMetallicRoughness" : {
                "baseColorFactor" : [
                    0.8000000715255737,
                    0.24990302324295044,
                    0.09252224862575531,
                    1
                ],
                "metallicFactor" : 0,
                "roughnessFactor" : 0.5
            }
        },
        {
            "doubleSided" : true,
            "name" : "Material.005",
            "pbrMetallicRoughness" : {
                "baseColorFactor" : [
                    0.8000000715255737,
                    0.5426899194717407,
                    0.0730302557349205,
                    1
                ],
                "metallicFactor" : 0,
                "roughnessFactor" : 0.5
            }
        },
        {
            "doubleSided" : true,
            "name" : "Material.004",
            "pbrMetallicRoughness" : {
                "baseColorFactor" : [
                    0.8000000715255737,
                    0.03697733208537102,
                    0.766292154788971,
                    1
                ],
                "metallicFactor" : 0,
                "roughnessFactor" : 0.5
            }
        }
    ],
    "meshes" : [
        {
            "name" : "Landscape",
            "primitives" : [
                {
                    "attributes" : {
                        "POSITION" : 0,
                        "NORMAL" : 1
                    },
                    "indices" : 2,
                    "material" : 0
                }
            ]
        },
        {
            "name" : "Landscape_plane",
            "primitives" : [
                {
                    "attributes" : {
                        "POSITION" : 3,
                        "NORMAL" : 4
                    },
                    "indices" : 5,
                    "material" : 1
                }
            ]
        },
        {
            "name" : "Cube.001",
            "primitives" : [
                {
                    "attributes" : {
                        "POSITION" : 6,
                        "NORMAL" : 7,
                        "TEXCOORD_0" : 8
                    },
                    "indices" : 9,
                    "material" : 2
                }
            ]
        },
        {
            "name" : "Landscape.001",
            "primitives" : [
                {
                    "attributes" : {
                        "POSITION" : 10,
                        "NORMAL" : 11
                    },
                    "indices" : 2,
                    "material" : 3
                }
            ]
        },
        {
            "name" : "Landscape_plane.001",
            "primitives" : [
                {
                    "attributes" : {
                        "POSITION" : 12,
                        "NORMAL" : 13
                    },
                    "indices" : 5,
                    "material" : 1
                }
            ]
        },
        {
            "name" : "Cube.002",
            "primitives" : [
                {
                    "attributes" : {
                        "POSITION" : 14,
                        "NORMAL" : 15,
                        "TEXCOORD_0" : 16
                    },
                    "indices" : 9,
                    "material" : 4
                }
            ]
        }
    ],
    "accessors" : [
        {
            "bufferView" : 0,
            "componentType" : 5126,
            "count" : 16384,
            "max" : [
                1,
                0.05210583657026291,
                1
            ],
            "min" : [
                -1,
                -0.2487834244966507,
                -1
            ],
            "type" : "VEC3"
        },
        {
            "bufferView" : 1,
            "componentType" : 5126,
            "count" : 16384,
            "type" : "VEC3"
        },
        {
            "bufferView" : 2,
            "componentType" : 5123,
            "count" : 96774,
            "type" : "SCALAR"
        },
        {
            "bufferView" : 3,
            "componentType" : 5126,
            "count" : 4,
            "max" : [
                1,
                -0.019999997690320015,
                1
            ],
            "min" : [
                -1,
                -0.019999997690320015,
                -1
            ],
            "type" : "VEC3"
        },
        {
            "bufferView" : 4,
            "componentType" : 5126,
            "count" : 4,
            "type" : "VEC3"
        },
        {
            "bufferView" : 5,
            "componentType" : 5123,
            "count" : 6,
            "type" : "SCALAR"
        },
        {
            "bufferView" : 6,
            "componentType" : 5126,
            "count" : 24,
            "max" : [
                1,
                1,
                1
            ],
            "min" : [
                -1,
                -1,
                -1
            ],
            "type" : "VEC3"
        },
        {
            "bufferView" : 7,
            "componentType" : 5126,
            "count" : 24,
            "type" : "VEC3"
        },
        {
            "bufferView" : 8,
            "componentType" : 5126,
            "count" : 24,
            "type" : "VEC2"
        },
        {
            "bufferView" : 9,
            "componentType" : 5123,
            "count" : 36,
            "type" : "SCALAR"
        },
        {
            "bufferView" : 10,
            "componentType" : 5126,
            "count" : 16384,
            "max" : [
                1,
                0.016360333189368248,
                1
            ],
            "min" : [
                -1,
                -0.22347788512706757,
                -1
            ],
            "type" : "VEC3"
        },
        {
            "bufferView" : 11,
            "componentType" : 5126,
            "count" : 16384,
            "type" : "VEC3"
        },
        {
            "bufferView" : 12,
            "componentType" : 5126,
            "count" : 4,
            "max" : [
                1,
                -0.019999997690320015,
                1
            ],
            "min" : [
                -1,
                -0.019999997690320015,
                -1
            ],
            "type" : "VEC3"
        },
        {
            "bufferView" : 13,
            "componentType" : 5126,
            "count" : 4,
            "type" : "VEC3"
        },
        {
            "bufferView" : 14,
            "componentType" : 5126,
            "count" : 24,
            "max" : [
                1,
                1,
                1
            ],
            "min" : [
                -1,
                -1,
                -1
            ],
            "type" : "VEC3"
        },
        {
            "bufferView" : 15,
            "componentType" : 5126,
            "count" : 24,
            "type" : "VEC3"
        },
        {
            "bufferView" : 16,
            "componentType" : 5126,
            "count" : 24,
            "type" : "VEC2"
        }
    ],
    "bufferViews" : [
        {
            "buffer" : 0,
            "byteLength" : 196608,
            "byteOffset" : 0
        },
        {
            "buffer" : 0,
            "byteLength" : 196608,
            "byteOffset" : 196608
        },
        {
            "buffer" : 0,
            "byteLength" : 193548,
            "byteOffset" : 393216
        },
        {
            "buffer" : 0,
            "byteLength" : 48,
            "byteOffset" : 586764
        },
        {
            "buffer" : 0,
            "byteLength" : 48,
            "byteOffset" : 586812
        },
        {
            "buffer" : 0,
            "byteLength" : 12,
            "byteOffset" : 586860
        },
        {
            "buffer" : 0,
            "byteLength" : 288,
            "byteOffset" : 586872
        },
        {
            "buffer" : 0,
            "byteLength" : 288,
            "byteOffset" : 587160
        },
        {
            "buffer" : 0,
            "byteLength" : 192,
            "byteOffset" : 587448
        },
        {
            "buffer" : 0,
            "byteLength" : 72,
            "byteOffset" : 587640
        },
        {
            "buffer" : 0,
            "byteLength" : 196608,
            "byteOffset" : 587712
        },
        {
            "buffer" : 0,
            "byteLength" : 196608,
            "byteOffset" : 784320
        },
        {
            "buffer" : 0,
            "byteLength" : 48,
            "byteOffset" : 980928
        },
        {
            "buffer" : 0,
            "byteLength" : 48,
            "byteOffset" : 980976
        },
        {
            "buffer" : 0,
            "byteLength" : 288,
            "byteOffset" : 981024
        },
        {
            "buffer" : 0,
            "byteLength" : 288,
            "byteOffset" : 981312
        },
        {
            "buffer" : 0,
            "byteLength" : 192,
            "byteOffset" : 981600
        }
    ],
    "buffers" : [
        {
            "byteLength" : 981792,
            "uri" : "data:application/octet-stream;base64,"
        }
    ]
}
