{
    "asset" : {
        "generator" : "Khronos glTF Blender I/O v3.3.27",
        "version" : "2.0"
    },
    "scene" : 0,
    "scenes" : [
        {
            "name" : "Scene",
            "nodes" : [
                10
            ]
        }
    ],
    "nodes" : [
        {
            "mesh" : 0,
            "name" : "body_LP_T_shirt_0"
        },
        {
            "children" : [
                0
            ],
            "name" : "body_LP"
        },
        {
            "mesh" : 1,
            "name" : "bottom_LP_T_shirt_0"
        },
        {
            "children" : [
                2
            ],
            "name" : "bottom_LP"
        },
        {
            "mesh" : 2,
            "name" : "f_LP_T_shirt_0"
        },
        {
            "children" : [
                4
            ],
            "name" : "f_LP"
        },
        {
            "mesh" : 3,
            "name" : "up_LP_T_shirt_0"
        },
        {
            "children" : [
                6
            ],
            "name" : "up_LP"
        },
        {
            "children" : [
                1,
                3,
                5,
                7
            ],
            "name" : "RootNode"
        },
        {
            "children" : [
                8
            ],
            "name" : "cf3c8d0dd59c4dd8b50c09bf06f1d670.fbx",
            "rotation" : [
                0.7071068286895752,
                0,
                0,
                0.7071067094802856
            ],
            "translation" : [
                0,
                0,
                7.62939453125e-06
            ]
        },
        {
            "children" : [
                9
            ],
            "name" : "Sketchfab_model",
            "rotation" : [
                -0.7071068286895752,
                0,
                0,
                0.7071067094802856
            ],
            "translation" : [
                0,
                -96.58470916748047,
                0
            ]
        }
    ],
    "materials" : [
        {
            "doubleSided" : true,
            "name" : "T_shirt",
            "normalTexture" : {
                "index" : 0
            },
            "occlusionTexture" : {
                "index" : 1
            },
            "pbrMetallicRoughness" : {
                "baseColorTexture" : {
                    "index" : 2
                },
                "metallicFactor" : 0,
                "metallicRoughnessTexture" : {
                    "index" : 1
                }
            }
        }
    ],
    "meshes" : [
        {
            "name" : "body_LP_T_shirt_0",
            "primitives" : [
                {
                    "attributes" : {
                        "POSITION" : 0,
                        "NORMAL" : 1,
                        "TEXCOORD_0" : 2
                    },
                    "indices" : 3,
                    "material" : 0
                }
            ]
        },
        {
            "name" : "bottom_LP_T_shirt_0",
            "primitives" : [
                {
                    "attributes" : {
                        "POSITION" : 4,
                        "NORMAL" : 5,
                        "TEXCOORD_0" : 6
                    },
                    "indices" : 7,
                    "material" : 0
                }
            ]
        },
        {
            "name" : "f_LP_T_shirt_0",
            "primitives" : [
                {
                    "attributes" : {
                        "POSITION" : 8,
                        "NORMAL" : 9,
                        "TEXCOORD_0" : 10
                    },
                    "indices" : 11,
                    "material" : 0
                }
            ]
        },
        {
            "name" : "up_LP_T_shirt_0",
            "primitives" : [
                {
                    "attributes" : {
                        "POSITION" : 12,
                        "NORMAL" : 13,
                        "TEXCOORD_0" : 14
                    },
                    "indices" : 15,
                    "material" : 0
                }
            ]
        }
    ],
    "textures" : [
        {
            "sampler" : 0,
            "source" : 0
        },
        {
            "sampler" : 0,
            "source" : 1
        },
        {
            "sampler" : 0,
            "source" : 2
        }
    ],
    "images" : [
        {
            "mimeType" : "image/png",
            "name" : "T_shirt_normal",
            "uri" : "T_shirt_normal.png"
        },
        {
            "mimeType" : "image/png",
            "name" : "T_shirt_metallicRoughness",
            "uri" : "T_shirt_metallicRoughness.png"
        },
        {
            "mimeType" : "image/jpeg",
            "name" : "T_shirt_baseColor",
            "uri" : "T_shirt_baseColor.jpg"
        }
    ],
    "accessors" : [
        {
            "bufferView" : 0,
            "componentType" : 5126,
            "count" : 819,
            "max" : [
                43.18942642211914,
                166.45945739746094,
                9.044111251831055
            ],
            "min" : [
                -42.983821868896484,
                98.50415802001953,
                -18.395763397216797
            ],
            "type" : "VEC3"
        },
        {
            "bufferView" : 1,
            "componentType" : 5126,
            "count" : 819,
            "type" : "VEC3"
        },
        {
            "bufferView" : 2,
            "componentType" : 5126,
            "count" : 819,
            "type" : "VEC2"
        },
        {
            "bufferView" : 3,
            "componentType" : 5123,
            "count" : 3924,
            "type" : "SCALAR"
        },
        {
            "bufferView" : 4,
            "componentType" : 5126,
            "count" : 15495,
            "max" : [
                0.6256891489028931,
                158.9321746826172,
                6.2662248611450195
            ],
            "min" : [
                -0.6323789954185486,
                149.2208709716797,
                1.1961500644683838
            ],
            "type" : "VEC3"
        },
        {
            "bufferView" : 5,
            "componentType" : 5126,
            "count" : 15495,
            "type" : "VEC3"
        },
        {
            "bufferView" : 6,
            "componentType" : 5126,
            "count" : 15495,
            "type" : "VEC2"
        },
        {
            "bufferView" : 7,
            "componentType" : 5123,
            "count" : 50094,
            "type" : "SCALAR"
        },
        {
            "bufferView" : 8,
            "componentType" : 5126,
            "count" : 77,
            "max" : [
                1.4689487218856812,
                160.2336883544922,
                6.939277648925781
            ],
            "min" : [
                -1.5982472896575928,
                145.8625030517578,
                0.2134600579738617
            ],
            "type" : "VEC3"
        },
        {
            "bufferView" : 9,
            "componentType" : 5126,
            "count" : 77,
            "type" : "VEC3"
        },
        {
            "bufferView" : 10,
            "componentType" : 5126,
            "count" : 77,
            "type" : "VEC2"
        },
        {
            "bufferView" : 11,
            "componentType" : 5123,
            "count" : 342,
            "type" : "SCALAR"
        },
        {
            "bufferView" : 12,
            "componentType" : 5126,
            "count" : 202,
            "max" : [
                7.388938903808594,
                167.095703125,
                0.6807940006256104
            ],
            "min" : [
                -7.478743553161621,
                159.77130126953125,
                -11.026941299438477
            ],
            "type" : "VEC3"
        },
        {
            "bufferView" : 13,
            "componentType" : 5126,
            "count" : 202,
            "type" : "VEC3"
        },
        {
            "bufferView" : 14,
            "componentType" : 5126,
            "count" : 202,
            "type" : "VEC2"
        },
        {
            "bufferView" : 15,
            "componentType" : 5123,
            "count" : 813,
            "type" : "SCALAR"
        }
    ],
    "bufferViews" : [
        {
            "buffer" : 0,
            "byteLength" : 9828,
            "byteOffset" : 0,
            "target" : 34962
        },
        {
            "buffer" : 0,
            "byteLength" : 9828,
            "byteOffset" : 9828,
            "target" : 34962
        },
        {
            "buffer" : 0,
            "byteLength" : 6552,
            "byteOffset" : 19656,
            "target" : 34962
        },
        {
            "buffer" : 0,
            "byteLength" : 7848,
            "byteOffset" : 26208,
            "target" : 34963
        },
        {
            "buffer" : 0,
            "byteLength" : 185940,
            "byteOffset" : 34056,
            "target" : 34962
        },
        {
            "buffer" : 0,
            "byteLength" : 185940,
            "byteOffset" : 219996,
            "target" : 34962
        },
        {
            "buffer" : 0,
            "byteLength" : 123960,
            "byteOffset" : 405936,
            "target" : 34962
        },
        {
            "buffer" : 0,
            "byteLength" : 100188,
            "byteOffset" : 529896,
            "target" : 34963
        },
        {
            "buffer" : 0,
            "byteLength" : 924,
            "byteOffset" : 630084,
            "target" : 34962
        },
        {
            "buffer" : 0,
            "byteLength" : 924,
            "byteOffset" : 631008,
            "target" : 34962
        },
        {
            "buffer" : 0,
            "byteLength" : 616,
            "byteOffset" : 631932,
            "target" : 34962
        },
        {
            "buffer" : 0,
            "byteLength" : 684,
            "byteOffset" : 632548,
            "target" : 34963
        },
        {
            "buffer" : 0,
            "byteLength" : 2424,
            "byteOffset" : 633232,
            "target" : 34962
        },
        {
            "buffer" : 0,
            "byteLength" : 2424,
            "byteOffset" : 635656,
            "target" : 34962
        },
        {
            "buffer" : 0,
            "byteLength" : 1616,
            "byteOffset" : 638080,
            "target" : 34962
        },
        {
            "buffer" : 0,
            "byteLength" : 1626,
            "byteOffset" : 639696,
            "target" : 34963
        }
    ],
    "samplers" : [
        {
            "magFilter" : 9729,
            "minFilter" : 9987
        }
    ],
    "buffers" : [
        {
            "byteLength" : 641324,
            "uri" : "aw.bin"
        }
    ]
}
