{
    "asset" : {
        "generator" : "Khronos glTF Blender I/O v1.6.16",
        "version" : "2.0"
    },
    "scene" : 0,
    "scenes" : [
        {
            "name" : "Scene",
            "nodes" : [
                2
            ]
        }
    ],
    "nodes" : [
        {
            "mesh" : 0,
            "name" : "Cube",
            "scale" : [
                2,
                3,
                1
            ],
            "translation" : [
                0,
                4.148252964019775,
                -0.4921084940433502
            ]
        },
        {
            "mesh" : 1,
            "name" : "Suzanne",
            "translation" : [
                0,
                6,
                0
            ]
        },
        {
            "children" : [
                0,
                1
            ],
            "name" : "Ape"
        }
    ],
    "materials" : [
        {
            "doubleSided" : true,
            "name" : "Material.002",
            "pbrMetallicRoughness" : {
                "baseColorTexture" : {
                    "index" : 0
                },
                "metallicFactor" : 0,
                "roughnessFactor" : 0.5
            }
        },
        {
            "doubleSided" : true,
            "name" : "Material.001",
            "pbrMetallicRoughness" : {
                "baseColorTexture" : {
                    "index" : 1
                },
                "metallicFactor" : 0,
                "roughnessFactor" : 0.5
            }
        }
    ],
    "meshes" : [
        {
            "name" : "Cube.001",
            "primitives" : [
                {
                    "attributes" : {
                        "POSITION" : 0,
                        "NORMAL" : 1,
                        "TEXCOORD_0" : 2
                    },
                    "indices" : 3,
                    "material" : 0
                }
            ]
        },
        {
            "name" : "Suzanne",
            "primitives" : [
                {
                    "attributes" : {
                        "POSITION" : 4,
                        "NORMAL" : 5,
                        "TEXCOORD_0" : 6
                    },
                    "indices" : 7,
                    "material" : 1
                }
            ]
        }
    ],
    "textures" : [
        {
            "sampler" : 0,
            "source" : 0
        },
        {
            "sampler" : 0,
            "source" : 1
        }
    ],
    "images" : [
        {
            "bufferView" : 4,
            "mimeType" : "image/png",
            "name" : "Cube-6"
        },
        {
            "bufferView" : 9,
            "mimeType" : "image/png",
            "name" : "Sphere-9"
        }
    ],
    "accessors" : [
        {
            "bufferView" : 0,
            "componentType" : 5126,
            "count" : 966,
            "max" : [
                0.4947226941585541,
                0.48144209384918213,
                0.5
            ],
            "min" : [
                -0.4947126507759094,
                -0.5,
                -0.5
            ],
            "type" : "VEC3"
        },
        {
            "bufferView" : 1,
            "componentType" : 5126,
            "count" : 966,
            "type" : "VEC3"
        },
        {
            "bufferView" : 2,
            "componentType" : 5126,
            "count" : 966,
            "type" : "VEC2"
        },
        {
            "bufferView" : 3,
            "componentType" : 5123,
            "count" : 1716,
            "type" : "SCALAR"
        },
        {
            "bufferView" : 5,
            "componentType" : 5126,
            "count" : 1966,
            "max" : [
                0.68359375,
                0.4921875,
                0.42578125
            ],
            "min" : [
                -0.68359375,
                -0.4921875,
                -0.42578125
            ],
            "type" : "VEC3"
        },
        {
            "bufferView" : 6,
            "componentType" : 5126,
            "count" : 1966,
            "type" : "VEC3"
        },
        {
            "bufferView" : 7,
            "componentType" : 5126,
            "count" : 1966,
            "type" : "VEC2"
        },
        {
            "bufferView" : 8,
            "componentType" : 5123,
            "count" : 2904,
            "type" : "SCALAR"
        }
    ],
    "bufferViews" : [
        {
            "buffer" : 0,
            "byteLength" : 11592,
            "byteOffset" : 0
        },
        {
            "buffer" : 0,
            "byteLength" : 11592,
            "byteOffset" : 11592
        },
        {
            "buffer" : 0,
            "byteLength" : 7728,
            "byteOffset" : 23184
        },
        {
            "buffer" : 0,
            "byteLength" : 3432,
            "byteOffset" : 30912
        },
        {
            "buffer" : 0,
            "byteLength" : 410784,
            "byteOffset" : 34344
        },
        {
            "buffer" : 0,
            "byteLength" : 23592,
            "byteOffset" : 445128
        },
        {
            "buffer" : 0,
            "byteLength" : 23592,
            "byteOffset" : 468720
        },
        {
            "buffer" : 0,
            "byteLength" : 15728,
            "byteOffset" : 492312
        },
        {
            "buffer" : 0,
            "byteLength" : 5808,
            "byteOffset" : 508040
        },
        {
            "buffer" : 0,
            "byteLength" : 1058636,
            "byteOffset" : 513848
        }
    ],
    "samplers" : [
        {
            "magFilter" : 9729,
            "minFilter" : 9987
        }
    ],
    "buffers" : [
        {
            "byteLength" : 1572484,
            "uri" : "data:application/octet-stream;base64,"
        }
    ]
}
